<?xml version="1.0" standalone="no"?>
<!DOCTYPE svg PUBLIC "-//W3C//DTD SVG 1.1//EN" "http://www.w3.org/Graphics/SVG/1.1/DTD/svg11.dtd" >
<svg>
<metadata>
Created by FontForge 20090914 at Sat Feb  2 04:33:43 2019
 By www-data
Copyright (c) 2019 by Creative LAB. All rights reserved.
</metadata>
<defs>
<font id="HaeartyScript" horiz-adv-x="281" >
  <font-face 
    font-family="Haearty Script"
    font-weight="400"
    font-stretch="normal"
    units-per-em="1000"
    panose-1="2 0 5 3 6 0 0 2 0 4"
    ascent="750"
    descent="-250"
    x-height="328"
    cap-height="681.001"
    bbox="-1309 -514.993 1712 844.999"
    underline-thickness="50"
    underline-position="-50"
    unicode-range="U+000D-U+E09B"
  />
<missing-glyph horiz-adv-x="210" 
 />
    <glyph glyph-name=".notdef" horiz-adv-x="210" 
 />
    <glyph glyph-name="NULL" horiz-adv-x="0" 
 />
    <glyph glyph-name="NULL" horiz-adv-x="0" 
 />
    <glyph glyph-name="nonmarkingreturn" unicode="&#xd;" horiz-adv-x="210" 
 />
    <glyph glyph-name="space" unicode=" " horiz-adv-x="210" 
 />
    <glyph glyph-name="exclam" unicode="!" horiz-adv-x="305" 
d="M142 676c1.33301 8.66699 5.16602 14.834 11.499 18.501s13.833 5.5 22.5 5.5c10.667 0 20.834 -3 30.501 -9s14.5 -14.667 14.5 -26c0 -0.666992 -0.166992 -1.5 -0.5 -2.5s-0.5 -2.5 -0.5 -4.5l-116 -515c-2 -4 -5.5 -7.66699 -10.5 -11s-10.167 -5 -15.5 -5
c-7.33301 0 -13.5 2.16699 -18.5 6.5s-7.5 10.166 -7.5 17.499v5zM122 114c-0.666992 -11.333 -1.49902 -22.8291 -2.49902 -34.4961s-2.83301 -22.334 -5.5 -32.001s-6.5 -17.667 -11.5 -24s-11.833 -9.5 -20.5 -9.5c-18.667 0 -32 4.66699 -40 14s-12 20.666 -12 33.999
c0 19.333 6.33301 40.666 19 63.999c2 3.33301 3.66699 3.66602 5 0.999023c3.33301 -4 7.5 -6.66699 12.5 -8s10.167 -2 15.5 -2c6.66699 0 13.167 0.833008 19.5 2.5s12.166 3.5 17.499 5.5c2 0.666992 3 -0.333008 3 -3v-8z" />
    <glyph glyph-name="quotedbl" unicode="&#x22;" horiz-adv-x="367" 
d="M114 616c17.333 0 30 -4.50391 38 -13.5039s12 -20.5 12 -34.5c0 -12.667 -3.66699 -27.667 -11 -45s-16.666 -33.666 -27.999 -48.999s-24.5 -28.5 -39.5 -39.5s-29.833 -16.5 -44.5 -16.5c-7.33301 0 -11 3.66699 -11 11c0 4 2.66699 7.66699 8 11
c5.33301 2.66699 10.666 6.83398 15.999 12.501s10.333 11.834 15 18.501s9 13.667 13 21l11 21c-12 4.66699 -21 11.334 -27 20.001s-9 18 -9 28c0 13.333 5 25.833 15 37.5s24 17.5 42 17.5zM246 615.996c17.333 0 30 -4.50391 38 -13.5039s12 -20.5 12 -34.5
c0 -12.667 -3.66699 -27.667 -11 -45s-16.666 -33.666 -27.999 -48.999s-24.5 -28.5 -39.5 -39.5s-29.833 -16.5 -44.5 -16.5c-7.33301 0 -11 3.66699 -11 11c0 4 2.66699 7.66699 8 11c5.33301 2.66699 10.666 6.83398 15.999 12.501s10.333 11.834 15 18.501
s9 13.667 13 21l11 21c-12 4.66699 -21 11.334 -27 20.001s-9 18 -9 28c0 13.333 5 25.833 15 37.5s24 17.5 42 17.5z" />
    <glyph glyph-name="numbersign" unicode="#" horiz-adv-x="674" 
d="M284 632c1.33301 4.66699 4.33008 8.6709 8.99707 12.0039s9.66699 5 15 5c6.66699 0 12.167 -2.33301 16.5 -7s6.5 -11 6.5 -19c0 -0.666992 -0.166992 -1.33398 -0.5 -2.00098s-0.5 -1.33398 -0.5 -2.00098l-47 -182h129l53 195c2 4.66699 5 8.66699 9 12
s8.66699 5 14 5c6.66699 0 12.334 -2 17.001 -6s7 -9.66699 7 -17c0 -3.33301 -0.333008 -5.66602 -1 -6.99902c-8.66699 -30 -17 -60.333 -25 -91s-16.333 -61 -25 -91h91c6.66699 0 12.334 -2.16699 17.001 -6.5s7 -10.166 7 -17.499
c0 -6.66699 -2.33301 -12.167 -7 -16.5s-10.334 -6.5 -17.001 -6.5h-103l-23 -83h61c7.33301 0 13.166 -2.33301 17.499 -7s6.5 -10 6.5 -16c0 -7.33301 -2.16699 -13.166 -6.5 -17.499s-10.166 -6.5 -17.499 -6.5h-73l-26.5 -94l-26.5 -94
c-1.33301 -5.33301 -4.16602 -9.5 -8.49902 -12.5s-9.16602 -4.5 -14.499 -4.5c-7.33301 0 -13 2.5 -17 7.5s-6 10.167 -6 15.5c0 3.33301 0.333008 5.66602 1 6.99902l47 175h-128l-49 -187c-3.33301 -11.333 -11 -17 -23 -17c-16 0 -24 7.33301 -24 22
c0 3.33301 0.333008 5.66602 1 6.99902l46 175h-126c-6.66699 0 -12.334 2.16699 -17.001 6.5s-7 10.166 -7 17.499c0 6 2.33301 11.333 7 16s10.334 7 17.001 7h139l10 41.5c3.33301 14.333 7 28.166 11 41.499h-137c-7.33301 0 -13.166 2.16699 -17.499 6.5
s-6.5 9.83301 -6.5 16.5c0 7.33301 2.16699 13.166 6.5 17.499s10.166 6.5 17.499 6.5h149zM376.997 307.004l10.5 41.501c3.66699 14.333 7.5 28.166 11.5 41.499h-129c-3.33301 -14.667 -7 -28.5 -11 -41.5s-7.66699 -26.833 -11 -41.5h129z" />
    <glyph glyph-name="dollar" unicode="$" horiz-adv-x="365" 
d="M255 458c-0.666992 -2 -2.17188 -3.66992 -4.50488 -5.00293s-4.5 -2 -6.5 -2c-6.66699 0 -10 3.66699 -10 11c0 2 0.666992 3.66699 2 5l-1 -1c5.33301 12.667 9.5 25.5 12.5 38.5s4.5 25.167 4.5 36.5c0 12.667 -2.16699 24.834 -6.5 36.501s-11.166 20.5 -20.499 26.5
l-44 -262c14.667 -21.333 28 -43.333 40 -66s18 -49 18 -79c0 -33.333 -8.16699 -62.5 -24.5 -87.5s-42.166 -38.833 -77.499 -41.5l-7 -40c-1.33301 -5.33301 -4.33301 -9.83301 -9 -13.5s-9.66699 -5.5 -15 -5.5c-7.33301 0 -13.166 2.16699 -17.499 6.5
s-6.5 9.83301 -6.5 16.5v4l8 43c-13.333 7.33301 -23.833 17.833 -31.5 31.5s-11.5 29.167 -11.5 46.5s5.83301 35.833 17.5 55.5s30.167 37.834 55.5 54.501l10 53c-19.333 29.333 -35.5 58.5 -48.5 87.5s-19.5 58.167 -19.5 87.5c0 18 3.16699 35.333 9.5 52
s14.833 31.5 25.5 44.5s23.334 23.5 38.001 31.5s30 12.667 46 14l8 38c0.666992 6.66699 3.16699 11.667 7.5 15s9.5 5 15.5 5c6.66699 0 12.334 -2.16699 17.001 -6.5s7 -9.83301 7 -16.5v-4l-7 -41c13.333 -8.66699 24 -20.667 32 -36s12 -31.666 12 -48.999
c0 -24 -6 -52 -18 -84zM175.995 599.997c-14 -10.667 -25.999 -26.333 -35.999 -47s-15 -42.667 -15 -66c0 -14 1.66699 -28 5 -42s7.66602 -26.667 12.999 -38zM139.996 97.998c10.667 4.66699 19.5 14.167 26.5 28.5s10.5 35.833 10.5 64.5c0 11.333 -0.5 22 -1.5 32
s-3.83301 20.333 -8.5 31zM92.9961 102.998c0 1.33301 0.333008 2.66699 1 4l4 -3zM71.9961 156.999c0 -10 2 -19.499 6 -28.499s9.33301 -16.167 16 -21.5c3.33301 15.333 6.83301 34.166 10.5 56.499l11.5 72.5c-15.333 -13.333 -26.5 -27 -33.5 -41
s-10.5 -26.667 -10.5 -38z" />
    <glyph glyph-name="percent" unicode="%" horiz-adv-x="526" 
d="M364 660c2 3.33301 4.99902 6.5 8.99902 9.5s8 4.5 12 4.5c7.33301 0 13.333 -2.16699 18 -6.5s7 -9.83301 7 -16.5c0 -3.33301 -0.666992 -6.33301 -2 -9l-274 -588c-6 -9.33301 -13.667 -14 -23 -14c-7.33301 0 -13.166 2.33301 -17.499 7s-6.5 10 -6.5 16
c0 2.66699 0.666992 6 2 10zM182.999 447c11.333 9.33301 20.332 20.834 26.999 34.501s10 27.167 10 40.5c0 15.333 -3.5 26.666 -10.5 33.999s-14.833 11 -23.5 11c-9.33301 0 -19 -2.83301 -29 -8.5s-19.167 -13 -27.5 -22s-15.166 -19 -20.499 -30s-8 -22.167 -8 -33.5
c0 -15.333 4 -26.833 12 -34.5s16.667 -11.5 26 -11.5c6 0 13.167 1.66699 21.5 5s15.833 8.33301 22.5 15zM226.998 482.001c-8 -18 -20.835 -33.833 -38.502 -47.5s-39.5 -20.5 -65.5 -20.5c-21.333 0 -36.666 6 -45.999 18s-14 26.333 -14 43c0 12 2.5 24.167 7.5 36.5
s12.5 23.5 22.5 33.5s22.333 18.167 37 24.5s31.334 9.5 50.001 9.5c19.333 0 33.333 -5.16699 42 -15.5s13 -23.5 13 -39.5c0 -14 -2.66699 -28 -8 -42zM380.996 121.001c11.333 9.33301 20.168 20.668 26.501 34.001s9.5 26.666 9.5 39.999c0 16 -3.33301 27.667 -10 35
s-14.334 11 -23.001 11c-9.33301 0 -19 -2.83301 -29 -8.5s-19.167 -13 -27.5 -22s-15.166 -19.167 -20.499 -30.5s-8 -22.333 -8 -33c0 -15.333 3.83301 -26.833 11.5 -34.5s16.167 -11.5 25.5 -11.5c6 0 13.167 1.66699 21.5 5s16.166 8.33301 23.499 15zM423.998 156.003
c-7.33301 -18 -20.002 -33.833 -38.002 -47.5s-40 -20.5 -66 -20.5c-21.333 0 -36.666 6 -45.999 18s-14 26.333 -14 43c0 12 2.5 24.167 7.5 36.5s12.5 23.5 22.5 33.5s22.333 18.167 37 24.5s31.334 9.5 50.001 9.5c19.333 0 33.333 -5.16699 42 -15.5
s13 -23.833 13 -40.5c0 -13.333 -2.66699 -27 -8 -41z" />
    <glyph glyph-name="ampersand" unicode="&#x26;" horiz-adv-x="564" 
d="M54 538c0 2.66699 0.998047 5.16797 2.99805 7.50098s4.66699 3.5 8 3.5c2.66699 0 5 -1.16699 7 -3.5s3 -4.83301 3 -7.5c0 -23.333 2.83301 -45.333 8.5 -66s14.5 -38.667 26.5 -54s27 -27.5 45 -36.5s39.333 -13.5 64 -13.5h3c-10 22 -15 45.667 -15 71
c0 17.333 2.5 34.166 7.5 50.499s12.333 30.833 22 43.5s21.834 22.834 36.501 30.501s31.667 11.5 51 11.5c24.667 0 44.334 -7 59.001 -21s22 -32.667 22 -56c0 -17.333 -3.16699 -33.333 -9.5 -48s-15 -28.167 -26 -40.5s-23.833 -23 -38.5 -32s-30 -16.167 -46 -21.5
c7.33301 -10.667 16.666 -19.334 27.999 -26.001l30 -18h-1c9.33301 -6 14 -9.66699 14 -11c0 -5.33301 -4.66699 -8 -14 -8c-2 0 -4.83301 0.333008 -8.5 1s-7.16699 1.66699 -10.5 3c-29.333 -3.33301 -54.833 -10.166 -76.5 -20.499s-40 -22.666 -55 -36.999
s-26.167 -30 -33.5 -47s-11 -33.833 -11 -50.5c0 -14.667 2.16699 -28.667 6.5 -42s10.666 -25.166 18.999 -35.499s18.333 -18.5 30 -24.5s24.834 -9 39.501 -9c22 0 42.5 5.83301 61.5 17.5s35.5 26.334 49.5 44.001s24.833 37.334 32.5 59.001s11.5 42.5 11.5 62.5
c0 5.33301 -0.166992 11.166 -0.5 17.499s-1.16602 12.166 -2.49902 17.499l-68 -22c-8.66699 0 -13 3.66699 -13 11c0 4 2.66699 7.33301 8 10l140 45c3.33301 0 6.16602 -1 8.49902 -3s3.5 -4.33301 3.5 -7c0 -4 -2.66699 -7.66699 -8 -11l-50 -16
c2.66699 -12.667 4 -27 4 -43c0 -26 -5 -51.333 -15 -76s-23.667 -46.667 -41 -66s-38.166 -34.833 -62.499 -46.5s-50.5 -17.5 -78.5 -17.5c-41.333 0 -74.333 12.167 -99 36.5s-37 55.5 -37 93.5c0 24 4.5 46.667 13.5 68s21.333 40 37 56s34 29 55 39s43.5 16 67.5 18
c-9.33301 7.33301 -17.666 16.666 -24.999 27.999c-2.66699 -0.666992 -5.33398 -0.833984 -8.00098 -0.500977s-5.33398 0.5 -8.00098 0.5c-27.333 0 -51.166 5 -71.499 15s-37.333 23.5 -51 40.5s-24 37.167 -31 60.5s-10.5 48.666 -10.5 75.999zM280.998 503.001
c-5.33301 -10.667 -9.5 -22.168 -12.5 -34.501s-4.5 -24.5 -4.5 -36.5c0 -20 3.66699 -38.333 11 -55c14 4.66699 27.667 10.834 41 18.501s25 16.667 35 27s18 21.833 24 34.5s9 26.667 9 42c0 16 -4 27.833 -12 35.5s-17.333 11.5 -28 11.5
c-11.333 0 -22.833 -3.66699 -34.5 -11s-21.167 -18 -28.5 -32z" />
    <glyph glyph-name="quotesingle" unicode="'" horiz-adv-x="218" 
d="M97 616c17.333 0 30 -4.50391 38 -13.5039s12 -20.5 12 -34.5c0 -12.667 -3.66699 -27.667 -11 -45s-16.666 -33.666 -27.999 -48.999s-24.5 -28.5 -39.5 -39.5s-29.833 -16.5 -44.5 -16.5c-7.33301 0 -11 3.66699 -11 11c0 4 2.66699 7.66699 8 11
c5.33301 2.66699 10.666 6.83398 15.999 12.501s10.333 11.834 15 18.501s9 13.667 13 21l11 21c-12 4.66699 -21 11.334 -27 20.001s-9 18 -9 28c0 13.333 5 25.833 15 37.5s24 17.5 42 17.5z" />
    <glyph glyph-name="parenleft" unicode="(" horiz-adv-x="202" 
d="M248 611c4.66699 -1.33301 7.00098 -4.99902 7.00098 -10.999c0 -5.33301 -1.66699 -8.66602 -5 -9.99902l1 1c-22.667 -16.667 -42.167 -39.167 -58.5 -67.5s-30 -60 -41 -95s-19.167 -71.833 -24.5 -110.5s-8 -76.334 -8 -113.001
c0 -40.667 3.16699 -78.334 9.5 -113.001s16.166 -63 29.499 -85c9.33301 -16 17.166 -27 23.499 -33s11.166 -10.333 14.499 -13c3.33301 -2 5.83301 -3.83301 7.5 -5.5s2.5 -4.16699 2.5 -7.5c0 -5.33301 -2.16699 -8.33301 -6.5 -9s-8.16602 -1 -11.499 -1
c-24 0 -44.5 7 -61.5 21s-31 33 -42 57s-19 52 -24 84s-7.5 65.667 -7.5 101c0 49.333 4.33301 98.5 13 147.5s21 93 37 132s35 70.667 57 95s46.333 36.5 73 36.5h7c2.66699 0 5.33398 -0.333008 8.00098 -1z" />
    <glyph glyph-name="parenright" unicode=")" horiz-adv-x="210" 
d="M-39 -58c-6 0 -8.99707 3.33008 -8.99707 9.99707c0 5.33301 2.33301 8.66602 7 9.99902l-1 -1c22 16.667 41.167 39.334 57.5 68.001s30 60.334 41 95.001s19.167 71.334 24.5 110.001s8 76.334 8 113.001c0 40 -3.33301 77.667 -10 113s-16.334 63.666 -29.001 84.999
c-8.66699 14 -16.334 24.5 -23.001 31.5s-11.667 11.833 -15 14.5c-3.33301 2 -5.83301 3.83301 -7.5 5.5s-2.5 4.16699 -2.5 7.5c0 5.33301 1.66699 8.5 5 9.5s7.66602 1.5 12.999 1.5c24 0 44.5 -7.16699 61.5 -21.5s31 -33.5 42 -57.5s19 -52 24 -84
s7.5 -65.333 7.5 -100c0 -49.333 -4.33301 -98.333 -13 -147s-21 -92.667 -37 -132s-35 -71.166 -57 -95.499s-46.333 -36.5 -73 -36.5c-6 0 -10.667 0.333008 -14 1z" />
    <glyph glyph-name="asterisk" unicode="*" horiz-adv-x="343" 
d="M126 627c0.666992 7.33301 3.1709 12.8379 7.50391 16.5049s10.166 5.5 17.499 5.5c14.667 -1.33301 22 -9.66602 22 -24.999l-4 -49l33 23c5.33301 3.33301 10 5 14 5c7.33301 0 13.166 -2.66699 17.499 -8s6.5 -11 6.5 -17c0 -8.66699 -3.33301 -15.334 -10 -20.001
l-47 -33l37 -25c6.66699 -4.66699 10 -11.334 10 -20.001c0 -6.66699 -2.66699 -12.167 -8 -16.5s-10.666 -6.5 -15.999 -6.5c-6 0 -11 1.66699 -15 5l-28 20c-0.666992 -8.66699 -1.5 -16.834 -2.5 -24.501s-1.83301 -15.834 -2.5 -24.501
c-0.666992 -7.33301 -3.33398 -13 -8.00098 -17s-10.334 -6 -17.001 -6c-7.33301 0.666992 -12.833 3.33398 -16.5 8.00098s-5.5 10.667 -5.5 18l4 44c-5.33301 -3.33301 -10 -6.5 -14 -9.5s-8.66699 -6.16699 -14 -9.5v1c-2.66699 -2 -5.33398 -3.33301 -8.00098 -4
s-5 -1 -7 -1c-5.33301 0 -10.666 2.16699 -15.999 6.5s-8 10.166 -8 17.499c0 8 3.66699 14.333 11 19l20 13.5l20 13.5l-38 27c-6.66699 5.33301 -10 11.666 -10 18.999s2.16699 13.166 6.5 17.499s10.166 6.5 17.499 6.5c4 0 8 -0.666992 12 -2l34 -25z" />
    <glyph glyph-name="plus" unicode="+" horiz-adv-x="424" 
d="M166 405c0.666992 6.66699 3.33398 12.001 8.00098 16.001s10.334 6 17.001 6c7.33301 -0.666992 13 -3.33398 17 -8.00098s6 -10.334 6 -17.001l-10 -120h99c7.33301 0 13.166 -2.33301 17.499 -7s6.5 -10.667 6.5 -18c0 -6.66699 -2.16699 -12.334 -6.5 -17.001
s-10.166 -7 -17.499 -7h-102l-10 -123c-0.666992 -7.33301 -3.33398 -13 -8.00098 -17s-10.334 -6 -17.001 -6c-7.33301 0.666992 -12.833 3.33398 -16.5 8.00098s-5.5 10.667 -5.5 18l9 120h-99c-7.33301 0 -13 2.33301 -17 7s-6 10.334 -6 17.001c0 7.33301 2 13.333 6 18
s9.66699 7 17 7h102z" />
    <glyph glyph-name="comma" unicode="," horiz-adv-x="216" 
d="M100 128c17.333 0 30 -4.5 38 -13.5s12 -20.5 12 -34.5c0 -12.667 -3.66699 -27.5 -11 -44.5s-16.666 -33.333 -27.999 -49s-24.5 -28.834 -39.5 -39.501s-29.833 -16 -44.5 -16c-7.33301 0 -11 3.66699 -11 11c0 3.33301 2.66699 6.66602 8 9.99902
c5.33301 2.66699 10.666 6.83398 15.999 12.501s10.333 11.834 15 18.501s9 13.667 13 21l11 21c-12 4.66699 -21 11.5 -27 20.5s-9 18.167 -9 27.5c0 13.333 5 25.833 15 37.5s24 17.5 42 17.5z" />
    <glyph glyph-name="hyphen" unicode="-" horiz-adv-x="470" 
d="M76 145c-7.33301 0 -13.166 2.33301 -17.499 7s-6.5 10.334 -6.5 17.001s2.16699 12.334 6.5 17.001s10.166 7 17.499 7h281c6.66699 0 12.334 -2.33301 17.001 -7s7 -10.334 7 -17.001s-2.33301 -12.334 -7 -17.001s-10.334 -7 -17.001 -7h-281z" />
    <glyph glyph-name="period" unicode="." horiz-adv-x="256" 
d="M107 107c15.333 0 27.332 -5.00098 35.999 -15.001s13 -21.667 13 -35c0 -14.667 -5.66699 -27.667 -17 -39s-24 -17 -38 -17c-15.333 0 -27.666 4.83301 -36.999 14.5s-14 22.834 -14 39.501c1.33301 14 7.33301 26.167 18 36.5s23.667 15.5 39 15.5z" />
    <glyph glyph-name="slash" unicode="/" horiz-adv-x="210" 
d="M132 608c3.33301 13.333 11 19.999 23 19.999c7.33301 0 13.333 -2.16699 18 -6.5s7 -9.83301 7 -16.5v-4l-107 -641c-1.33301 -5.33301 -4.33301 -9.66602 -9 -12.999s-9.66699 -5 -15 -5c-6.66699 0 -12.167 2 -16.5 6s-6.5 9.33301 -6.5 16v4z" />
    <glyph glyph-name="colon" unicode=":" horiz-adv-x="224" 
d="M113 292c12 0 21.835 -4 29.502 -12s11.5 -17.667 11.5 -29c0 -14 -4.83301 -25.167 -14.5 -33.5s-19.834 -12.5 -30.501 -12.5c-11.333 0 -21 4 -29 12s-12 17.667 -12 29c0 12 4.16699 22.667 12.5 32s19.166 14 32.499 14zM97.002 140
c12 0 21.833 -4.16699 29.5 -12.5s11.5 -18.166 11.5 -29.499c0 -13.333 -5 -24 -15 -32s-20.333 -12 -31 -12c-11.333 0 -21 3.66699 -29 11s-12 16.666 -12 27.999s4.33301 22 13 32s19.667 15 33 15z" />
    <glyph glyph-name="semicolon" unicode=";" horiz-adv-x="214" 
d="M100 294c11.333 0 20.834 -3.83301 28.501 -11.5s11.5 -17.167 11.5 -28.5c0 -14 -4.83301 -25.167 -14.5 -33.5s-19.834 -12.5 -30.501 -12.5c-11.333 0 -21 4 -29 12s-12 17.667 -12 29c0 12 4.33301 22.5 13 31.5s19.667 13.5 33 13.5zM100.001 120
c17.333 0 30 -4.49805 38 -13.498s12 -20.5 12 -34.5c0 -12.667 -3.66699 -27.5 -11 -44.5s-16.666 -33.333 -27.999 -49s-24.5 -28.834 -39.5 -39.501s-29.833 -16 -44.5 -16c-7.33301 0 -11 3.66699 -11 11c0 4 2.66699 7.33301 8 10s10.666 6.83398 15.999 12.501
s10.333 12 15 19s9 14.167 13 21.5l11 21c-8 5.33301 -13.667 12.166 -17 20.499s-5 17.166 -5 26.499c0 13.333 3.83301 25.833 11.5 37.5s18.167 17.5 31.5 17.5z" />
    <glyph glyph-name="less" unicode="&#x3c;" horiz-adv-x="321" 
d="M262 368l3.00195 3.00098c1.33301 1.33301 3.16602 2.83301 5.49902 4.5s4.83301 2.5 7.5 2.5s5.16699 -1.33301 7.5 -4s3.5 -5 3.5 -7c0 -4 -1.16699 -6.83301 -3.5 -8.5l-7.5 -5.5l-2 -1l-154 -146l166 -164c2.66699 -2.66699 4 -5 4 -7c0 -3.33301 -1.33301 -6 -4 -8
s-5.33398 -3 -8.00098 -3c-3.33301 0 -6 1.33301 -8 4c-8 7.33301 -18.333 16.166 -31 26.499s-26.5 21 -41.5 32l-46.5 34l-46 33.5l-37 25.5c-11.333 7.66699 -21.333 14.834 -30 21.501c-2.66699 1.33301 -2.66699 2.66602 0 3.99902z" />
    <glyph glyph-name="equal" unicode="=" horiz-adv-x="494" 
d="M100 212c-7.33301 0 -13.166 2.33301 -17.499 7s-6.5 10.334 -6.5 17.001c0 7.33301 2.16699 13.166 6.5 17.499s10.166 6.5 17.499 6.5h276c7.33301 0 13.166 -2.16699 17.499 -6.5s6.5 -10.166 6.5 -17.499c0 -6.66699 -2.16699 -12.334 -6.5 -17.001
s-10.166 -7 -17.499 -7h-276zM92 68c-7.33301 0 -13.166 2.33301 -17.499 7s-6.5 10.334 -6.5 17.001c0 7.33301 2.16699 13.166 6.5 17.499s10.166 6.5 17.499 6.5h276c7.33301 0 13.166 -2.16699 17.499 -6.5s6.5 -10.166 6.5 -17.499
c0 -6.66699 -2.16699 -12.334 -6.5 -17.001s-10.166 -7 -17.499 -7h-276z" />
    <glyph glyph-name="greater" unicode="&#x3e;" horiz-adv-x="361" 
d="M289 207l-29.499 -22.001c-11 -8 -23.167 -16.333 -36.5 -25l-47.5 -33.5l-47.5 -35l-42 -32.5c-12.667 -10 -22.667 -18.667 -30 -26c-2 -2 -4.66699 -3 -8 -3c-7.33301 0 -11 3.33301 -11 10c0 2.66699 1.33301 5.33398 4 8.00098l166 164l-155 146v-1
c-2.66699 1.33301 -5.33398 3.16602 -8.00098 5.49902s-4 5.5 -4 9.5c0 2.66699 1 5.33398 3 8.00098s4.66699 4 8 4c2.66699 0 5 -0.833008 7 -2.5s4 -3.16699 6 -4.5l3 -3l222 -163v-4z" />
    <glyph glyph-name="question" unicode="?" horiz-adv-x="369" 
d="M97 447c0 -6.66699 -3 -10.665 -9 -11.998c-8 0 -12.5 4.16699 -13.5 12.5s-1.5 16.166 -1.5 23.499v4c0 26.667 4 50 12 70s18.333 36.5 31 49.5s27 22.667 43 29s32.333 9.5 49 9.5c15.333 0 30.333 -2.66699 45 -8s27.667 -13 39 -23s20.5 -22.333 27.5 -37
s10.5 -31.334 10.5 -50.001c0 -20.667 -5.5 -44 -16.5 -70s-27.167 -53 -48.5 -81l-28 -33.5c-9.33301 -11 -18.666 -21.167 -27.999 -30.5c-14 -14.667 -27 -29.334 -39 -44.001s-22.667 -30.667 -32 -48s-17.166 -36.666 -23.499 -57.999s-10.5 -45.333 -12.5 -72v-7
c0 -2 -1 -3 -3 -3h-41c-7.33301 0 -11 3.66699 -11 11c0 32.667 3.16699 61.167 9.5 85.5s15.166 46.333 26.499 66s24.333 37.834 39 54.501l48 52l19.5 20l19.5 21c21.333 23.333 36.666 47 45.999 71s14 46 14 66c0 27.333 -6.83301 49.833 -20.5 67.5
s-31.167 26.5 -52.5 26.5c-12 0 -24 -2.83301 -36 -8.5s-22.833 -14 -32.5 -25s-17.5 -24.833 -23.5 -41.5s-9 -36 -9 -58c0 -4.66699 0.166992 -9.33398 0.5 -14.001s0.833008 -9.66699 1.5 -15zM76 52.002c12 0 21.834 -3.83301 29.501 -11.5s11.5 -17.167 11.5 -28.5
c0 -14 -4.66699 -25.333 -14 -34s-20 -13 -32 -13c-11.333 0 -20.833 3.83301 -28.5 11.5s-11.5 17.167 -11.5 28.5s4.16699 22 12.5 32s19.166 15 32.499 15z" />
    <glyph glyph-name="at" unicode="@" horiz-adv-x="594" 
d="M351 401c0 -3.33301 -1.16992 -5.83203 -3.50293 -7.49902s-4.83301 -2.5 -7.5 -2.5c-4 0 -7.33301 2.66699 -10 8c-8 17.333 -16.333 26 -25 26c-6 0 -12.167 -3 -18.5 -9s-12.166 -13.333 -17.499 -22s-10.333 -17.334 -15 -26.001s-8 -16 -10 -22
c-2.66699 -8 -5.16699 -16.833 -7.5 -26.5s-3.5 -17.5 -3.5 -23.5s1.33301 -9 4 -9c3.33301 0 10.333 6 21 18s21.667 28.667 33 50c0 1.33301 0.333008 2.33301 1 3s1 1.66699 1 3l3.5 9c1 2.66699 4.16699 4 9.5 4h49c3.33301 0 4.33301 -1.33301 3 -4
c-6 -13.333 -11 -31.5 -15 -54.5s-6 -45.833 -6 -68.5c0 -25.333 2.66699 -47.166 8 -65.499s14.666 -27.5 27.999 -27.5c10 0 21.333 6.16699 34 18.5s24.5 28.333 35.5 48s20.167 42 27.5 67s11 50.5 11 76.5c0 32 -5.33301 60.167 -16 84.5s-24 44.666 -40 60.999
s-33.167 28.666 -51.5 36.999s-34.833 12.5 -49.5 12.5c-29.333 0 -57.333 -8.66699 -84 -26s-50 -40.166 -70 -68.499s-36 -60.5 -48 -96.5s-18 -73 -18 -111c0 -31.333 4.83301 -61 14.5 -89s23.334 -52.5 41.001 -73.5s38.5 -37.667 62.5 -50s50.333 -18.5 79 -18.5
c39.333 0 79.5 12.333 120.5 37s76.5 59 106.5 103l-1 -1c1.33301 4 4.66602 6 9.99902 6c3.33301 0 5.83301 -1.33301 7.5 -4s2.5 -5 2.5 -7c0 -2.66699 -0.666992 -4.66699 -2 -6c-34.667 -50 -75.5 -87.833 -122.5 -113.5s-93.833 -38.5 -140.5 -38.5
c-31.333 0 -61.333 5.33301 -90 16s-54 26.667 -76 48s-39.5 47.833 -52.5 79.5s-19.5 68.5 -19.5 110.5c0 52 7.66699 98.667 23 140s35.166 76.333 59.499 105s51.833 50.667 82.5 66s61.334 23 92.001 23c22.667 0 46 -5 70 -15s45.5 -24.667 64.5 -44
s34.667 -43.166 47 -71.499s18.5 -60.833 18.5 -97.5c0 -24 -3.16699 -49.667 -9.5 -77s-15.833 -52.5 -28.5 -75.5s-28 -42.167 -46 -57.5s-38.667 -23 -62 -23c-15.333 0 -28 4.16699 -38 12.5s-18 19 -24 32s-10.167 27.333 -12.5 43s-3.5 31.167 -3.5 46.5v17.5
c0 4.33301 0.666992 9.16602 2 14.499c-9.33301 -11.333 -20.166 -21.833 -32.499 -31.5s-24.5 -14.5 -36.5 -14.5c-13.333 0 -22.5 5.33301 -27.5 16s-7.5 21.667 -7.5 33c0 10.667 2.33301 24.667 7 42s11.667 34.5 21 51.5s20.833 31.667 34.5 44
s29.834 18.5 48.501 18.5c14.667 0 28.334 -4.66699 41.001 -14s20.667 -21 24 -35v-4z" />
    <glyph glyph-name="A" unicode="A" horiz-adv-x="557" 
d="M101 12c16 8 30.333 20.998 43 38.998s24 39.333 34 64s19.167 51.334 27.5 80.001s16.166 58 23.499 88c8.66699 34.667 18.667 70.667 30 108s24.5 73.5 39.5 108.5s32.5 67.5 52.5 97.5s43.333 55 70 75c8.66699 6 17.334 9 26.001 9c22.667 0 38.834 -14 48.501 -42
s14.5 -64 14.5 -108c0 -18 -0.666992 -37.167 -2 -57.5s-3 -41.5 -5 -63.5s-4.33301 -44.167 -7 -66.5l-8 -64.5l-3 -24c-1.33301 -11.333 -3 -24.666 -5 -39.999s-3.83301 -31 -5.5 -47s-3.16699 -31.5 -4.5 -46.5s-2 -28.167 -2 -39.5c0 -18 1.33301 -27 4 -27
c4 0 12.833 17.667 26.5 53s31.167 85.666 52.5 150.999c1.33301 5.33301 4.66602 8 9.99902 8c7.33301 0 11 -5 11 -15c-13.333 -42.667 -25.5 -79.5 -36.5 -110.5s-21.5 -56.667 -31.5 -77s-19.833 -35.333 -29.5 -45s-19.5 -14.5 -29.5 -14.5
c-14 0 -23.833 7.83301 -29.5 23.5s-8.5 36.834 -8.5 63.501c0 15.333 0.666992 32.5 2 51.5s3.16602 39.167 5.49902 60.5s5 43 8 65l8.5 65l2 16c-21.333 0 -42 0.166992 -62 0.5s-40.333 0.5 -61 0.5l-22 -78l-30 -103.5c-10 -33 -21 -62 -33 -87
s-25.667 -44.833 -41 -59.5s-33.666 -22 -54.999 -22c-10 0 -19.333 1.66699 -28 5v6zM452 636.998l-4 -3.99805c0 1.33301 -0.166992 2.16602 -0.5 2.49902s-0.5 1.16602 -0.5 2.49902zM453 572c0 11.333 -0.332031 22.334 -0.999023 33.001s-2 20 -4 28
c-16 -15.333 -30.333 -32.833 -43 -52.5s-24.334 -40.667 -35.001 -63s-20.334 -45.833 -29.001 -70.5s-16.667 -49.334 -24 -74.001c20 0 39.833 -0.166992 59.5 -0.5s39.834 -0.5 60.501 -0.5c3.33301 28 6.83301 60.5 10.5 97.5s5.5 71.167 5.5 102.5z" />
    <glyph glyph-name="B" unicode="B" horiz-adv-x="659" 
d="M156 9l21.0029 37.001l15.5 28.5c4.33301 8.33301 8.16602 16.333 11.499 24s6.33301 15.834 9 24.501c6 20.667 11.333 42.334 16 65.001s8.5 44.667 11.5 66s5.5 41.166 7.5 59.499l5 45.5c0 4 0.333008 8.16699 1 12.5s1 8.5 1 12.5
c1.33301 13.333 2.66602 28.666 3.99902 45.999s2 35.666 2 54.999c0 21.333 -1.33301 42 -4 62s-7.5 37.667 -14.5 53s-16.167 27.666 -27.5 36.999s-25.333 14 -42 14c-12 0 -23.667 -3.33301 -35 -10s-21.666 -15.667 -30.999 -27s-16.833 -24.666 -22.5 -39.999
s-8.5 -32 -8.5 -50c0 -30.667 10.167 -60.334 30.5 -89.001s49.5 -50 87.5 -64c5.33301 -2.66699 8 -6 8 -10s-1.5 -6.83301 -4.5 -8.5s-6.16699 -2.5 -9.5 -2.5c-22.667 7.33301 -42.5 17.333 -59.5 30s-31 26.834 -42 42.501s-19.167 32.334 -24.5 50.001
s-8 35.167 -8 52.5c0 20 3.33301 39.5 10 58.5s16.334 35.667 29.001 50s28.334 25.833 47.001 34.5s40 13 64 13c16.667 0 31.834 -3.5 45.501 -10.5s25.167 -15.833 34.5 -26.5c19.333 14.667 39.333 25.334 60 32.001s41.667 10 63 10c20 0 39.333 -3 58 -9
s35 -14.667 49 -26s25.333 -25.5 34 -42.5s13 -36.5 13 -58.5c0 -16.667 -2.66699 -34.334 -8 -53.001s-14 -36.5 -26 -53.5s-27.833 -32.667 -47.5 -47s-43.834 -25.5 -72.501 -33.5c22 -4.66699 43.5 -11.334 64.5 -20.001s39.5 -19.667 55.5 -33s29 -29.166 39 -47.499
s15 -39.5 15 -63.5c0 -25.333 -5.5 -50 -16.5 -74s-25.833 -45.167 -44.5 -63.5s-39.834 -33 -63.501 -44s-48.167 -16.5 -73.5 -16.5c-9.33301 0 -18.833 1.5 -28.5 4.5s-18.5 7.66699 -26.5 14s-14.5 14.5 -19.5 24.5s-7.5 22 -7.5 36c0 17.333 4.33301 35.5 13 54.5
s21.334 36.333 38.001 52s36.667 28.667 60 39s50 15.5 80 15.5c2.66699 0 5.16699 -1.16699 7.5 -3.5s3.5 -4.83301 3.5 -7.5c0 -3.33301 -1.16699 -6 -3.5 -8s-4.83301 -3 -7.5 -3c-26 0 -49.5 -4.5 -70.5 -13.5s-38.833 -20.167 -53.5 -33.5s-26 -28.333 -34 -45
s-12 -32.334 -12 -47.001c0 -18 4.83301 -31.333 14.5 -40s20.5 -13 32.5 -13c15.333 0 31.833 5.16699 49.5 15.5s34.167 23.833 49.5 40.5s28 35.5 38 56.5s15 42.5 15 64.5c0 16.667 -3.5 33 -10.5 49s-18.5 30.5 -34.5 43.5s-37.333 24.167 -64 33.5
s-59.334 15.666 -98.001 18.999c-1.33301 -14 -3.33301 -32.167 -6 -54.5s-6.16699 -46.5 -10.5 -72.5s-9.83301 -52 -16.5 -78s-14.834 -49.667 -24.501 -71s-20.834 -38.666 -33.501 -51.999s-27.334 -20 -44.001 -20c-8 0 -15 1 -21 3zM294.003 629.001
c0 -0.666992 0.333008 -1.33301 1 -2l-2 -1zM388.003 658.002c-15.333 0 -31.167 -2.66992 -47.5 -8.00293s-31.5 -13 -45.5 -23c10.667 -19.333 17.834 -41.833 21.501 -67.5s5.5 -51.834 5.5 -78.501c0 -15.333 -0.333008 -30.333 -1 -45s-1.66699 -28.334 -3 -41.001
c-0.666992 -3.33301 -1.16699 -6.66602 -1.5 -9.99902s-0.5 -6.66602 -0.5 -9.99902c34 4 62.667 12.333 86 25s42.166 27.334 56.499 44.001s24.666 34.334 30.999 53.001s9.5 36.334 9.5 53.001c0 18 -3 33.667 -9 47s-14.167 24.5 -24.5 33.5
s-22.166 15.833 -35.499 20.5s-27.333 7 -42 7z" />
    <glyph glyph-name="C" unicode="C" horiz-adv-x="351" 
d="M168 329l-1.99902 -1.00098h-1c-7.33301 0 -11 3.66699 -11 11c0 4.66699 2 8 6 10c21.333 14 42.666 32.5 63.999 55.5s40.5 47.333 57.5 73s30.833 50.834 41.5 75.501s16 45.667 16 63c0 13.333 -3.66699 23.166 -11 29.499s-14.666 9.5 -21.999 9.5
s-15 -2.5 -23 -7.5s-15.833 -11.167 -23.5 -18.5s-14.5 -15 -20.5 -23l-15 -20c-11.333 -16 -22.833 -40.167 -34.5 -72.5s-22.334 -68 -32.001 -107s-17.667 -79.5 -24 -121.5s-9.5 -80.333 -9.5 -115c0 -37.333 4.33301 -68.166 13 -92.499s22.667 -36.5 42 -36.5
c12 0 25.167 6.5 39.5 19.5s28.833 29.667 43.5 50s29.167 43.333 43.5 69s27.5 51.5 39.5 77.5c4 6 7.66699 9 11 9c2.66699 0 5.16699 -1.16699 7.5 -3.5s3.5 -5.16602 3.5 -8.49902c0 -0.666992 -0.166992 -1.33398 -0.5 -2.00098s-0.5 -1.33398 -0.5 -2.00098
c-8.66699 -18.667 -20.5 -42.167 -35.5 -70.5s-31.667 -55.666 -50 -81.999s-38 -49 -59 -68s-41.5 -28.5 -61.5 -28.5c-17.333 0 -32.333 4.5 -45 13.5s-23.167 21.833 -31.5 38.5s-14.5 36.334 -18.5 59.001s-6 47.667 -6 75c0 30.667 2.16699 64.167 6.5 100.5
s10.833 72.833 19.5 109.5s19.5 72.167 32.5 106.5s28.167 64.666 45.5 90.999s37 47.333 59 63s46 23.5 72 23.5c25.333 0 43.333 -6 54 -18s16 -27.667 16 -47c0 -22.667 -6.16699 -48.5 -18.5 -77.5s-28 -57.5 -47 -85.5s-40 -53.167 -63 -75.5s-45.5 -38.5 -67.5 -48.5z
" />
    <glyph glyph-name="D" unicode="D" horiz-adv-x="610" 
d="M465 219c-1.33301 0 -2.16797 -0.166992 -2.50098 -0.5s-1.16602 -0.5 -2.49902 -0.5l2 5zM321.998 39c8.66699 0 18.667 3.33008 30 9.99707s23.166 17.167 35.499 31.5s24.833 32.833 37.5 55.5s24.334 50 35.001 82c-26 -1.33301 -49.333 -7.16602 -70 -17.499
s-38 -22.666 -52 -36.999s-24.833 -29.666 -32.5 -45.999s-11.5 -31.5 -11.5 -45.5c0 -10 2.5 -18 7.5 -24s11.833 -9 20.5 -9zM151.998 7.99707c8.66699 12.667 16.6631 26.5 23.9961 41.5s13.5 29.667 18.5 44s9.16699 27.666 12.5 39.999s5.66602 21.833 6.99902 28.5
c5.33301 22 10.333 45.667 15 71s8.5 51.166 11.5 77.499s5.33301 52.333 7 78s2.5 50.167 2.5 73.5c0 35.333 -1.66699 65.166 -5 89.499s-8.5 44 -15.5 59s-15.5 25.833 -25.5 32.5s-21.667 10 -35 10s-26.166 -3.5 -38.499 -10.5s-23.166 -16.5 -32.499 -28.5
s-16.833 -25.667 -22.5 -41s-8.5 -31.333 -8.5 -48c0 -31.333 9.5 -61.333 28.5 -90s49.167 -50 90.5 -64c4.66699 -1.33301 7 -4.66602 7 -9.99902c0 -7.33301 -4.66699 -11 -14 -11c-21.333 6.66699 -40.166 15.834 -56.499 27.501s-30.333 25.167 -42 40.5
s-20.5 32.166 -26.5 50.499s-9 37.166 -9 56.499c0 24 4.33301 45.833 13 65.5s19.834 36.5 33.501 50.5s28.834 24.667 45.501 32s32.667 11 48 11c28 0 53.833 -10.5 77.5 -31.5s39.167 -53.5 46.5 -97.5c14 22.667 28.667 42 44 58s30.333 29 45 39s28 17.333 40 22
s21.667 7 29 7c19.333 0 35.333 -5.33301 48 -16s22.667 -25 30 -43s12.5 -38.5 15.5 -61.5s4.5 -46.5 4.5 -70.5c0 -38 -2.5 -76.5 -7.5 -115.5s-12.167 -76.5 -21.5 -112.5s-20.666 -70 -33.999 -102s-28.166 -59.667 -44.499 -83s-34 -41.833 -53 -55.5
s-38.833 -20.5 -59.5 -20.5c-24.667 0 -42.834 6.83301 -54.501 20.5s-17.5 30.167 -17.5 49.5c0 17.333 4.33301 35.833 13 55.5s21.334 37.834 38.001 54.501s37 30.667 61 42s51.667 17.333 83 18c2.66699 9.33301 6 23.833 10 43.5s7.66699 42 11 67
s6.33301 51.5 9 79.5s4 55 4 81c0 18.667 -0.833008 36.5 -2.5 53.5s-4.5 31.833 -8.5 44.5s-9.33301 22.667 -16 30s-15 11 -25 11c-7.33301 0 -16.5 -2.83301 -27.5 -8.5s-22.667 -14.167 -35 -25.5s-25.166 -25.333 -38.499 -42s-25.333 -36.334 -36 -59.001v-12
c0 -2.66699 0.166992 -5.5 0.5 -8.5s0.5 -6.16699 0.5 -9.5c0 -23.333 -1 -51.666 -3 -84.999s-5.33301 -67.833 -10 -103.5s-10.834 -71.167 -18.501 -106.5s-16.834 -67.166 -27.501 -95.499s-23 -51.166 -37 -68.499s-30 -26 -48 -26
c-3.33301 0 -6.33301 0.166992 -9 0.5s-5.33398 0.833008 -8.00098 1.5z" />
    <glyph glyph-name="E" unicode="E" horiz-adv-x="438" 
d="M432 259c1.33301 5.33301 4.66406 8 9.99707 8c4 0 7 -1.33301 9 -4s3 -5.66699 3 -9c-7.33301 -37.333 -18.333 -71.5 -33 -102.5s-32.5 -57.5 -53.5 -79.5s-44.5 -39 -70.5 -51s-53.667 -18 -83 -18c-29.333 0.666992 -54.666 5.83398 -75.999 15.501
s-39 22.334 -53 38.001s-24.333 33.667 -31 54s-10 41.166 -10 62.499c0 26.667 4.5 51.5 13.5 74.5s21.5 43.167 37.5 60.5s35.167 31.666 57.5 42.999s46.833 18.666 73.5 21.999c-8.66699 6.66699 -16.667 14.667 -24 24c-12 -5.33301 -22.333 -9 -31 -11
s-14.667 -3 -18 -3c-7.33301 0 -11 3.33301 -11 10c0 5.33301 2 8.66602 6 9.99902l40 13c-10.667 17.333 -18.5 35.5 -23.5 54.5s-7.5 38.167 -7.5 57.5c0 20 2.66699 39.167 8 57.5s13.5 34.833 24.5 49.5s24.833 26.334 41.5 35.001s36.334 13 59.001 13
c30 0 54.5 -8.33301 73.5 -25s28.5 -40.667 28.5 -72c0 -20 -4.16699 -38.333 -12.5 -55s-19.333 -32 -33 -46s-28.834 -26.667 -45.501 -38s-33.334 -21 -50.001 -29c7.33301 -6.66699 17 -14.334 29 -23.001s21.333 -15.667 28 -21v1c10 -5.33301 15 -9.66602 15 -12.999
c0 -6.66699 -4 -10 -12 -10h-5c-1.33301 0 -2.66602 0.166992 -3.99902 0.5s-2.66602 0.5 -3.99902 0.5c-16 0 -35.833 -2.66699 -59.5 -8s-46.167 -15.666 -67.5 -30.999s-37.833 -35.833 -49.5 -61.5s-17.5 -52.167 -17.5 -79.5c0 -22 3.83301 -42 11.5 -60
s17.5 -33.333 29.5 -46s25.667 -22.5 41 -29.5s30.666 -10.5 45.999 -10.5c24 0 46.833 6 68.5 18s41.334 28.5 59.001 49.5s32.834 45.667 45.501 74s21.667 58.5 27 90.5zM367.998 587c-0.666992 22.667 -6.99609 40.001 -18.9961 52.001s-26 18 -42 18
c-10.667 0 -21.334 -3.16699 -32.001 -9.5s-20.334 -15.333 -29.001 -27s-15.667 -25.334 -21 -41.001s-8 -32.834 -8 -51.501c0 -15.333 1.83301 -30.666 5.5 -45.999s9.16699 -30 16.5 -44c16 7.33301 31.667 15.833 47 25.5s29.166 20.667 41.499 33s22.166 26 29.499 41
s11 31.5 11 49.5z" />
    <glyph glyph-name="F" unicode="F" horiz-adv-x="370" 
d="M147 9c10 10 18.6748 21.6738 26.0078 35.0068s13.5 26.666 18.5 39.999s9.16699 25.666 12.5 36.999s5.66602 20 6.99902 26c4.66699 18.667 8.83398 38.334 12.501 59.001s7 40.5 10 59.5s5.33301 36.667 7 53s3.16699 29.833 4.5 40.5
c0 3.33301 0.333008 6.83301 1 10.5s1 7.16699 1 10.5c1.33301 15.333 2.66602 31.5 3.99902 48.5s2 34.833 2 53.5c0 6 -0.166992 14.667 -0.5 26s-1.16602 22.833 -2.49902 34.5s-3 21.834 -5 30.501s-4.33301 13 -7 13c-12 0 -23.167 -1 -33.5 -3s-19.5 -6 -27.5 -12
s-14.333 -14.167 -19 -24.5s-7 -23.833 -7 -40.5c0 -6.66699 -3.33301 -10 -10 -10c-2.66699 0 -5.33398 0.833008 -8.00098 2.5s-4 4.5 -4 8.5c0 20 2.83301 36.5 8.5 49.5s13.167 23.333 22.5 31s20.166 13 32.499 16s25.833 4.5 40.5 4.5
c-6.66699 15.333 -15.834 26.666 -27.501 33.999s-23.167 11 -34.5 11c-12.667 0 -25.167 -3.16699 -37.5 -9.5s-23.333 -15.333 -33 -27s-17.5 -25.334 -23.5 -41.001s-9 -32.5 -9 -50.5c0 -30 9.83301 -59.667 29.5 -89s49.167 -51 88.5 -65c5.33301 -2.66699 8 -6 8 -10
s-1.5 -6.83301 -4.5 -8.5s-6.16699 -2.5 -9.5 -2.5c-21.333 6.66699 -40.333 15.834 -57 27.501s-30.667 25.167 -42 40.5s-20 32.166 -26 50.499s-9 37.166 -9 56.499c0 21.333 3.5 41.5 10.5 60.5s17 35.5 30 49.5s28.5 25.167 46.5 33.5s38.333 12.5 61 12.5
c49.333 0 84 -26 104 -78c1.33301 -0.666992 3.33301 -1.16699 6 -1.5s4.66699 -0.5 6 -0.5c11.333 -1.33301 22.666 -2.5 33.999 -3.5s22.666 -1.5 33.999 -1.5c28.667 0 54.5 5.16699 77.5 15.5s39.833 31.166 50.5 62.499c1.33301 4.66699 4.66602 7 9.99902 7
c7.33301 0 11 -4.66699 11 -14c-6.66699 -19.333 -15 -34.833 -25 -46.5s-21.333 -21 -34 -28s-26.334 -11.667 -41.001 -14s-29.667 -3.5 -45 -3.5c-12.667 0 -25.5 0.5 -38.5 1.5s-25.5 2.16699 -37.5 3.5c3.33301 -14.667 5.5 -29.667 6.5 -45s1.5 -31 1.5 -47
c0 -3.33301 -0.166992 -6.83301 -0.5 -10.5s-0.5 -7.16699 -0.5 -10.5v-18c14.667 -2 30 -3 46 -3c15.333 0 28.833 2.16699 40.5 6.5s21.167 13.166 28.5 26.499c1.33301 4 4.33301 6 9 6c3.33301 0 6 -1.16699 8 -3.5s3 -4.5 3 -6.5s-0.333008 -3.66699 -1 -5
c-9.33301 -18.667 -21.5 -30.834 -36.5 -36.501s-31.5 -8.5 -49.5 -8.5c-17.333 0 -33.333 1 -48 3l-7 -70c-1.33301 -13.333 -3.33301 -31.333 -6 -54s-6.16699 -47.334 -10.5 -74.001s-9.83301 -53.5 -16.5 -80.5s-14.667 -51.5 -24 -73.5s-20.5 -40 -33.5 -54
s-27.833 -21 -44.5 -21c-8.66699 0 -16.334 1 -23.001 3z" />
    <glyph glyph-name="G" unicode="G" horiz-adv-x="424" 
d="M207 -92c10 14 18.833 30.667 26.5 50s14.334 38.5 20.001 57.5s10.334 36.333 14.001 52s6.16699 26.834 7.5 33.501c2.66699 16 6 34.833 10 56.5l12.5 68.5l12.5 72l11 66c-8 -18 -17.5 -37.333 -28.5 -58s-23.5 -40 -37.5 -58s-29.667 -32.833 -47 -44.5
s-36.333 -17.5 -57 -17.5c-17.333 0 -32.166 3.83301 -44.499 11.5s-22.333 18 -30 31s-13.334 28.333 -17.001 46s-5.5 36.5 -5.5 56.5c0 36 5.33301 74.5 16 115.5s25.667 79 45 114s42.333 64 69 87s55.667 34.5 87 34.5c24.667 0 42.834 -8.5 54.501 -25.5
s17.5 -37.833 17.5 -62.5c0 -21.333 -4.16699 -43.333 -12.5 -66s-20.166 -43.667 -35.499 -63c-2.66699 -2.66699 -5.33398 -4 -8.00098 -4c-6.66699 0 -10 3.66699 -10 11c0 2.66699 1 5 3 7c12 15.333 21.833 33.5 29.5 54.5s11.5 41.5 11.5 61.5
c0 21.333 -3.66699 36.666 -11 45.999s-15.333 14 -24 14c-8 0 -16.333 -2.5 -25 -7.5s-17.167 -11.167 -25.5 -18.5s-16.166 -14.833 -23.499 -22.5s-13 -14.5 -17 -20.5c-12.667 -18 -23.834 -37.833 -33.501 -59.5s-17.834 -43.667 -24.501 -66s-11.667 -44.5 -15 -66.5
s-5 -42.333 -5 -61c0 -34 4.5 -62.333 13.5 -85s21.833 -34 38.5 -34c14 0 28.833 8.5 44.5 25.5s31 37.667 46 62s29 50.5 42 78.5s23.833 53 32.5 75c0 0.666992 0.166992 2 0.5 4s0.833008 3.66699 1.5 5c0.666992 4.66699 1.66699 9 3 13s4.66602 6 9.99902 6h49
c2 0 3 -1 3 -3c-4 -28.667 -8.83301 -60.167 -14.5 -94.5l-17.5 -103.5l-18 -100.5l-16 -85.5c-3.33301 -16 -7.83301 -35.167 -13.5 -57.5s-13 -43.5 -22 -63.5s-19.833 -37.167 -32.5 -51.5s-27.667 -21.5 -45 -21.5c-6.66699 0 -11.334 0.333008 -14.001 1z" />
    <glyph glyph-name="H" unicode="H" horiz-adv-x="625" 
d="M147 7c9.33301 12 17.6729 25.4971 25.0059 40.4971s13.666 29.667 18.999 44s9.66602 27.666 12.999 39.999s5.66602 21.5 6.99902 27.5c4.66699 18.667 8.66699 37.834 12 57.501s6.33301 38.334 9 56.001s4.66699 34 6 49s2.66602 27.5 3.99902 37.5l4.5 59.5
c1.66699 21.667 2.5 43.834 2.5 66.501c0 20.667 -1.16699 41 -3.5 61s-6.66602 38 -12.999 54s-14.833 28.833 -25.5 38.5s-24.334 14.5 -41.001 14.5c-14.667 0 -28.167 -3.83301 -40.5 -11.5s-23 -17.5 -32 -29.5s-16 -25.667 -21 -41s-7.5 -30.666 -7.5 -45.999
c0 -32 9.33301 -62.333 28 -91s48.667 -49.667 90 -63c5.33301 -2.66699 8 -6 8 -10c0 -3.33301 -1.5 -6 -4.5 -8s-6.5 -3 -10.5 -3c-22.667 7.33301 -42.334 17.166 -59.001 29.499s-30.5 26.333 -41.5 42s-19.167 32.334 -24.5 50.001s-8 35.5 -8 53.5
c0 20 3.5 39.5 10.5 58.5s17 35.667 30 50s28.5 25.833 46.5 34.5s38.333 13 61 13c24.667 0 44.667 -5.83301 60 -17.5s27.5 -26.834 36.5 -45.501s15.167 -39.834 18.5 -63.501s5 -47.5 5 -71.5c0 -16.667 -0.5 -32.667 -1.5 -48s-2.16699 -29.333 -3.5 -42
c0 -4 -0.333008 -7.5 -1 -10.5s-1 -6.5 -1 -10.5h156c3.33301 50 7 99.833 11 149.5s7.66699 99.5 11 149.5c1.33301 6 5 9 11 9h49c2 0 3 -1 3 -3l-35 -445c-1.33301 -17.333 -2.5 -34.833 -3.5 -52.5s-1.5 -34.834 -1.5 -51.501c0 -32 1.83301 -54.667 5.5 -68
s8.16699 -20 13.5 -20c7.33301 0 16 8.66699 26 26s19.5 37.833 28.5 61.5s17.167 47.667 24.5 72s12.333 43.833 15 58.5c1.33301 2 3 4 5 6s4 3 6 3c3.33301 0 6 -1.5 8 -4.5s3 -6.16699 3 -9.5l-10.5 -39c-4.33301 -16 -9.5 -33.333 -15.5 -52s-12.833 -37.5 -20.5 -56.5
s-16 -36.333 -25 -52s-18.833 -28.334 -29.5 -38.001s-21.667 -14.5 -33 -14.5c-12 0 -22 3.33301 -30 10s-14.333 15.834 -19 27.501s-7.83398 25.334 -9.50098 41.001s-2.5 32.5 -2.5 50.5c0 16 0.5 32.833 1.5 50.5s2.16699 35.167 3.5 52.5l9 117h-156
c-1.33301 -14 -3.33301 -32.333 -6 -55s-6.16699 -47 -10.5 -73s-10 -52.167 -17 -78.5s-15.5 -50.166 -25.5 -71.499s-21.833 -38.666 -35.5 -51.999s-29.167 -20 -46.5 -20c-4 0 -8.66699 0.666992 -14 2z" />
    <glyph glyph-name="I" unicode="I" horiz-adv-x="340" 
d="M129 7c9.33301 10.667 18.1729 26.333 26.5059 47s15.666 43.167 21.999 67.5s12 49.5 17 75.5s9.16699 50.333 12.5 73s6 42 8 58s3 26.333 3 31c0 3.33301 0.166992 7 0.5 11s0.833008 8.33301 1.5 13c1.33301 13.333 2.66602 28.5 3.99902 45.5s2 35.167 2 54.5
c0 20 -1.16699 40 -3.5 60s-6.5 38 -12.5 54s-14.333 29.167 -25 39.5s-24.334 15.5 -41.001 15.5c-14 0 -27.167 -3.5 -39.5 -10.5s-23.333 -16.333 -33 -28s-17.334 -25.167 -23.001 -40.5s-8.5 -31.333 -8.5 -48c0 -31.333 9.5 -61.333 28.5 -90s49.167 -50 90.5 -64
c4.66699 -1.33301 7 -4.66602 7 -9.99902c0 -4 -1.5 -6.83301 -4.5 -8.5s-6.16699 -2.5 -9.5 -2.5c-22.667 7.33301 -42.5 17.166 -59.5 29.499s-31 26.333 -42 42s-19.167 32.334 -24.5 50.001s-8 35.5 -8 53.5c0 20 3.33301 39.5 10 58.5s16.5 35.667 29.5 50
s28.833 25.833 47.5 34.5s40 13 64 13s43.667 -5.83301 59 -17.5s27.333 -27 36 -46s14.667 -40.167 18 -63.5s5 -47 5 -71c0 -23.333 -1 -45.333 -3 -66s-3.66699 -38.667 -5 -54v-5l-5.5 -54c-2.33301 -22.667 -5.83301 -47.334 -10.5 -74.001
s-10.334 -53.5 -17.001 -80.5s-14.834 -51.5 -24.501 -73.5s-21 -40 -34 -54s-27.833 -21 -44.5 -21c-6 0 -10.333 0.333008 -13 1z" />
    <glyph glyph-name="J" unicode="J" horiz-adv-x="294" 
d="M104 7c9.33301 15.333 17.667 31.5068 25 48.5068s13.666 33.167 18.999 48.5s9.5 29.166 12.5 41.499s5.16699 21.5 6.5 27.5c5.33301 23.333 10.166 48.166 14.499 74.499s8 52.666 11 78.999s5.16699 52.333 6.5 78s2 49.5 2 71.5c0 56.667 -6 100 -18 130
s-30.333 45 -55 45c-8 0 -16.167 -2.83301 -24.5 -8.5s-16 -13.334 -23 -23.001s-12.833 -21.167 -17.5 -34.5s-7 -27.666 -7 -42.999c0 -19.333 5.16699 -34.333 15.5 -45s21.833 -16 34.5 -16c10.667 0 19.334 4 26.001 12s10 18 10 30c0 9.33301 -3 18 -9 26
s-15.667 12.333 -29 13c-7.33301 0 -11 3.66699 -11 11c0 6.66699 3.66699 10 11 10c20.667 -0.666992 35.834 -7.16699 45.501 -19.5s14.5 -25.833 14.5 -40.5c0 -15.333 -4.83301 -29.833 -14.5 -43.5s-23.5 -20.5 -41.5 -20.5c-12.667 0 -23.667 2.33301 -33 7
s-17 11 -23 19s-10.5 17.167 -13.5 27.5s-4.5 20.833 -4.5 31.5c0 15.333 2.66699 31.166 8 47.499s12.833 31.166 22.5 44.499s21.334 24.166 35.001 32.499s28.834 12.5 45.501 12.5c24.667 0 44.667 -5.66699 60 -17s27.333 -26.333 36 -45s14.5 -39.667 17.5 -63
s4.5 -47 4.5 -71c0 -20 -0.833008 -40.167 -2.5 -60.5l-4.5 -54.5c0 -1.33301 -0.166992 -3.33301 -0.5 -6s-0.5 -4.66699 -0.5 -6l-5.5 -54c-2.33301 -22.667 -5.66602 -47.334 -9.99902 -74.001s-9.83301 -53.5 -16.5 -80.5s-14.834 -51.5 -24.501 -73.5
s-20.834 -40 -33.501 -54s-27.334 -21 -44.001 -21c-7.33301 0 -12.333 0.333008 -15 1z" />
    <glyph glyph-name="K" unicode="K" horiz-adv-x="534" 
d="M143 8c10 12.667 18.6709 27.167 26.0039 43.5s13.666 32.333 18.999 48s9.5 29.667 12.5 42s5.16699 21.5 6.5 27.5c4 16.667 8 37.167 12 61.5s7.66699 50.166 11 77.499s6.16602 55.5 8.49902 84.5s3.5 56.833 3.5 83.5c0 56 -6.33301 99.167 -19 129.5
s-35 45.5 -67 45.5c-12 0 -23.833 -3.16699 -35.5 -9.5s-22 -15 -31 -26s-16.167 -24.167 -21.5 -39.5s-8 -31.666 -8 -48.999s2.66699 -34 8 -50s13 -31 23 -45s22.333 -26.167 37 -36.5s31 -18.5 49 -24.5c4.66699 -1.33301 7 -4.66602 7 -9.99902
c0 -7.33301 -4.66699 -11 -14 -11c-20 6.66699 -38.333 16.167 -55 28.5s-31 26.166 -43 41.499s-21.167 32.166 -27.5 50.499s-9.5 36.833 -9.5 55.5c0 19.333 3.66699 38.333 11 57s17.833 35.334 31.5 50.001s29.667 26.5 48 35.5s38.5 13.5 60.5 13.5
c24.667 0 44.834 -5.83301 60.501 -17.5s27.667 -26.667 36 -45s14.166 -39.333 17.499 -63s5 -47.5 5 -71.5c33.333 44.667 71.5 81.5 114.5 110.5s91.833 43.5 146.5 43.5h3c5.33301 0 10.5 -0.333008 15.5 -1s7.5 -4 7.5 -10c0 -7.33301 -3.66699 -11 -11 -11h-7
c-25.333 0 -51.333 -7.16699 -78 -21.5s-52.167 -33.333 -76.5 -57s-46.666 -50.334 -66.999 -80.001s-36.5 -59.834 -48.5 -90.501c20.667 -5.33301 38.167 -14.666 52.5 -27.999s26.666 -29 36.999 -47s19 -37.5 26 -58.5s13.5 -41.5 19.5 -61.5
c4.66699 -18 9.66699 -35.5 15 -52.5s11.5 -32 18.5 -45s15.333 -23.333 25 -31s21.5 -11.5 35.5 -11.5c2.66699 0 6 0.666992 10 2c2 0.666992 4.66699 1 8 1c2 0 4 -1.16699 6 -3.5s3 -4.83301 3 -7.5c0 -4 -2.83301 -7.33301 -8.5 -10s-12 -4.83398 -19 -6.50098
s-13.667 -3 -20 -4s-10.5 -1.5 -12.5 -1.5c-19.333 0 -36.333 6 -51 18s-27.5 27.333 -38.5 46s-20.833 39.5 -29.5 62.5s-16.667 45.833 -24 68.5c-9.33301 28.667 -19 55.5 -29 80.5s-21.333 41.5 -34 49.5c-1.33301 -14 -3.33301 -31.667 -6 -53
s-6.33398 -44.166 -11.001 -68.499s-10.334 -48.666 -17.001 -72.999s-14.667 -46.333 -24 -66s-20.166 -35.667 -32.499 -48s-26.5 -18.5 -42.5 -18.5c-3.33301 0 -6.33301 0.166992 -9 0.5s-5.33398 0.833008 -8.00098 1.5z" />
    <glyph glyph-name="L" unicode="L" horiz-adv-x="445" 
d="M173 671c18.667 -4 33.8291 -12.3389 45.4961 -25.0059s20.834 -28 27.501 -46s11.334 -37.667 14.001 -59s4 -42.666 4 -63.999c0 -20 -0.833008 -39.833 -2.5 -59.5l-4.5 -52.5c0 -2 -0.166992 -4.5 -0.5 -7.5s-0.5 -5.16699 -0.5 -6.5c-2 -20 -4.33301 -42 -7 -66
s-6.16699 -48 -10.5 -72s-9.33301 -47.667 -15 -71s-12.167 -44.666 -19.5 -63.999h1l7 -2c18 -6.66699 36.5 -12.834 55.5 -18.501s37.167 -8.5 54.5 -8.5c22 0 43.167 6.16699 63.5 18.5s38.166 34.5 53.499 66.5c1.33301 4.66699 5 7 11 7c6.66699 0 10 -5.33301 10 -16
c-18.667 -37.333 -39.5 -63 -62.5 -77s-47.167 -21 -72.5 -21c-20 0 -41.167 3.5 -63.5 10.5s-43.166 13.833 -62.499 20.5c-2 0 -3.33301 0.333008 -4 1c-7.33301 -17.333 -17.666 -32.666 -30.999 -45.999s-29.666 -20 -48.999 -20c-16.667 0 -29.5 6.33301 -38.5 19
s-13.5 26 -13.5 40s4.33301 26 13 36s22.667 15 42 15l16 -2c5.33301 -0.666992 10.333 -1.66699 15 -3c10 29.333 18.5 60.833 25.5 94.5s12.5 67.334 16.5 101.001s6.83301 65.834 8.5 96.501s2.5 57.334 2.5 80.001c0 30.667 -2.5 61.834 -7.5 93.501
s-13.5 66.167 -25.5 103.5zM143.995 75.9941h-2v2zM101.995 24.9941c4 0 8.16406 2.16699 12.4971 6.5s8.5 9.5 12.5 15.5s7.5 11.833 10.5 17.5s4.5 9.5 4.5 11.5c-3.33301 1.33301 -6.66602 2.33301 -9.99902 3s-6.66602 1 -9.99902 1
c-9.33301 0 -17.666 -2.33301 -24.999 -7s-11 -12.667 -11 -24c0 -6 1.33301 -11.5 4 -16.5s6.66699 -7.5 12 -7.5z" />
    <glyph glyph-name="M" unicode="M" horiz-adv-x="837" 
d="M132 8c14 14 27.167 38.167 39.5 72.5s23 73.333 32 117s16 89.5 21 137.5s7.5 93 7.5 135c0 65.333 -6.33301 111.833 -19 139.5s-33 41.5 -61 41.5c-14 0 -27.167 -3.5 -39.5 -10.5s-23.333 -16.167 -33 -27.5s-17.167 -24.666 -22.5 -39.999s-8 -31.333 -8 -48
c0 -30.667 10 -60.5 30 -89.5s49.333 -50.5 88 -64.5l4.5 -4.5c1.66699 -1.66699 2.5 -3.5 2.5 -5.5c0 -7.33301 -4.33301 -11 -13 -11c-21.333 6.66699 -40.333 15.834 -57 27.501s-30.667 25.167 -42 40.5s-20 32.166 -26 50.499s-9 37.166 -9 56.499
c0 22.667 4 43.667 12 63s18.667 35.833 32 49.5s29.166 24.334 47.499 32.001s37.833 11.5 58.5 11.5c24.667 0 44.834 -5.5 60.501 -16.5s28 -25.833 37 -44.5s15.167 -39.834 18.5 -63.501s5 -48.167 5 -73.5c0 -26.667 -1.33301 -53.167 -4 -79.5
s-5.33398 -49.833 -8.00098 -70.5c-0.666992 -1.33301 -1 -2.66602 -1 -3.99902v-3c13.333 39.333 27.5 74.833 42.5 106.5s29.833 58.667 44.5 81s29 39.5 43 51.5s27 18 39 18c18 0 31.333 -8.83301 40 -26.5s13 -45.5 13 -83.5c0 -17.333 -0.833008 -37 -2.5 -59
s-4.16699 -45.667 -7.5 -71c8 23.333 17.167 47.833 27.5 73.5l32 76c11 25 22.5 49 34.5 72s24 43 36 60s24.167 30.667 36.5 41s24.166 15.5 35.499 15.5c22.667 0 38.167 -11.167 46.5 -33.5s12.5 -51.5 12.5 -87.5c0 -20.667 -1.16699 -43.334 -3.5 -68.001
s-5.33301 -50.334 -9 -77.001s-7.83398 -53.5 -12.501 -80.5l-14 -77.5l-18.5 -108c-5.66699 -34 -8.5 -60.667 -8.5 -80c0 -8.66699 0.666992 -15.667 2 -21s3.66602 -8 6.99902 -8c6.66699 0 16 8.33301 28 25s24.333 36.667 37 60s24.834 47.5 36.501 72.5
s20.5 45.5 26.5 61.5c2.66699 5.33301 6.33398 8 11.001 8c2.66699 0 5.16699 -1 7.5 -3s3.5 -5.66699 3.5 -11c-5.33301 -16 -13.833 -38 -25.5 -66s-25.167 -55.833 -40.5 -83.5s-31.833 -51.667 -49.5 -72s-35.167 -30.5 -52.5 -30.5c-11.333 0 -20.5 2.5 -27.5 7.5
s-12.333 11.333 -16 19s-6.16699 16.167 -7.5 25.5s-2 18 -2 26c0 28.667 2.83301 64.5 8.5 107.5s12.167 88.167 19.5 135.5c4 24.667 7.83301 49.5 11.5 74.5s7 49.167 10 72.5s5.33301 45.5 7 66.5s2.5 39.833 2.5 56.5c0 14 -0.833008 26.167 -2.5 36.5
s-5.16699 15.5 -10.5 15.5c-8 0 -17.5 -7.66699 -28.5 -23s-22.667 -35.166 -35 -59.499s-24.833 -51.666 -37.5 -81.999l-37 -92c-12 -31 -22.833 -60.5 -32.5 -88.5l-24.5 -71c-2.66699 -6.66699 -7.83398 -11.667 -15.501 -15s-15.167 -5 -22.5 -5
c-17.333 0 -26 5.33301 -26 16c2 10 4.33301 24.5 7 43.5s5.33398 40 8.00098 63s5 46.667 7 71s3 46.5 3 66.5c0 20.667 -1.16699 37.5 -3.5 50.5s-6.83301 19.5 -13.5 19.5c-8.66699 0 -20.167 -11.667 -34.5 -35s-29.666 -53.833 -45.999 -91.5
s-32.666 -80.334 -48.999 -128.001s-30.5 -95.834 -42.5 -144.501c-4 -14.667 -8.83301 -30.167 -14.5 -46.5s-12.667 -31.166 -21 -44.499s-18 -24.5 -29 -33.5s-23.167 -13.5 -36.5 -13.5c-3.33301 0 -6.33301 0.166992 -9 0.5s-5.66699 0.833008 -9 1.5z" />
    <glyph glyph-name="N" unicode="N" horiz-adv-x="676" 
d="M197 0c-3.33301 0 -4.33008 1.33594 -2.99707 4.00293c8.66699 16.667 16.167 33.334 22.5 50.001s11.833 32.5 16.5 47.5s8.66699 28.5 12 40.5s6 22 8 30l3 9c10.667 41.333 19.334 86.166 26.001 134.499s10 94.5 10 138.5c0 28.667 -2 55.834 -6 81.501
s-10.333 48.334 -19 68.001s-19.834 35.334 -33.501 47.001s-30.5 17.5 -50.5 17.5c-13.333 0 -26.833 -3.5 -40.5 -10.5s-26 -16.833 -37 -29.5s-20.167 -27.667 -27.5 -45s-11 -36 -11 -56c0 -16 2.33301 -32 7 -48s11.834 -31 21.501 -45s22 -26.5 37 -37.5
s32.5 -19.5 52.5 -25.5c5.33301 -2.66699 8 -6 8 -10c0 -7.33301 -5 -11 -15 -11c-23.333 7.33301 -43.333 17.166 -60 29.499s-30.5 26.166 -41.5 41.499s-19 31.666 -24 48.999s-7.5 35 -7.5 53c0 21.333 3.5 42 10.5 62s17 37.833 30 53.5s28.5 28.167 46.5 37.5
s38.333 14 61 14c31.333 0 57.166 -6 77.499 -18s36.5 -28 48.5 -48s20.5 -43.333 25.5 -70s7.5 -54.334 7.5 -83.001c0 -20.667 -0.833008 -42.167 -2.5 -64.5s-3.5 -43.833 -5.5 -64.5c12 34.667 25.833 72 41.5 112s32.5 76.667 50.5 110s36.5 61.166 55.5 83.499
s37.167 33.5 54.5 33.5c22.667 0 38.167 -11.167 46.5 -33.5s12.5 -51.5 12.5 -87.5c0 -20.667 -1.16699 -43.334 -3.5 -68.001s-5.33301 -50.334 -9 -77.001s-7.83398 -53.5 -12.501 -80.5l-14 -77.5l-18.5 -108c-5.66699 -34 -8.5 -60.667 -8.5 -80
c0 -8.66699 0.666992 -15.667 2 -21s3.66602 -8 6.99902 -8c7.33301 0 17 8.5 29 25.5s24 37.333 36 61s23.167 47.834 33.5 72.501s17.833 44.667 22.5 60c2.66699 5.33301 6.33398 8 11.001 8c3.33301 0 6.33301 -1 9 -3s4 -5.66699 4 -11
c-5.33301 -16 -13.5 -38 -24.5 -66s-24 -55.833 -39 -83.5s-31 -51.667 -48 -72s-34.167 -30.5 -51.5 -30.5c-11.333 0 -20.5 2.5 -27.5 7.5s-12.333 11.333 -16 19s-6.16699 16.167 -7.5 25.5s-2 18 -2 26c0 28.667 2.83301 64.5 8.5 107.5s12.167 88.167 19.5 135.5
c4 24.667 7.83301 49.5 11.5 74.5s7 49.167 10 72.5s5.33301 45.5 7 66.5s2.5 39.833 2.5 56.5c0 14 -0.833008 26.167 -2.5 36.5s-5.16699 15.5 -10.5 15.5c-8.66699 0 -18.834 -8.16699 -30.501 -24.5s-23.834 -37.5 -36.501 -63.5s-25.5 -55 -38.5 -87
s-25.167 -63.5 -36.5 -94.5l-31 -87l-22 -63.5l-7 -27c-4 -16 -9.16699 -35 -15.5 -57s-14 -43 -23 -63s-19.5 -37.333 -31.5 -52s-26 -23 -42 -25h-12z" />
    <glyph glyph-name="O" unicode="O" horiz-adv-x="434" 
d="M362 237c-13.333 -30 -28.332 -59.167 -44.999 -87.5s-34.334 -53.5 -53.001 -75.5s-38.167 -39.667 -58.5 -53s-41.5 -20 -63.5 -20c-18 0 -33.333 5 -46 15s-23.167 23.5 -31.5 40.5s-14.5 37 -18.5 60s-6 47.833 -6 74.5c0 39.333 4.33301 80.333 13 123
s21.167 82.667 37.5 120s36.333 70 60 98s50.5 47.333 80.5 58c9.33301 26.667 22.5 48.667 39.5 66s37.5 26 61.5 26c18.667 0 34 -5 46 -15s21.5 -23 28.5 -39s12 -33.667 15 -53s4.5 -38 4.5 -56c0 -23.333 -1.66699 -47.5 -5 -72.5s-7.83301 -49.667 -13.5 -74
s-12.5 -48 -20.5 -71s-16.333 -44.5 -25 -64.5zM293.001 596c4 0 6.99902 -1.16602 8.99902 -3.49902s3 -4.83301 3 -7.5c0 -3.33301 -2.66699 -6.16602 -8 -8.49902l-19 -8.5l-19.5 -7.5c-6.33301 -2.33301 -11.166 -4.83301 -14.499 -7.5
c-5.33301 -24.667 -8 -49.334 -8 -74.001c0 -25.333 2.33301 -50.833 7 -76.5s11.5 -49.167 20.5 -70.5s20 -39.833 33 -55.5s27.833 -26.167 44.5 -31.5c8.66699 20 16.834 41.5 24.501 64.5s14.5 46.5 20.5 70.5s10.667 48.167 14 72.5s5 47.833 5 70.5
c0 14 -1 29.167 -3 45.5s-5.66699 31.166 -11 44.499s-12.833 24.5 -22.5 33.5s-21.834 13.5 -36.501 13.5c-18 0 -33 -5.66699 -45 -17s-22 -27 -30 -47c3.33301 0.666992 6.33301 1 9 1h9h9.5c3 0 5.83301 -0.333008 8.5 -1zM224 538.001l-7 -6l2 8zM214 479.001
c0 18 1.00195 35.666 3.00195 52.999c-18.667 -18 -35.334 -41.167 -50.001 -69.5s-27 -58.666 -37 -90.999s-17.5 -65.5 -22.5 -99.5s-7.5 -66 -7.5 -96c0 -20.667 1.16699 -40 3.5 -58s6 -33.5 11 -46.5s11.5 -23.167 19.5 -30.5s17.333 -11 28 -11
c14.667 0 30.167 6.33301 46.5 19s32 28.5 47 47.5s29.167 40 42.5 63s24.666 44.5 33.999 64.5c-19.333 6 -36.333 17.5 -51 34.5s-27 37.167 -37 60.5s-17.5 48.833 -22.5 76.5s-7.5 55.5 -7.5 83.5z" />
    <glyph glyph-name="P" unicode="P" horiz-adv-x="397" 
d="M144 7c15.333 30 28 60.3291 38 90.9961s18.167 61.334 24.5 92.001s11.333 61.5 15 92.5s6.83398 61.833 9.50098 92.5l4.5 51.5c1.66699 19 2.5 39.167 2.5 60.5c0 52 -7.5 92.333 -22.5 121s-37.167 43 -66.5 43c-12 0 -23.833 -3.5 -35.5 -10.5
s-22 -16.167 -31 -27.5s-16.167 -24.666 -21.5 -39.999s-8 -31.333 -8 -48c0 -31.333 9.5 -61.333 28.5 -90s49.167 -49.667 90.5 -63c2 -0.666992 3.66699 -2.16699 5 -4.5s2 -4.5 2 -6.5c0 -3.33301 -1.5 -5.83301 -4.5 -7.5s-6.16699 -2.5 -9.5 -2.5
c-22.667 7.33301 -42.5 17.333 -59.5 30s-31 26.834 -42 42.501s-19.167 32.334 -24.5 50.001s-8 35.167 -8 52.5c0 20.667 3.33301 40.5 10 59.5s16.334 35.833 29.001 50.5s28.334 26.334 47.001 35.001s40 13 64 13c17.333 0 32.5 -3.5 45.5 -10.5
s23.833 -15.833 32.5 -26.5c18.667 13.333 38.167 22.666 58.5 27.999s38.166 8 53.499 8c22 0 41.667 -4 59 -12s32 -18.833 44 -32.5s21.167 -29.334 27.5 -47.001s9.5 -36.167 9.5 -55.5c0 -21.333 -4.33301 -42.833 -13 -64.5s-22 -41.334 -40 -59.001
s-40.833 -32.167 -68.5 -43.5s-60.5 -17.333 -98.5 -18c-1.33301 -14 -3.16602 -32.167 -5.49902 -54.5s-5.83301 -46.5 -10.5 -72.5s-10.334 -52.167 -17.001 -78.5s-14.834 -50.166 -24.501 -71.499s-20.834 -38.666 -33.501 -51.999s-27.334 -20 -44.001 -20h-5
c-1.33301 0 -2.16602 0.166992 -2.49902 0.5s-0.833008 0.5 -1.5 0.5zM290 375.996h3v-3zM299 482.996c0 -19.333 -0.667969 -38.1689 -2.00098 -56.502s-2.66602 -35.166 -3.99902 -50.499c48 7.33301 86.167 25.833 114.5 55.5s42.5 65.5 42.5 107.5
c0 36 -10 64.5 -30 85.5s-44.333 31.5 -73 31.5c-24.667 0 -50 -8.33301 -76 -25c11.333 -19.333 18.833 -42.166 22.5 -68.499s5.5 -52.833 5.5 -79.5z" />
    <glyph glyph-name="Q" unicode="Q" horiz-adv-x="472" 
d="M183 119c0 2.66699 0.831055 5.16895 2.49805 7.50195s4.5 3.5 8.5 3.5c5.33301 0 8.66602 -2.33301 9.99902 -7c3.33301 -9.33301 9.16602 -15.833 17.499 -19.5s18.5 -5.5 30.5 -5.5c6.66699 0 13.834 4.66699 21.501 14s15.334 20.5 23.001 33.5s15 26.833 22 41.5
s13.167 27 18.5 37c-19.333 6 -36.333 17.167 -51 33.5s-27 36.166 -37 59.499s-17.5 48.666 -22.5 75.999s-7.5 55 -7.5 83c0 19.333 1 37.666 3 54.999c-19.333 -18.667 -36.333 -41.667 -51 -69s-26.834 -56.333 -36.501 -87s-17 -62.167 -22 -94.5
s-7.5 -62.833 -7.5 -91.5c0 -22 1.33301 -42.667 4 -62s6.83398 -36.166 12.501 -50.499s12.5 -25.666 20.5 -33.999s17.333 -12.5 28 -12.5s22.667 4.66699 36 14s26.333 20.333 39 33c-15.333 0 -28.166 2.66699 -38.499 8s-18.166 15.666 -23.499 30.999v3z
M306.998 585.002c0 -7.33301 -2.33398 -11.001 -7.00098 -11.001c-9.33301 -2 -18.333 -4.83301 -27 -8.5s-16.667 -7.83398 -24 -12.501c-3.33301 -12.667 -5.5 -25.167 -6.5 -37.5s-1.5 -24.833 -1.5 -37.5c0 -25.333 2.33301 -50.666 7 -75.999
s11.334 -48.666 20.001 -69.999s19.5 -39.833 32.5 -55.5s27.833 -26.167 44.5 -31.5c8.66699 20 17 41.5 25 64.5s15 46.5 21 70.5s10.667 48.167 14 72.5s5 47.833 5 70.5c0 14 -1 29 -3 45s-5.66699 30.833 -11 44.5s-12.833 24.834 -22.5 33.501s-22.167 13 -37.5 13
c-18 0 -33 -5.83301 -45 -17.5s-21.667 -26.834 -29 -45.501c3.33301 0.666992 6.5 1 9.5 1h10.5c5.33301 0 10.833 -0.5 16.5 -1.5s8.5 -4.5 8.5 -10.5zM454.997 -7.99902c-1.33301 -6 -5.33301 -8.99902 -12 -8.99902s-10 3.66699 -10 11v13c0 16.667 -2 30.167 -6 40.5
s-9.33301 18.333 -16 24s-14.5 9.5 -23.5 11.5s-18.5 3 -28.5 3s-20.833 -0.5 -32.5 -1.5s-22.5 -2.16699 -32.5 -3.5l-21 -3c-18 -20.667 -38.333 -38.667 -61 -54s-44 -23 -64 -23c-28 0 -52.333 16.167 -73 48.5s-31 82.5 -31 150.5c0 38.667 4 78.667 12 120
s20 80.166 36 116.499s36 68.333 60 96s51.667 46.834 83 57.501c8.66699 24 21.334 45.167 38.001 63.5s38 27.5 64 27.5c18.667 0 34 -5 46 -15s21.5 -22.833 28.5 -38.5s11.833 -33 14.5 -52s4 -37.167 4 -54.5c0 -34 -3.66699 -70 -11 -108s-17.333 -75.833 -30 -113.5
s-27.334 -73.5 -44.001 -107.5s-34.334 -64 -53.001 -90h4c9.33301 1.33301 19.5 2.66602 30.5 3.99902s21.5 2 31.5 2c14 0 26.833 -1.33301 38.5 -4s21.834 -7.5 30.501 -14.5s15.5 -17.167 20.5 -30.5s7.5 -30.333 7.5 -51v-16z" />
    <glyph glyph-name="R" unicode="R" horiz-adv-x="537" 
d="M296 376h3v-3zM305 483c0 -19.333 -0.666992 -38.1689 -2 -56.502s-2.66602 -35.166 -3.99902 -50.499c28 4 51.667 11.167 71 21.5s35.166 22.5 47.499 36.5s21.333 29.167 27 45.5s8.5 32.833 8.5 49.5c0 16 -2.5 31.667 -7.5 47s-12 28.833 -21 40.5s-20 21 -33 28
s-27.167 10.5 -42.5 10.5c-23.333 0 -47.333 -8 -72 -24c11.333 -19.333 18.833 -42.166 22.5 -68.499s5.5 -52.833 5.5 -79.5zM144 8.99707c10.667 14 20.335 31.834 29.002 53.501s16.334 44.834 23.001 69.501s12.5 49.667 17.5 75s9.16699 48.833 12.5 70.5
s5.83301 40 7.5 55s2.5 24.833 2.5 29.5c2.66699 13.333 4.66699 31.333 6 54s2 45.667 2 69c0 22.667 -1.5 44.167 -4.5 64.5s-7.83301 38.166 -14.5 53.499s-15.334 27.666 -26.001 36.999s-23.334 14 -38.001 14c-14 0 -27.167 -3.66699 -39.5 -11
s-23.166 -17 -32.499 -29s-16.666 -25.833 -21.999 -41.5s-8 -31.5 -8 -47.5c0 -31.333 9.5 -61.333 28.5 -90s49.167 -49.667 90.5 -63c2 -0.666992 3.66699 -2.16699 5 -4.5s2 -4.5 2 -6.5c0 -3.33301 -1.5 -5.83301 -4.5 -7.5s-6.16699 -2.5 -9.5 -2.5
c-22.667 7.33301 -42.5 17.166 -59.5 29.499s-31 26.333 -42 42s-19.167 32.334 -24.5 50.001s-8 35.167 -8 52.5c0 20 3.33301 39.5 10 58.5s16.334 35.667 29.001 50s28.334 25.833 47.001 34.5s40 13 64 13c15.333 0 30 -3.33301 44 -10s25.333 -14.667 34 -24
c15.333 10.667 32.666 19 51.999 25s38.666 9 57.999 9c22 0 41.667 -3.83301 59 -11.5s32.166 -18 44.499 -31s21.833 -28.167 28.5 -45.5s10 -36 10 -56s-3.5 -39.833 -10.5 -59.5s-17.667 -37.834 -32 -54.501s-32.5 -31.167 -54.5 -43.5s-48.333 -20.833 -79 -25.5
c19.333 -8.66699 35.166 -20 47.499 -34s22.5 -29.833 30.5 -47.5s14.667 -36.167 20 -55.5s10.333 -38.333 15 -57c4 -16.667 8.16699 -32.334 12.5 -47.001s9.16602 -27.5 14.499 -38.5s11.833 -19.833 19.5 -26.5s17.167 -10 28.5 -10c4 0 7.33301 0.333008 10 1
c2 0.666992 3.83301 1.16699 5.5 1.5s3.83398 0.5 6.50098 0.5c4 0 7.16699 -1.5 9.5 -4.5s3.5 -6.16699 3.5 -9.5c0 -4 -2.66699 -7.66699 -8 -11s-11.333 -6.16602 -18 -8.49902s-13 -4 -19 -5s-10 -1.5 -12 -1.5c-16.667 0 -31.5 5.5 -44.5 16.5s-24.5 25.333 -34.5 43
s-19.167 37.5 -27.5 59.5s-16.166 44 -23.499 66l-18 52c-6 16.667 -12.333 31.834 -19 45.501s-13.667 24.834 -21 33.501s-15.333 14 -24 16c-1.33301 -14 -3.33301 -31.667 -6 -53s-6.33398 -44.333 -11.001 -69s-10.334 -49.334 -17.001 -74.001s-14.667 -47 -24 -67
s-20.166 -36.333 -32.499 -49s-26.5 -19 -42.5 -19c-3.33301 0 -6.33301 0.166992 -9 0.5s-5.33398 0.833008 -8.00098 1.5z" />
    <glyph glyph-name="S" unicode="S" horiz-adv-x="393" 
d="M134 440c-2 12 -3.00195 24.6709 -3.00195 38.0039c0 22.667 3.33301 46.167 10 70.5s16.667 46.333 30 66s29.833 35.834 49.5 48.501s42.5 19 68.5 19c21.333 0 38.833 -6.33301 52.5 -19s20.5 -30.667 20.5 -54c0 -16 -3.66699 -33 -11 -51s-17.333 -35.333 -30 -52
s-27.667 -31.834 -45 -45.501s-36 -24.5 -56 -32.5c-1.33301 -0.666992 -2.5 -0.333984 -3.5 0.999023s-0.833008 2.66602 0.5 3.99902c16.667 11.333 32.334 23.833 47.001 37.5s27.667 28.167 39 43.5s20.333 31.166 27 47.499s10 32.5 10 48.5
c0 15.333 -3.5 26.5 -10.5 33.5s-15.5 10.5 -25.5 10.5c-15.333 0 -29.833 -5.5 -43.5 -16.5s-25.667 -25.167 -36 -42.5s-18.5 -36.5 -24.5 -57.5s-9 -41.5 -9 -61.5c0 -20.667 2.5 -40 7.5 -58s11.333 -35 19 -51s16.334 -31.167 26.001 -45.5l28.5 -41.5
c16.667 -24 31.5 -47.5 44.5 -70.5s19.5 -46.833 19.5 -71.5c0 -17.333 -2.5 -34.333 -7.5 -51s-12.167 -31.334 -21.5 -44.001s-21.166 -22.667 -35.499 -30s-30.833 -11 -49.5 -11c-17.333 0 -32.333 3.83301 -45 11.5s-23.667 17.167 -33 28.5
c-1.33301 1.33301 -1.33301 2.66602 0 3.99902s2.66602 1.33301 3.99902 0c8.66699 -5.33301 17.167 -10 25.5 -14s16.833 -6 25.5 -6c8 0 16.667 2.66699 26 8s17.666 12.833 24.999 22.5s13.5 21.334 18.5 35.001s7.5 29.167 7.5 46.5c0 25.333 -6.16699 48.5 -18.5 69.5
s-26.166 42.167 -41.499 63.5c-17.333 22 -34 46.5 -50 73.5s-26.667 58.833 -32 95.5z" />
    <glyph glyph-name="T" unicode="T" horiz-adv-x="338" 
d="M122 2c-3.33301 0 -4.33301 1.33008 -3 3.99707c20 36 36.667 79.667 50 131s24.166 105.5 32.499 162.5s14.333 114.333 18 172s5.5 111.167 5.5 160.5v27c-17.333 -2 -35 -3.5 -53 -4.5s-35 -1.5 -51 -1.5c-10.667 0 -21.667 0.5 -33 1.5s-21.833 3 -31.5 6
s-17.5 6.83301 -23.5 11.5s-9 10.667 -9 18c0 2.66699 0.833008 5.16699 2.5 7.5s4.16699 3.5 7.5 3.5c4 0 8 -3 12 -9c3.33301 -7.33301 11.333 -12.166 24 -14.499s28.667 -3.5 48 -3.5c14.667 0 30.334 0.666992 47.001 2l51 4l53 4c17.333 1.33301 33.666 2 48.999 2
c33.333 0 60.833 -4.16699 82.5 -12.5s32.5 -24.833 32.5 -49.5c0 -7.33301 -3.66699 -11 -11 -11c-6.66699 0 -10 3.66699 -10 11c0 8 -2.66699 14.667 -8 20s-12.166 9.5 -20.499 12.5s-18 5 -29 6s-22.167 1.5 -33.5 1.5h-9
c-6.66699 0.666992 -12.5 0.833984 -17.5 0.500977s-7.5 -2.83301 -7.5 -7.5c0 -17.333 -0.833008 -45.166 -2.5 -83.499s-4.5 -81.5 -8.5 -129.5s-9.66699 -97.5 -17 -148.5s-16.833 -98 -28.5 -141s-25.667 -78.667 -42 -107s-35.833 -43.5 -58.5 -45.5h-8z" />
    <glyph glyph-name="U" unicode="U" horiz-adv-x="604" 
d="M597 259c1.33301 4.66699 4.66699 6.99805 10 6.99805c2.66699 0 5.16699 -1 7.5 -3s3.5 -5.66699 3.5 -11c-27.333 -87.333 -50.666 -150.333 -69.999 -189s-38.666 -58 -57.999 -58c-15.333 0 -26.166 10.833 -32.499 32.5s-9.5 50.167 -9.5 85.5
c0 26.667 1.16699 56.167 3.5 88.5s5.5 65.833 9.5 100.5c-14 -42.667 -29.5 -82.834 -46.5 -120.501s-35 -70.667 -54 -99s-38.333 -50.666 -58 -66.999s-38.834 -24.5 -57.501 -24.5c-16 0 -29.333 4.16699 -40 12.5s-19.167 19.333 -25.5 33s-10.666 29.5 -12.999 47.5
s-3.5 36.667 -3.5 56c0 25.333 1.33301 50.666 4 75.999s5.33398 47 8.00098 65c0 2.66699 0.333008 5.83398 1 9.50098s1 6.83398 1 9.50098l2 19c3.33301 29.333 6.33301 58.166 9 86.499s4 55.5 4 81.5c0 46 -6.16699 83.333 -18.5 112s-29.833 43 -52.5 43
c-9.33301 0 -18.5 -2.66699 -27.5 -8s-17 -12.666 -24 -21.999s-12.833 -20.666 -17.5 -33.999s-7 -28 -7 -44c0 -15.333 3.66699 -29.5 11 -42.5s20 -19.5 38 -19.5c11.333 0 19.833 4.33301 25.5 13s8.5 18.334 8.5 29.001c0 5.33301 -1.83301 11.333 -5.5 18
s-7.5 12.667 -11.5 18c-0.666992 0 -1 1 -1 3c0 0.666992 -0.333008 1.33398 -1 2.00098c0 2.66699 1 5.16699 3 7.5s4.66699 3.5 8 3.5c4.66699 0 9 -2.16699 13 -6.5s7.16699 -9.33301 9.5 -15s4.16602 -11.334 5.49902 -17.001s2 -10.167 2 -13.5
c0 -16.667 -5 -31.5 -15 -44.5s-23.667 -19.5 -41 -19.5c-12.667 0 -23.5 2.33301 -32.5 7s-16.5 11 -22.5 19s-10.333 17 -13 27s-4 20.333 -4 31c0 16 2.66699 32 8 48s13.166 30.667 23.499 44s22.666 24.166 36.999 32.499s30.5 12.5 48.5 12.5
c22.667 0 41.5 -5.5 56.5 -16.5s26.833 -25.667 35.5 -44s14.667 -39 18 -62s5 -46.5 5 -70.5c0 -33.333 -1.33301 -60.5 -4 -81.5l-8 -61.5c-2 -11.333 -3.83301 -23.333 -5.5 -36s-3.33398 -26.667 -5.00098 -42s-3 -32.833 -4 -52.5s-1.5 -42.5 -1.5 -68.5
c0 -15.333 0.5 -30 1.5 -44s2.83301 -26.333 5.5 -37s6.16699 -19.167 10.5 -25.5s10.166 -9.5 17.499 -9.5c10 0 21.5 6.16699 34.5 18.5s26.667 29.5 41 51.5s29 48 44 78s29.167 62.667 42.5 98s25.5 72.666 36.5 111.999s20.167 79 27.5 119c2 16 4.16699 32 6.5 48
l7.5 49c0.666992 4 4 6.83301 10 8.5s13 2.5 21 2.5c3.33301 0 6.5 -0.166992 9.5 -0.5s6.16699 -0.5 9.5 -0.5h10c3.33301 0 4.33301 -1.33301 3 -4c-0.666992 -1.33301 -2.5 -11.5 -5.5 -30.5s-6.66699 -43.5 -11 -73.5l-14 -101
c-5 -37.333 -9.66699 -74.666 -14 -111.999s-8 -72.833 -11 -106.5s-4.5 -61.834 -4.5 -84.501c0 -15.333 0.5 -27.166 1.5 -35.499s3.16699 -12.5 6.5 -12.5c2.66699 0 7.33398 6.33301 14.001 19s14 28.834 22 48.501s16.333 41.667 25 66s16.667 48.166 24 71.499z" />
    <glyph glyph-name="V" unicode="V" horiz-adv-x="529" 
d="M492 675c0 8 3.66406 11.9951 10.9971 11.9951c3.33301 0 6 -2.5 8 -7.5s3.33301 -11.333 4 -19s1 -15.667 1 -24v-22.5v-11c0 -50 -3.5 -99.5 -10.5 -148.5s-16.333 -95.667 -28 -140s-25.667 -85.666 -42 -123.999s-33.666 -71.333 -51.999 -99
s-37.5 -49.5 -57.5 -65.5s-39.667 -24 -59 -24c-16 0 -29.167 3.33301 -39.5 10s-18.5 16.167 -24.5 28.5s-10.333 27 -13 44s-4 35.833 -4 56.5c0 25.333 1.33301 52.5 4 81.5s5.66699 58.5 9 88.5l9.5 94.5c3 31 4.5 60.833 4.5 89.5c0 48.667 -6.33301 87.5 -19 116.5
s-29.667 43.5 -51 43.5c-8.66699 0 -17.5 -3 -26.5 -9s-17.333 -14.167 -25 -24.5s-13.834 -22.333 -18.501 -36s-7 -28.167 -7 -43.5c0 -19.333 4.83301 -34.333 14.5 -45s20.834 -16 33.501 -16c10.667 0 19.5 4.33301 26.5 13s10.5 18.667 10.5 30
c0 7.33301 -2.33301 14.666 -7 21.999s-11 12.666 -19 15.999c-5.33301 2.66699 -8 6 -8 10c0 2.66699 1 5.16699 3 7.5s4.66699 3.5 8 3.5c7.33301 0 13.833 -2.16699 19.5 -6.5s10.334 -9.66602 14.001 -15.999s6.33398 -12.833 8.00098 -19.5s2.5 -12.334 2.5 -17.001
c0 -16.667 -5 -31.5 -15 -44.5s-24 -19.5 -42 -19.5c-12.667 0 -23.5 2.66699 -32.5 8s-16.333 12 -22 20s-9.83398 17 -12.501 27s-4 19.667 -4 29c0 18 3 35.5 9 52.5s14.5 31.833 25.5 44.5s24 22.834 39 30.501s31.167 11.5 48.5 11.5c22 0 40 -6.16699 54 -18.5
s25 -27.666 33 -45.999s13.667 -38.5 17 -60.5s5 -42.667 5 -62c0 -26 -1.33301 -53.167 -4 -81.5s-5.66699 -57.166 -9 -86.499c0 -3.33301 -0.333008 -6.5 -1 -9.5s-1 -6.16699 -1 -9.5l-3 -25c-1.33301 -11.333 -2.66602 -24.5 -3.99902 -39.5s-2.5 -30.833 -3.5 -47.5
s-1.5 -33.334 -1.5 -50.001c0 -15.333 0.5 -30.166 1.5 -44.499s3 -27 6 -38s6.83301 -19.667 11.5 -26s10.667 -9.5 18 -9.5c13.333 0 32.5 14.5 57.5 43.5s49.167 69.5 72.5 121.5c23.333 56.667 42.333 120.334 57 191.001s22 143.334 22 218.001v35.5
c0 11.667 -0.666992 23.834 -2 36.501z" />
    <glyph glyph-name="W" unicode="W" horiz-adv-x="736" 
d="M690 675c0 8 3.33887 12.0049 10.0059 12.0049c3.33301 0 6 -2.5 8 -7.5s3.33301 -11.333 4 -19s1 -15.667 1 -24v-22.5v-11c0 -48 -3.16699 -96 -9.5 -144s-15.333 -94.333 -27 -139s-25.334 -86.334 -41.001 -125.001s-32.667 -72.334 -51 -101.001
s-37.666 -51.167 -57.999 -67.5s-40.833 -24.5 -61.5 -24.5c-14.667 0 -26.834 4.16699 -36.501 12.5s-17.334 20.166 -23.001 35.499s-9.66699 33.666 -12 54.999s-3.5 44.666 -3.5 69.999v18.5v15c0 5 0.166992 10.333 0.5 16s0.833008 12.5 1.5 20.5
c-8 -21.333 -18.167 -46 -30.5 -74s-26.833 -54.5 -43.5 -79.5s-34.834 -46.167 -54.501 -63.5s-40.5 -26 -62.5 -26c-16.667 0 -30.334 4.16699 -41.001 12.5s-19 19.333 -25 33s-10.167 29.5 -12.5 47.5s-3.5 36.667 -3.5 56c0 24 1.33301 47.833 4 71.5l7 61.5l3 26
c0 3.33301 0.333008 6.83301 1 10.5s1 7.16699 1 10.5c3.33301 28.667 6.33301 56.834 9 84.501s4 54.5 4 80.5c0 28.667 -1.83301 53 -5.5 73s-8.66699 36.333 -15 49s-13.5 21.834 -21.5 27.501s-16.333 8.5 -25 8.5c-10 0 -19.833 -3.33301 -29.5 -10
s-18.334 -15.334 -26.001 -26.001s-13.834 -22.834 -18.501 -36.501s-7 -27.5 -7 -41.5c0 -19.333 4.66699 -34 14 -44s20.333 -15 33 -15c11.333 0 20.5 4.33301 27.5 13s10.5 18.667 10.5 30c0 8 -2 15.667 -6 23s-10.667 12.333 -20 15
c-5.33301 1.33301 -8 4.66602 -8 9.99902c0 7.33301 4 11 12 11c7.33301 0 13.833 -2.16699 19.5 -6.5s10.334 -9.5 14.001 -15.5s6.33398 -12.333 8.00098 -19s2.5 -12.334 2.5 -17.001c0 -16.667 -5 -31.667 -15 -45s-24.333 -20 -43 -20c-12.667 0 -23.5 2.5 -32.5 7.5
s-16.333 11.5 -22 19.5s-9.83398 16.833 -12.501 26.5s-4 19.167 -4 28.5c0 14.667 2.5 30.334 7.5 47.001s12.5 31.667 22.5 45s22.167 24.5 36.5 33.5s30.833 13.5 49.5 13.5c22 0 40.333 -4.66699 55 -14s26.5 -22.333 35.5 -39s15.333 -36.167 19 -58.5
s5.5 -46.833 5.5 -73.5c0 -26 -1.33301 -53.167 -4 -81.5s-5.66699 -57.166 -9 -86.499c0 -3.33301 -0.333008 -6.5 -1 -9.5s-1 -6.16699 -1 -9.5c0 -1.33301 -0.166992 -2.83301 -0.5 -4.5s-0.5 -3.5 -0.5 -5.5c-0.666992 -7.33301 -1.66699 -16.5 -3 -27.5
s-2.5 -23.5 -3.5 -37.5l-3 -44c-1 -15.333 -1.5 -30.333 -1.5 -45c0 -15.333 0.5 -30 1.5 -44s2.83301 -26.167 5.5 -36.5s6.33398 -18.666 11.001 -24.999s10.667 -9.5 18 -9.5c12 0 28.333 10.333 49 31c16.667 18 32 39.167 46 63.5s26.667 50.166 38 77.499
s21.166 54.666 29.499 81.999s15.5 53 21.5 77c1.33301 5.33301 5 8.83301 11 10.5s12.667 2.5 20 2.5c3.33301 0 6.5 -0.166992 9.5 -0.5s6.16699 -0.5 9.5 -0.5h10c2 0 3 -1 3 -3c-4 -36 -7.66699 -71.333 -11 -106s-5 -67 -5 -97c0 -49.333 3.66699 -83.666 11 -102.999
s16.666 -29 27.999 -29c10 0 20.833 5.5 32.5 16.5s23.167 24.667 34.5 41s22 33.666 32 51.999s18.333 34.833 25 49.5c24.667 56 44.167 119.5 58.5 190.5s21.5 143.833 21.5 218.5v35.5c0 11.667 -0.666992 23.834 -2 36.501z" />
    <glyph glyph-name="X" unicode="X" horiz-adv-x="789" 
d="M779 659c4 -1.33301 6.00488 -4.66309 6.00488 -9.99609c0 -3.33301 -1.16699 -5.83301 -3.5 -7.5s-4.83301 -2.5 -7.5 -2.5c-3.33301 0 -5.33301 1 -6 3v-1c-15.333 8 -29 12 -41 12c-18 0 -36 -5.5 -54 -16.5s-35.667 -25.667 -53 -44s-34.166 -39 -50.499 -62
s-31.833 -46.667 -46.5 -71s-28 -48 -40 -71l-32 -61.5c-4 -7.33301 -7.33301 -14.333 -10 -21s-5.66699 -12.334 -9 -17.001c0.666992 -1.33301 1.16699 -3 1.5 -5s1.16602 -3.66699 2.49902 -5l17 -44.5c6.66699 -17 14.167 -34.667 22.5 -53s17.333 -36.333 27 -54
s20 -33.5 31 -47.5s22.5 -25.333 34.5 -34s24.667 -13 38 -13c12 0 24.667 5.66699 38 17s27.333 27 42 47s29.834 43.833 45.501 71.5l49.5 90.5c1.33301 4.66699 5 7 11 7c3.33301 0 5.83301 -1.33301 7.5 -4s2.5 -5 2.5 -7s-0.333008 -3.66699 -1 -5
c-24 -46 -45.833 -85.167 -65.5 -117.5s-38 -58.833 -55 -79.5s-33.5 -35.667 -49.5 -45s-32.333 -14 -49 -14c-22 0 -42.5 8 -61.5 24s-36.167 35.667 -51.5 59s-29.333 48.166 -42 74.499s-23.334 50.166 -32.001 71.499l-5 -8v1c-10 -18.667 -22.333 -40.167 -37 -64.5
s-31 -47.5 -49 -69.5s-37.167 -40.5 -57.5 -55.5s-41.166 -22.5 -62.499 -22.5c-3.33301 0 -7.83301 0.5 -13.5 1.5s-11.334 2.5 -17.001 4.5s-10.667 4.5 -15 7.5s-6.5 6.5 -6.5 10.5c0 2.66699 1 5.16699 3 7.5s4.66699 3.5 8 3.5s6.66602 -1 9.99902 -3
c5.33301 -2.66699 9.33301 -4 12 -4c10.667 0 22 4.33301 34 13s24.167 20.167 36.5 34.5s24.666 30.5 36.999 48.5s24 36 35 54s21 35.333 30 52l23.5 43l8 14l-16 37.5c-5.33301 13 -10.333 25.833 -15 38.5l-42.5 104c-14.333 34 -29.166 64.333 -44.499 91
s-31.5 48.167 -48.5 64.5s-35.167 24.5 -54.5 24.5c-9.33301 0 -19 -2.83301 -29 -8.5s-19.167 -13.667 -27.5 -24s-15.333 -22.5 -21 -36.5s-8.5 -29.333 -8.5 -46c0 -21.333 5.16699 -37.166 15.5 -47.499s21.5 -15.5 33.5 -15.5c11.333 0 20.166 4 26.499 12
s9.5 17.667 9.5 29c0 9.33301 -3 18.166 -9 26.499s-15.333 13.166 -28 14.499c-5.33301 1.33301 -8 5.66602 -8 12.999c1.33301 6 5.33301 9 12 9c18.667 -2 32.334 -9.16699 41.001 -21.5s13 -25.833 13 -40.5c0 -16.667 -4.66699 -31.667 -14 -45s-23.333 -20 -42 -20
c-12.667 0 -23.667 2.5 -33 7.5s-17 11.667 -23 20s-10.5 18 -13.5 29s-4.5 22.167 -4.5 33.5c0 16 2.83301 32.5 8.5 49.5s14.334 32.333 26.001 46s26 24.834 43 33.501s36.5 13 58.5 13c26 0 49.667 -9.16699 71 -27.5s41.166 -42.666 59.499 -72.999
s35.666 -65 51.999 -104s32.166 -78.833 47.499 -119.5c22 40.667 44.667 80.5 68 119.5s47.666 73.667 72.999 104s51.166 54.666 77.499 72.999s53.5 27.5 81.5 27.5c26 0 51.333 -7.66699 76 -23h-1z" />
    <glyph glyph-name="Y" unicode="Y" horiz-adv-x="572" 
d="M338 -91c10 16 19.001 33.833 27.001 53.5s14.833 38.667 20.5 57s10.167 35 13.5 50s5.66602 25.833 6.99902 32.5l30 156.5l29 163.5c-19.333 -43.333 -38.166 -79.666 -56.499 -108.999s-36.5 -53.333 -54.5 -72s-35.333 -32 -52 -40s-32.334 -12 -47.001 -12
c-16 0 -29.333 3.16699 -40 9.5s-19 14.833 -25 25.5s-10.167 22.834 -12.5 36.501s-3.5 28.167 -3.5 43.5c0 26.667 1.33301 51 4 73s5.66699 42.667 9 62c3.33301 17.333 6 34.166 8 50.499s3 32.833 3 49.5c0 37.333 -6.66699 66.166 -20 86.499s-29.333 30.5 -48 30.5
c-10 0 -19.833 -3 -29.5 -9s-18.334 -14.333 -26.001 -25s-14 -22.834 -19 -36.501s-7.5 -28.167 -7.5 -43.5c0 -20 5.16699 -35.167 15.5 -45.5s21.5 -15.5 33.5 -15.5c11.333 0 20.166 4.33301 26.499 13s9.5 18.667 9.5 30c0 7.33301 -1.83301 14.5 -5.5 21.5
s-9.16699 12.167 -16.5 15.5c-4.66699 1.33301 -7 4.66602 -7 9.99902c0 2.66699 1 5.16699 3 7.5s4.66699 3.5 8 3.5c6.66699 0 12.5 -2.33301 17.5 -7s9.16699 -10 12.5 -16s5.83301 -12.333 7.5 -19s2.5 -12 2.5 -16c0 -16.667 -5 -31.667 -15 -45s-24 -20 -42 -20
c-12 0 -22.5 2.5 -31.5 7.5s-16.5 11.5 -22.5 19.5s-10.333 17 -13 27s-4 20 -4 30c0 18 3 35.5 9 52.5s14.5 32 25.5 45s24.167 23.5 39.5 31.5s32 12 50 12s33.667 -3.83301 47 -11.5s24.5 -18 33.5 -31s15.833 -28 20.5 -45s7 -35.167 7 -54.5
c0 -18 -1.16699 -36.833 -3.5 -56.5s-5.16602 -39.5 -8.49902 -59.5c-3.33301 -19.333 -6.16602 -38.166 -8.49902 -56.499s-3.5 -36.166 -3.5 -53.499c0 -28 3.83301 -51 11.5 -69s19.167 -27 34.5 -27c10.667 0 23.667 6.33301 39 19s32 31.667 50 57s36.5 57 55.5 95
s37.5 82.667 55.5 134c2.66699 5.33301 6.33398 8 11.001 8h49c2 0 3 -1 3 -3l-17.5 -105l-20 -113l-21 -112l-19.5 -103c-3.33301 -16.667 -8 -36.167 -14 -58.5s-13.5 -43.5 -22.5 -63.5s-19.833 -37 -32.5 -51s-27.334 -21 -44.001 -21c-6 0 -10.333 0.333008 -13 1z" />
    <glyph glyph-name="Z" unicode="Z" horiz-adv-x="668" 
d="M166 290c12 22 26.166 36.999 42.499 44.999s33.166 12 50.499 12c10.667 0 21.167 -1 31.5 -3s20.166 -4.33301 29.499 -7l8 54c5.33301 34 11 67 17 99s13.667 63 23 93l-41 19c-25.333 11.333 -50.666 21.833 -75.999 31.5s-50.666 14.5 -75.999 14.5
c-20.667 0 -38.334 -3.33301 -53.001 -10s-26.667 -15.334 -36 -26.001s-16.166 -22.667 -20.499 -36s-6.5 -26.333 -6.5 -39c0 -17.333 4 -32.333 12 -45s19.333 -19 34 -19c11.333 0 20.166 4.5 26.499 13.5s9.5 19.167 9.5 30.5c0 9.33301 -2.83301 17.5 -8.5 24.5
s-13.167 11.5 -22.5 13.5c-2.66699 0.666992 -4.5 2 -5.5 4s-1.5 4 -1.5 6c0 4 1 6.83301 3 8.5s4 2.5 6 2.5c8.66699 0 16.167 -2.16699 22.5 -6.5s11.5 -9.66602 15.5 -15.999s7 -13 9 -20s3 -13.167 3 -18.5c0 -15.333 -4.83301 -29.833 -14.5 -43.5
s-23.834 -20.5 -42.501 -20.5c-21.333 0 -38 8.5 -50 25.5s-18 37.167 -18 60.5c0 15.333 2.66699 31 8 47s13.833 30.333 25.5 43s26.167 23 43.5 31s38 12 62 12c25.333 0 51.5 -5 78.5 -15s52.167 -20 75.5 -30c6.66699 -3.33301 14.167 -6.83301 22.5 -10.5l23.5 -10.5
c12 28 25.833 48 41.5 60s30.834 18 45.501 18c16 0 29.667 -5.5 41 -16.5s17 -25.167 17 -42.5s-5.66699 -31.833 -17 -43.5s-27.333 -17.5 -48 -17.5c-10 0 -20 1 -30 3c-9.33301 -30 -16.5 -60.167 -21.5 -90.5l-15.5 -90.5c-1.33301 -11.333 -3.16602 -22 -5.49902 -32
s-4.16602 -20.667 -5.49902 -32c11.333 -3.33301 23 -6 35 -8s23.333 -3 34 -3c15.333 0 30.333 2.5 45 7.5s29.667 13.167 45 24.5c1.33301 1.33301 2.66602 1.33301 3.99902 0s1.33301 -2.66602 0 -3.99902c-14 -17.333 -29 -29 -45 -35s-32.333 -9 -49 -9
c-12 0 -24 0.833008 -36 2.5s-23.667 4.16699 -35 7.5c-5.33301 -30 -11.5 -59.667 -18.5 -89s-16.167 -58.666 -27.5 -87.999l52 -24c18.667 -8.66699 36 -17.334 52 -26.001l17 -9h-1l25.5 -13.5c9.66699 -5 19.667 -9.83301 30 -14.5s20.5 -8.5 30.5 -11.5
s19 -4.5 27 -4.5c7.33301 0 13.666 2.16699 18.999 6.5s8 12.166 8 23.499c0 6.66699 3.66699 10 11 10c2.66699 0 5.16699 -0.833008 7.5 -2.5s3.5 -4.16699 3.5 -7.5c0 -34.667 -15.667 -52 -47 -52c-17.333 1.33301 -38.166 7.5 -62.499 18.5s-50.5 23.5 -78.5 37.5
l-51 25c-16.667 8 -33.667 15.667 -51 23c-14 -30.667 -30 -55.5 -48 -74.5s-38.333 -28.5 -61 -28.5c-25.333 0 -44.666 7.33301 -57.999 22s-20 31 -20 49c0 18.667 7.66699 36 23 52s39.333 24 72 24c14.667 0 29.667 -1.66699 45 -5c10.667 28.667 19 57.834 25 87.501
s11.667 59.5 17 89.5c-10 2.66699 -20 5 -30 7s-19.333 3 -28 3c-15.333 0 -30.5 -3.33301 -45.5 -10s-29.167 -18 -42.5 -34zM268.999 121.999h-3c0 2 0.333008 3.33301 1 4zM190.999 30.999c9.33301 0 20.501 6.50195 33.501 19.502s26.833 36.833 41.5 71.5
c-14.667 3.33301 -27.334 5 -38.001 5c-17.333 0 -33.333 -3.83301 -48 -11.5s-22 -20.834 -22 -39.501c0 -10.667 3 -20.834 9 -30.501s14 -14.5 24 -14.5zM429 587.001c0.666992 0 1.16699 -0.166992 1.5 -0.5s0.833008 -0.5 1.5 -0.5
c-0.666992 -0.666992 -1 -1.66699 -1 -3zM480 647.001c-7.33301 0 -15.167 -4.33301 -23.5 -13s-16.5 -24.667 -24.5 -48c4 -1.33301 8 -2 12 -2h11c10 0 19.833 2.66699 29.5 8s14.5 15.333 14.5 30c0 7.33301 -1.83301 13.333 -5.5 18s-8.16699 7 -13.5 7z" />
    <glyph glyph-name="bracketleft" unicode="[" horiz-adv-x="178" 
d="M196 636c6.66699 -3.33301 10 -7.66504 10 -12.998c0 -3.33301 -1.66699 -5.83301 -5 -7.5s-7.5 -2.83398 -12.5 -3.50098s-10.5 -0.833984 -16.5 -0.500977s-11.333 0.5 -16 0.5h-11l-50 -653h47c7.33301 0 11 -3.33301 11 -10s-3.66699 -10 -11 -10l-107 -2
c-2 0 -3 1 -3 3l54 693c0 2 1 3 3 3h107z" />
    <glyph glyph-name="backslash" unicode="\" horiz-adv-x="203" 
d="M25 603v4c0 6.66699 2.16699 12.167 6.5 16.5s10.166 6.5 17.499 6.5c12 0 19.667 -6.66699 23 -20l107 -640v-4c0 -6.66699 -2.16699 -12.167 -6.5 -16.5s-10.166 -6.5 -17.499 -6.5c-5.33301 0 -10.333 1.83301 -15 5.5s-7.66699 8.16699 -9 13.5z" />
    <glyph glyph-name="bracketright" unicode="]" horiz-adv-x="216" 
d="M10 -63c-6.66699 3.33301 -10 7.33496 -10 12.002c0 5.33301 6 8.66602 18 9.99902s23 1.66602 33 0.999023h10l50 653h-47c-7.33301 0 -11 3.33301 -11 10c0 7.33301 3.66699 11 11 11l107 2c2 0 3 -1 3 -3l-54 -693c0 -2 -1 -3 -3 -3h-107z" />
    <glyph glyph-name="asciicircum" unicode="^" horiz-adv-x="359" 
d="M301 426c1.33301 -1.33301 2.50098 -3 3.50098 -5s1.5 -4 1.5 -6c0 -1.33301 -0.833008 -3.33301 -2.5 -6s-4.83398 -4 -9.50098 -4c-3.33301 0 -6 1.16699 -8 3.5s-3.33301 4.5 -4 6.5l-54 67c-18 22.667 -36.667 44.667 -56 66l-125 -142
c-2.66699 -2.66699 -5 -4 -7 -4c-5.33301 0 -8 3.33301 -8 10l9 17c6 11.333 13.833 25.333 23.5 42l31 55l31.5 57l20 36l20 36c0.666992 1.33301 1.66699 2 3 2s2.33301 -0.666992 3 -2z" />
    <glyph glyph-name="underscore" unicode="_" horiz-adv-x="427" 
d="M80 -64c-7.33301 0 -13.166 2 -17.499 6s-6.5 9.66699 -6.5 17c0 6.66699 2.16699 12.334 6.5 17.001s10.166 7 17.499 7h255c7.33301 0 13.166 -2.33301 17.499 -7s6.5 -10.334 6.5 -17.001c0 -7.33301 -2.16699 -13 -6.5 -17s-10.166 -6 -17.499 -6h-255z" />
    <glyph glyph-name="grave" unicode="`" horiz-adv-x="283" 
d="M60 634c8.66699 24.667 23.3271 37.001 43.9941 37.001c12.667 0 26.334 -4.83301 41.001 -14.5s28.334 -21.667 41.001 -36s23.334 -30.333 32.001 -48s13 -34.5 13 -50.5c0 -5.33301 -0.666992 -10.5 -2 -15.5s-5 -7.5 -11 -7.5c-5.33301 0 -8.66602 3 -9.99902 9
c-2 9.33301 -6.16699 17.666 -12.5 24.999s-13.666 13.833 -21.999 19.5s-17.333 10.5 -27 14.5l-27.5 11c-15.333 5.33301 -29.166 11.333 -41.499 18s-18.5 16 -18.5 28c0 4.66699 0.333008 8 1 10z" />
    <glyph glyph-name="a" unicode="a" horiz-adv-x="338" 
d="M170 327c-0.666992 0 -1 0.333008 -1 1c0.666992 0 1 0.333008 1 1v-2zM151 213c2 19.333 4.50195 38.666 7.50195 57.999s6.5 38.333 10.5 57c-8.66699 15.333 -18.334 23 -29.001 23c-12.667 0 -25.5 -8.5 -38.5 -25.5s-24.833 -37.5 -35.5 -61.5
s-19.334 -48.833 -26.001 -74.5s-10 -47.5 -10 -65.5c0 -10 1.16699 -18 3.5 -24s6.16602 -9 11.499 -9c4.66699 0 11 2.83301 19 8.5s16.833 13.834 26.5 24.501s19.834 23.5 30.501 38.5s20.667 31.833 30 50.5zM338.002 257c3.33301 6 7.66406 8.33594 12.9971 7.00293
s8 -5.66602 8 -12.999c-18 -45.333 -34.5 -84 -49.5 -116s-28.833 -58 -41.5 -78s-24.667 -34.5 -36 -43.5s-22.666 -13.5 -33.999 -13.5s-20.5 3.66699 -27.5 11s-12.5 16.833 -16.5 28.5s-6.66699 24.667 -8 39s-2 28.5 -2 42.5v19c0 7.33301 0.333008 13.666 1 18.999
c-17.333 -28 -35.5 -50.833 -54.5 -68.5s-38.833 -26.5 -59.5 -26.5c-20 0 -34.5 8.16699 -43.5 24.5s-13.5 35.166 -13.5 56.499c0 16.667 2.16699 34.667 6.5 54s10.833 38.666 19.5 57.999c6.66699 16 14.667 31 24 45s19.5 26.5 30.5 37.5s22.833 19.667 35.5 26
s25.667 9.5 39 9.5c9.33301 0 18 -1.33301 26 -4s15 -7.33398 21 -14.001c0.666992 4 1.66699 7.33301 3 10s4.33301 4 9 4h49c2 0 3 -1.33301 3 -4c-0.666992 -3.33301 -2.83398 -15.166 -6.50098 -35.499s-7.66699 -44.5 -12 -72.5s-8.16602 -57.333 -11.499 -88
s-5 -57.334 -5 -80.001c0 -16 0.833008 -28.833 2.5 -38.5s4.83398 -14.5 9.50098 -14.5c8 0 17.833 9 29.5 27s23.334 39 35.001 63s22.667 48.167 33 72.5z" />
    <glyph glyph-name="b" unicode="b" horiz-adv-x="363" 
d="M363 257c2 5.33301 5.33008 8.00586 9.99707 8.00586c2.66699 0 5.16699 -1 7.5 -3s3.5 -5.66699 3.5 -11c-13.333 -46 -36.666 -83.333 -69.999 -112s-73 -49.667 -119 -63l-1 -1c-2.66699 -3.33301 -7.16699 -8.5 -13.5 -15.5s-14.166 -14.167 -23.499 -21.5
s-19.833 -13.666 -31.5 -18.999s-24.167 -8 -37.5 -8c-11.333 0 -19.666 2.83301 -24.999 8.5s-8 12.167 -8 19.5c0 8.66699 2.5 15.834 7.5 21.501s11.333 10.167 19 13.5s15.5 5.66602 23.5 6.99902s15 2.66602 21 3.99902h1c5.33301 1.33301 8.66602 2 9.99902 2
c8.66699 9.33301 16.834 20.666 24.501 33.999s14.167 27.166 19.5 41.499s9.5 28.333 12.5 42s4.5 25.5 4.5 35.5c0 13.333 -2 24.166 -6 32.499s-10 12.5 -18 12.5c-12 0 -24.833 -7.33301 -38.5 -22s-26.667 -32.5 -39 -53.5s-23 -43.5 -32 -67.5
s-15.167 -45.333 -18.5 -64c-0.666992 -0.666992 -1.16699 -1.83398 -1.5 -3.50098s-0.5 -2.83398 -0.5 -3.50098c0 -2 -1 -3 -3 -3h-11c-9.33301 -0.666992 -19.333 -0.333984 -30 0.999023s-16 5.66602 -16 12.999c2.66699 22.667 5.16699 49 7.5 79
s5.16602 62 8.49902 96c3.33301 39.333 7.33301 80.333 12 123s10.334 84.5 17.001 125.5s14.5 80.167 23.5 117.5s19.833 70 32.5 98s27.5 50.167 44.5 66.5s36.167 24.5 57.5 24.5c22 0 40.333 -11 55 -33s22 -54.667 22 -98c0 -33.333 -5.33301 -66.333 -16 -99
s-25 -64.334 -43 -95.001s-38.667 -59.834 -62 -87.501s-48 -52.834 -74 -75.501c-2 -25.333 -4.16699 -48.666 -6.5 -69.999s-4.5 -44.666 -6.5 -69.999c17.333 38 38.833 69 64.5 93s51.167 36 76.5 36c17.333 0 32 -6.33301 44 -19s18 -31.667 18 -57
c0 -20 -4 -41.833 -12 -65.5s-18 -45.5 -30 -65.5c38.667 12.667 69.167 30.834 91.5 54.501s40.5 55.834 54.5 96.501zM120.997 62.0059l-10 -2l8 7zM76.9971 40.0059c3.33301 0 8.5 2.33105 15.5 6.99805s13.167 9 18.5 13
c-7.33301 -1.33301 -14.833 -3.66602 -22.5 -6.99902s-11.5 -7.66602 -11.5 -12.999zM199.997 783.004c-10.667 0 -20.833 -6.33301 -30.5 -19s-18.667 -29.667 -27 -51s-16 -46.333 -23 -75s-13.5 -59 -19.5 -91s-11.5 -64.5 -16.5 -97.5s-9.16699 -65.167 -12.5 -96.5
c26.667 22 50.667 46.833 72 74.5s39.5 56 54.5 85s26.333 58 34 87s11.5 56.167 11.5 81.5c0 32 -4.33301 57 -13 75s-18.667 27 -30 27z" />
    <glyph glyph-name="c" unicode="c" horiz-adv-x="238" 
d="M238 257c2 4 4.49707 6.33301 7.49707 7s5.66699 0.166992 8 -1.5s4 -3.66699 5 -6s0.833008 -4.5 -0.5 -6.5c-5.33301 -10.667 -12.666 -24.167 -21.999 -40.5s-20.166 -33.833 -32.499 -52.5s-26 -37.334 -41 -56.001s-30.667 -35.5 -47 -50.5
s-32.833 -27.167 -49.5 -36.5s-33 -14 -49 -14c-19.333 0 -33.166 8.16699 -41.499 24.5s-12.5 37.166 -12.5 62.499s3.33301 53 10 83s15.667 59 27 87c7.33301 18.667 15.5 36.167 24.5 52.5s18.5 30.666 28.5 42.999s20.333 22 31 29s21 10.5 31 10.5
c17.333 0 31.333 -6.83301 42 -20.5s16 -31.167 16 -52.5c0 -3.33301 -0.5 -8.83301 -1.5 -16.5s-2.66699 -15.334 -5 -23.001s-5.16602 -14.5 -8.49902 -20.5s-7.33301 -9 -12 -9c-7.33301 0 -11 3.66699 -11 11c0 2 0.333008 3.66699 1 5c9.33301 16.667 14 32.667 14 48
c0 11.333 -2 21.5 -6 30.5s-8.66699 13.5 -14 13.5c-6.66699 0 -14.167 -5 -22.5 -15s-16.833 -23.167 -25.5 -39.5s-17.334 -34.666 -26.001 -54.999s-16.167 -41.166 -22.5 -62.499s-11.5 -42.166 -15.5 -62.499s-6 -38.166 -6 -53.499c0 -13.333 1.66699 -24 5 -32
s9 -12 17 -12c10 0 21.5 4.33301 34.5 13s26.333 20 40 34s27.167 29.833 40.5 47.5s25.833 35 37.5 52s22 33 31 48s15.833 27.167 20.5 36.5z" />
    <glyph glyph-name="d" unicode="d" horiz-adv-x="346" 
d="M172 322l-1 1v1zM159 213l4 36.5l4 36.5l4 37c-12 16 -22.667 24 -32 24c-13.333 0 -26 -7.83301 -38 -23.5s-22.833 -34.667 -32.5 -57s-17.334 -45.666 -23.001 -69.999s-8.5 -45.5 -8.5 -63.5c0 -10.667 1.5 -19.334 4.5 -26.001s7.5 -10 13.5 -10
c10.667 0 25.834 10.333 45.501 31s39.167 49 58.5 85zM307 705c-10.667 -24 -20.0029 -51.499 -28.0029 -82.499s-14.833 -62.167 -20.5 -93.5s-10.334 -61.333 -14.001 -90s-6.5 -53.334 -8.5 -74.001c-0.666992 -2 -1 -3.66699 -1 -5
c24.667 24.667 46.834 51.5 66.501 80.5s36.334 58.833 50.001 89.5s24.167 61 31.5 91s11 58.333 11 85c-2 40.667 -11.333 61 -28 61c-9.33301 0 -19.166 -5.5 -29.499 -16.5s-20.166 -26.167 -29.499 -45.5zM345.997 257.001c0.666992 4 2.49805 6.66406 5.49805 7.99707
s5.83301 1.5 8.5 0.5s4.83398 -2.66699 6.50098 -5s1.83398 -5.5 0.500977 -9.5c-18 -45.333 -34.5 -83.666 -49.5 -114.999s-28.167 -56.666 -39.5 -75.999c-3.33301 -5.33301 -7.5 -11.5 -12.5 -18.5s-10.5 -13.5 -16.5 -19.5s-12.5 -11.167 -19.5 -15.5
s-14.5 -6.5 -22.5 -6.5c-11.333 0 -20.5 3.66699 -27.5 11s-12.333 16.833 -16 28.5s-6.16699 24.834 -7.5 39.501s-2 29 -2 43v19c0 6.66699 0.333008 13 1 19c-20.667 -31.333 -42 -55 -64 -71s-42 -24 -60 -24c-16 0 -29.5 6.5 -40.5 19.5s-16.5 33.167 -16.5 60.5
c0 16.667 2.16699 34.667 6.5 54s10.833 38.666 19.5 57.999c6.66699 16 14.667 31 24 45s19.5 26.5 30.5 37.5s22.833 19.667 35.5 26s25.667 9.5 39 9.5c17.333 0 32.666 -5.66699 45.999 -17c5.33301 53.333 12.333 106.5 21 159.5s19.834 100.833 33.501 143.5
s30.334 77.167 50.001 103.5s43.5 39.5 71.5 39.5c12.667 0 23.167 -3 31.5 -9s15 -14 20 -24s8.66699 -21.333 11 -34s3.5 -25.667 3.5 -39c0 -32 -5.33301 -65.333 -16 -100s-24.667 -68.5 -42 -101.5s-37 -64.167 -59 -93.5s-44.667 -54.666 -68 -75.999
c0 -2.66699 -0.666992 -7.33398 -2 -14.001c-1.33301 -11.333 -2.83301 -25.166 -4.5 -41.499s-3.33398 -33.833 -5.00098 -52.5s-3.16699 -37.667 -4.5 -57s-2 -37.333 -2 -54c0 -19.333 1 -35.333 3 -48s5.66699 -19 11 -19c6.66699 0 15 7.83301 25 23.5
s20.5 34.667 31.5 57l33 70.5z" />
    <glyph glyph-name="e" unicode="e" horiz-adv-x="204" 
d="M95 314l-14.501 -27.999c-4.33301 -8.66699 -8.83301 -18.667 -13.5 -30c18.667 11.333 31.834 24.666 39.501 39.999s11.5 27.333 11.5 36c0 4 -0.666992 6 -2 6c-4.66699 0 -11.667 -8.33301 -21 -25v1zM203.999 257.001c1.33301 4 3.49609 6.49805 6.49609 7.49805
s5.83301 1 8.5 0s4.83398 -2.83301 6.50098 -5.5s1.5 -6 -0.5 -10c-4 -8.66699 -9.83301 -20.667 -17.5 -36s-16.667 -31.833 -27 -49.5s-21.666 -35.834 -33.999 -54.501s-25.166 -35.5 -38.499 -50.5s-27 -27.167 -41 -36.5s-27.667 -14 -41 -14
c-12.667 0 -23.167 3 -31.5 9s-14.833 13.5 -19.5 22.5s-7.83398 19.167 -9.50098 30.5s-2.5 22.666 -2.5 33.999c0.666992 23.333 4.33398 48.333 11.001 75s15.334 52.667 26.001 78c7.33301 18 15.5 34.667 24.5 50s18.333 28.833 28 40.5s19.167 20.834 28.5 27.501
s18 10 26 10c10.667 0 19 -4.16699 25 -12.5s9 -19.166 9 -32.499c0 -9.33301 -1.66699 -19.166 -5 -29.499s-8.5 -20.666 -15.5 -30.999s-16 -20.166 -27 -29.499s-24.167 -17.333 -39.5 -24c-4 -9.33301 -7.83301 -20.333 -11.5 -33s-7 -26 -10 -40
s-5.5 -27.833 -7.5 -41.5s-3 -25.834 -3 -36.501c0 -12 1.16699 -21.833 3.5 -29.5s6.83301 -11.5 13.5 -11.5c11.333 0 25 8.83301 41 26.5s32 38.667 48 63s30.833 49 44.5 74s24.167 44.833 31.5 59.5z" />
    <glyph glyph-name="f" unicode="f" horiz-adv-x="286" 
d="M202 601c-14.667 0 -28.001 -7.16602 -40.001 -21.499s-23 -33 -33 -56s-19.167 -49.333 -27.5 -79s-15.666 -59.834 -21.999 -90.501s-11.833 -60.5 -16.5 -89.5l-12 -76.5c24 27.333 46.833 56 68.5 86s40.667 60.333 57 91s29.5 61.167 39.5 91.5s15 59.5 15 87.5
c0 20 -2.83301 34.5 -8.5 43.5s-12.5 13.5 -20.5 13.5zM285.999 257.001c1.33301 6 4.66602 8.99512 9.99902 8.99512c2.66699 0 5.16699 -1.16699 7.5 -3.5s3.5 -6.16602 3.5 -11.499c-24.667 -72 -61.334 -133.333 -110.001 -184s-104.334 -86.334 -167.001 -107.001
c-0.666992 -5.33301 -1 -11.666 -1 -18.999v-19c8.66699 -23.333 15.334 -45.166 20.001 -65.499s7 -38.166 7 -53.499c0 -22 -4 -38.5 -12 -49.5s-16.667 -16.5 -26 -16.5c-18 0 -31 11 -39 33s-12 56 -12 102c0 24.667 0.666992 52.167 2 82.5s3.33301 62.166 6 95.499
s6 67.5 10 102.5s9 69.833 15 104.5c8 50.667 18 99.5 30 146.5s25.667 88.5 41 124.5s32.333 64.833 51 86.5s39.334 32.5 62.001 32.5c20 0 36.833 -8.5 50.5 -25.5s20.5 -41.833 20.5 -74.5c0 -20 -3.83301 -44.167 -11.5 -72.5s-19.667 -59.5 -36 -93.5
s-37.666 -70.5 -63.999 -109.5s-58.5 -79.5 -96.5 -121.5c-4 -29.333 -7.33301 -57.666 -10 -84.999s-4.66699 -53.666 -6 -78.999c31.333 11.333 60.5 26.333 87.5 45s51.333 40 73 64s40.5 49.833 56.5 77.5s28.667 55.834 38 84.501zM27.999 -124.004v-22l-6 21z
M33.999 -198.004c0 13.333 -2 30.668 -6 52.001c0 -11.333 0.333008 -22.833 1 -34.5s2 -21.834 4 -30.501c0.666992 2 1 6.33301 1 13z" />
    <glyph glyph-name="g" unicode="g" horiz-adv-x="383" 
d="M383 257c1.33301 5.33301 4.66602 7.99805 9.99902 7.99805c3.33301 0 5.83301 -1.16699 7.5 -3.5s2.5 -4.5 2.5 -6.5c0 -0.666992 -0.166992 -1.33398 -0.5 -2.00098s-0.5 -1.66699 -0.5 -3c-6.66699 -20 -15.5 -38.167 -26.5 -54.5s-23.167 -31.666 -36.5 -45.999
s-27.5 -27.833 -42.5 -40.5l-44.5 -37c0.666992 0.666992 -1.66602 -1 -6.99902 -5s-9.33301 -7.33301 -12 -10c-5.33301 -53.333 -12.333 -107.5 -21 -162.5s-19.834 -105.167 -33.501 -150.5s-30.667 -82.333 -51 -111s-44.5 -43 -72.5 -43c-12 0 -22.167 2.66699 -30.5 8
s-14.833 12.166 -19.5 20.499s-8 17.833 -10 28.5s-3 21.667 -3 33c0 31.333 5.33301 63.166 16 95.499s24.5 64 41.5 95s36 60.333 57 88s42.167 52.167 63.5 73.5l9 94l7 87c-28.667 -48 -56 -83.167 -82 -105.5s-50.333 -33.5 -73 -33.5
c-17.333 0 -31.333 6.33301 -42 19s-16 31.334 -16 56.001c0 16 2.33301 33.333 7 52s11.334 37.334 20.001 56.001c8 16.667 17.333 33 28 49s22.5 30 35.5 42s26.833 21.667 41.5 29s30 11 46 11c6.66699 0 14.5 -1.16699 23.5 -3.5s17.5 -5.83301 25.5 -10.5
s14.667 -10.5 20 -17.5s8 -14.833 8 -23.5c0 -3.33301 -1.33301 -6.16602 -4 -8.49902s-5 -3.5 -7 -3.5c-4 0 -7.33301 2.66699 -10 8c-3.33301 9.33301 -8.83301 17 -16.5 23s-15.167 9 -22.5 9c-5.33301 0 -10.666 -1.33301 -15.999 -4
c-18.667 -9.33301 -35.334 -22.666 -50.001 -39.999s-27.167 -36.166 -37.5 -56.499s-18.166 -40.833 -23.499 -61.5s-8 -39 -8 -55c0 -11.333 1.66699 -20.666 5 -27.999s8.66602 -11 15.999 -11c6.66699 0 15 4 25 12s21.167 19.167 33.5 33.5
s25.166 31.666 38.499 51.999s26.666 42.833 39.999 67.5c0 2 0.166992 4.16699 0.5 6.5s0.5 4.16602 0.5 5.49902c0.666992 7.33301 1.66699 14.666 3 21.999s5 11 11 11h48c2 0 3 -1 3 -3c-3.33301 -23.333 -6.16602 -48.833 -8.49902 -76.5s-4.83301 -55.5 -7.5 -83.5
l-5 -66l46 36c14.667 12 28.334 24.833 41.001 38.5s24 28.334 34 44.001s18.667 33.167 26 52.5zM36 -366.002c8.66699 0 19.001 7.33398 31.001 22.001s24.167 37.167 36.5 67.5s24.166 68.5 35.499 114.5s20.333 100 27 162c-18 -17.333 -36 -37.333 -54 -60
s-34.167 -47.834 -48.5 -75.501s-26 -57 -35 -88s-13.5 -62.833 -13.5 -95.5c0 -15.333 2 -27 6 -35s9 -12 15 -12z" />
    <glyph glyph-name="h" unicode="h" horiz-adv-x="359" 
d="M359 257c3.33301 5.33301 6.99609 8.00098 10.9961 8.00098c2.66699 0 5.16699 -1.16699 7.5 -3.5s3.5 -6.16602 3.5 -11.499c-18 -46.667 -35.833 -87.167 -53.5 -121.5s-34.167 -63.166 -49.5 -86.499l-18 -24c-6.66699 -8.66699 -14 -16.834 -22 -24.501
s-16.667 -14 -26 -19s-19.666 -7.5 -30.999 -7.5c-17.333 0 -29.166 5.33301 -35.499 16s-9.5 23.667 -9.5 39s2.66699 33.833 8 55.5s11 43.167 17 64.5l15 59.5c4.66699 19 7 34.5 7 46.5c0 10 -2 15 -6 15c-6.66699 0 -14.334 -4.33301 -23.001 -13
s-17.5 -19.834 -26.5 -33.501s-18 -28.834 -27 -45.501s-17.167 -33 -24.5 -49l-19.5 -43.5c-5.66699 -13 -9.5 -22.833 -11.5 -29.5c0 -0.666992 -0.166992 -1.33398 -0.5 -2.00098s-0.5 -1.33398 -0.5 -2.00098c0 -2 -1 -3 -3 -3h-47c-6.66699 0 -10 4.33301 -10 13l3 42
c1.33301 21.333 3 45.666 5 72.999s4.66699 56.333 8 87c4 38.667 8.66699 79.167 14 121.5s11.666 83.833 18.999 124.5s15.833 79.334 25.5 116.001s20.834 68.667 33.501 96s26.834 49.166 42.501 65.499s32.834 24.5 51.501 24.5c17.333 0 31.166 -4.5 41.499 -13.5
s18.333 -20 24 -33s9.5 -27.167 11.5 -42.5s3 -29 3 -41c-0.666992 -26.667 -5.16699 -55.667 -13.5 -87s-20.666 -63 -36.999 -95s-36.666 -63.167 -60.999 -93.5s-52.5 -57.5 -84.5 -81.5l-4 -43.5l-4 -44.5l-10 -106c8.66699 18.667 18.667 38.167 30 58.5
s23.333 39 36 56s26 31 40 42s28 16.5 42 16.5c16 0 27.167 -4.66699 33.5 -14s9.5 -21.666 9.5 -36.999s-2.5 -33.5 -7.5 -54.5s-10.5 -42.167 -16.5 -63.5l-15 -60c-4.66699 -19.333 -7 -35.666 -7 -48.999c0 -14 2.66699 -21 8 -21c10.667 0 23 9.16699 37 27.5
s28.167 40.833 42.5 67.5s28 54.834 41 84.501s24.167 56.167 33.5 79.5zM137.996 687.001c-8.66699 -23.333 -16.3281 -49 -22.9951 -77s-12.667 -57 -18 -87s-10 -60.167 -14 -90.5s-7.33301 -58.833 -10 -85.5c28 22.667 52.667 48 74 76s39.166 56.667 53.499 86
s25.166 58.333 32.499 87s11 55 11 79c0 30 -3.83301 53.333 -11.5 70s-16.834 25 -27.501 25s-21.834 -6.66699 -33.501 -20s-22.834 -34.333 -33.501 -63z" />
    <glyph glyph-name="i" unicode="i" horiz-adv-x="184" 
d="M184 257c3.33301 5.33301 7.33496 8.00293 12.002 8.00293c2.66699 0 5.16699 -0.833008 7.5 -2.5s3.5 -4.16699 3.5 -7.5c0 -2 -0.333008 -3.33301 -1 -4c-17.333 -44.667 -33.333 -82.834 -48 -114.501s-28 -57.167 -40 -76.5
c-3.33301 -5.33301 -7.5 -11.5 -12.5 -18.5s-10.5 -13.5 -16.5 -19.5s-12.667 -11.167 -20 -15.5s-15 -6.5 -23 -6.5c-10 0 -18.5 3.66699 -25.5 11s-12.667 17.333 -17 30s-7.33301 27.5 -9 44.5s-2.5 34.833 -2.5 53.5c0 20 0.833008 40.167 2.5 60.5s3.5 39.5 5.5 57.5
c3.33301 26 7 47.667 11 65s7.66699 26 11 26h49c2 0 3 -1 3 -3c-0.666992 -5.33301 -2.33398 -16.333 -5.00098 -33s-5.33398 -36.334 -8.00098 -59.001s-5 -46.5 -7 -71.5s-3 -48.167 -3 -69.5c0 -20.667 1.16699 -37.5 3.5 -50.5s6.83301 -19.5 13.5 -19.5
c6 0 13.833 7.16699 23.5 21.5s20 32.166 31 53.499s21.833 44.5 32.5 69.5zM46.002 410.003c10 0 18.168 -3.33203 24.501 -9.99902s9.5 -13.667 9.5 -21s-3.5 -13.833 -10.5 -19.5s-14.5 -8.5 -22.5 -8.5c-9.33301 0 -17.333 2.66699 -24 8s-10 12.333 -10 21
c0 9.33301 3.16699 16.666 9.5 21.999s14.166 8 23.499 8z" />
    <glyph glyph-name="j" unicode="j" horiz-adv-x="196" 
d="M41 415c9.33301 0 17.168 -3.33203 23.501 -9.99902s9.5 -13.667 9.5 -21s-3.5 -13.833 -10.5 -19.5s-14.167 -8.5 -21.5 -8.5c-9.33301 0 -17.333 2.66699 -24 8s-10 12.333 -10 21c0 9.33301 3.16699 16.666 9.5 21.999s14.166 8 23.499 8zM196.002 257.001
c1.33301 5.33301 5.00293 8.00684 11.0029 8.00684c2.66699 0 5.16699 -1 7.5 -3s3.5 -4.66699 3.5 -8c0 -0.666992 -0.166992 -1.33398 -0.5 -2.00098s-0.5 -1.33398 -0.5 -2.00098c-7.33301 -21.333 -16.166 -40.166 -26.499 -56.499s-21.666 -30.833 -33.999 -43.5
s-25.5 -24.334 -39.5 -35.001s-28.333 -21 -43 -31l-26 -20c-5.33301 -56 -12 -111.833 -20 -167.5s-19 -105.834 -33 -150.501s-31.167 -80.834 -51.5 -108.501s-45.5 -41.5 -75.5 -41.5c-11.333 0 -20.833 2.33301 -28.5 7s-13.834 10.667 -18.501 18
s-7.83398 16 -9.50098 26s-2.5 20.333 -2.5 31c0 19.333 2 39 6 59s7.66699 35.667 11 47c11.333 37.333 24.833 70.666 40.5 99.999s31.167 54.666 46.5 75.999s29.166 38.666 41.499 51.999s21.166 22.333 26.499 27l3 3c0.666992 2.66699 1.5 9.66699 2.5 21
s2 25.333 3 42s2.16699 35.167 3.5 55.5l4 60.5l3 36c1.33301 20 2.33301 37.667 3 53s1.66699 26.666 3 33.999c1.33301 5.33301 7.16602 8.5 17.499 9.5s19.833 1.16699 28.5 0.5h12c2 0 3 -1 3 -3c-2 -22.667 -3.66699 -45 -5 -67l-4 -66l-7 -125
c2.66699 2.66699 4.66699 4.33398 6 5.00098l-1 -1l43.5 31.5c13.667 10.333 26.5 21.5 38.5 33.5s22.833 25.667 32.5 41s18.167 33.333 25.5 54zM-84.9951 -305.992c8.66699 18.667 16.333 40.167 23 64.5s12.667 50 18 77s10 55.167 14 84.5s7.66699 59 11 89
c-21.333 -21.333 -41 -45.166 -59 -71.499s-33.667 -54 -47 -83s-23.833 -58.5 -31.5 -88.5s-11.5 -59 -11.5 -87c0 -14 1.66699 -26.5 5 -37.5s9 -16.5 17 -16.5c9.33301 0 19.5 6.16699 30.5 18.5s21.167 29.166 30.5 50.499z" />
    <glyph glyph-name="k" unicode="k" horiz-adv-x="283" 
d="M-16 76c2.66699 28 5.1709 57.165 7.50391 87.498s5.16602 61.5 8.49902 93.5c4 42.667 9 85.834 15 129.501s12.833 85.834 20.5 126.501s16.5 78.5 26.5 113.5s21.667 65.5 35 91.5s28.166 46.5 44.499 61.5s34.833 22.5 55.5 22.5s37.834 -9.16699 51.501 -27.5
s20.5 -43.166 20.5 -74.499c0 -34.667 -12 -76 -36 -124s-62.333 -96.667 -115 -146l-39 -33c-4 -25.333 -7.33301 -49.166 -10 -71.499l-8 -69.5c21.333 28.667 40.833 49.167 58.5 61.5s32.5 18.5 44.5 18.5c15.333 0 23 -7 23 -21
c0 -10.667 -8.33301 -25.834 -25 -45.501s-48 -42.5 -94 -68.5c19.333 -56 36.166 -96.5 50.499 -121.5s28.166 -37.5 41.499 -37.5c8 0 16.667 5.33301 26 16s19.333 25.667 30 45s21.667 42 33 68s22.666 54.667 33.999 86c4 4.66699 7.33301 7 10 7
c8 0 12 -3.33301 12 -10c0 -2 -0.333008 -3.33301 -1 -4c-8.66699 -24.667 -18.834 -51.334 -30.501 -80.001s-24.5 -55.5 -38.5 -80.5s-28.667 -45.833 -44 -62.5s-31 -25 -47 -25c-14.667 0 -30.167 8 -46.5 24s-33.5 41.333 -51.5 76l-8 -100c0 -2 -0.666992 -3 -2 -3
c-9.33301 -4 -20 -6 -32 -6c-11.333 0 -19.666 1.33301 -24.999 4c-1.33301 0 -2 1 -2 3zM152.004 695.998c-9.33301 -19.333 -17.502 -40.1709 -24.502 -62.5039s-13.167 -45.166 -18.5 -68.499s-10.166 -46.833 -14.499 -70.5s-8.16602 -46.167 -11.499 -67.5
c25.333 20.667 48 42.5 68 65.5s37 46.333 51 70s24.667 46.834 32 69.501s11 44.334 11 65.001s-3 36.334 -9 47.001s-13.667 16 -23 16s-19.333 -5.33301 -30 -16s-21 -26.667 -31 -48zM164.002 314.993c-9.33301 0 -23.168 -7.16797 -41.501 -21.501
s-37.166 -37.166 -56.499 -68.499c34 19.333 59 37 75 53s24 28 24 36c0 0.666992 -0.333008 1 -1 1z" />
    <glyph glyph-name="l" unicode="l" horiz-adv-x="246" 
d="M65 345l6 6c-0.666992 -2 -1 -4.66699 -1 -8zM234 773c-10.667 0 -21.668 -6.33301 -33.001 -19s-22.333 -29.834 -33 -51.501s-21 -46.667 -31 -75s-19.167 -58.166 -27.5 -89.499s-15.833 -63 -22.5 -95s-12 -62.667 -16 -92c26.667 25.333 51.5 54 74.5 86
s42.833 64.5 59.5 97.5s29.667 65.333 39 97s14 60.5 14 86.5c0 17.333 -2.16699 30.833 -6.5 40.5s-10.166 14.5 -17.499 14.5zM245.999 257c3.33301 6 6.99609 9.00195 10.9961 9.00195c2.66699 0 5.16699 -0.833008 7.5 -2.5s3.5 -4.16699 3.5 -7.5
c0 -2 -0.333008 -3.33301 -1 -4c-18 -46 -36.5 -85 -55.5 -117s-37 -58.167 -54 -78.5s-32.833 -35.166 -47.5 -44.499s-27 -14 -37 -14c-13.333 0 -24.666 4.66699 -33.999 14s-17 22.5 -23 39.5s-10.5 37.167 -13.5 60.5s-4.5 49 -4.5 77v33.5c0 11 0.666992 22.5 2 34.5
c2.66699 39.333 7.33398 80.166 14.001 122.499s14.834 83.833 24.501 124.5s21 79.167 34 115.5s27 68.333 42 96s31 49.667 48 66s34.5 24.5 52.5 24.5c12 0 22 -2.5 30 -7.5s14.5 -11.667 19.5 -20s8.66699 -17.833 11 -28.5s3.5 -22 3.5 -34
c0 -34 -6.33301 -69.833 -19 -107.5s-29.167 -74.334 -49.5 -110.001s-43.166 -69 -68.499 -100s-50.333 -57.5 -75 -79.5l-6 -64c-2.66699 -28.667 -4 -58 -4 -88c0 -16.667 0.5 -32.834 1.5 -48.501s3 -29.5 6 -41.5s6.83301 -21.667 11.5 -29s10.667 -11 18 -11
c14.667 0 36.167 18.5 64.5 55.5s57.5 91.833 87.5 164.5z" />
    <glyph glyph-name="m" unicode="m" horiz-adv-x="513" 
d="M51 185c6 14 12.8281 28.832 20.4951 44.499s16.334 30 26.001 43s20.334 23.667 32.001 32s24.167 12.5 37.5 12.5c8.66699 0 15.834 -2.5 21.501 -7.5s10.167 -11.667 13.5 -20s5.66602 -17.666 6.99902 -27.999s2 -20.833 2 -31.5v-17.5
c0 -5.66699 -0.333008 -11.167 -1 -16.5c7.33301 16.667 15.833 33.5 25.5 50.5s20.167 32.333 31.5 46s23.5 24.834 36.5 33.501s26.833 13 41.5 13c20 0 34 -7 42 -21s12 -32 12 -54c0 -12.667 -0.666992 -23.667 -2 -33s-3.16602 -18.5 -5.49902 -27.5
s-5 -18.167 -8 -27.5s-6.16699 -20 -9.5 -32c-3.33301 -10.667 -6 -20.334 -8 -29.001s-3.66699 -16.667 -5 -24c-3.33301 -14.667 -5 -27 -5 -37c0 -7.33301 0.833008 -13.333 2.5 -18s4.83398 -7 9.50098 -7c12 0 24.667 7.5 38 22.5s26.5 33.667 39.5 56
s25.167 46.833 36.5 73.5l31 76c4.66699 6.66699 9.5 9 14.5 7s7.5 -6.66699 7.5 -14c-11.333 -29.333 -23.333 -58.833 -36 -88.5s-26.5 -56.5 -41.5 -80.5s-30.833 -43.5 -47.5 -58.5s-34 -22.5 -52 -22.5c-10.667 0 -19.5 2 -26.5 6s-12.667 9.33301 -17 16
s-7.5 14.167 -9.5 22.5s-3 16.833 -3 25.5c0 5.33301 0.333008 10.833 1 16.5s1.66699 12.167 3 19.5l8 36l17 70c5.33301 22 8 45 8 69c0 10 -0.833008 18 -2.5 24s-4.5 9 -8.5 9c-14 0 -28.5 -10.333 -43.5 -31s-29.333 -45.334 -43 -74.001s-25.834 -57.667 -36.501 -87
s-18.334 -53 -23.001 -71c0 -1.33301 -0.333008 -2.66602 -1 -3.99902s-1 -2.66602 -1 -3.99902s-1 -2 -3 -2h-45c-7.33301 0 -11 3 -11 9c0 7.33301 0.833008 14.5 2.5 21.5s3.83398 15.167 6.50098 24.5c4.66699 15.333 9.33398 35 14.001 59s7 55.333 7 94
c0 10 -0.666992 18.333 -2 25s-4 10 -8 10c-7.33301 0 -14.833 -4.83301 -22.5 -14.5s-15.334 -22.167 -23.001 -37.5s-15 -32.333 -22 -51s-13.333 -37 -19 -55s-10.667 -34.833 -15 -50.5s-7.16602 -27.834 -8.49902 -36.501
c-1.33301 -4.66699 -2.16602 -9.16699 -2.49902 -13.5s-0.833008 -8.83301 -1.5 -13.5c0 -2 -1 -3 -3 -3h-46c-7.33301 0 -11 4.33301 -11 13l11 76l22 159l10 67c7.33301 6 16.833 8.16699 28.5 6.5s23.167 -3.16699 34.5 -4.5z" />
    <glyph glyph-name="n" unicode="n" horiz-adv-x="370" 
d="M47 175c8.66699 20.667 18.6699 40.833 30.0029 60.5s23.333 37.334 36 53.001s26 28.334 40 38.001s28 14.5 42 14.5c19.333 0 32.666 -7.66699 39.999 -23s11 -37 11 -65c0 -16.667 -1.33301 -32.667 -4 -48s-5.5 -30.5 -8.5 -45.5s-5.83301 -30 -8.5 -45
s-4 -29.833 -4 -44.5c0 -20 3.33301 -30 10 -30c9.33301 0 20.166 6.83301 32.499 20.5s24.666 31 36.999 52s24.666 44.333 36.999 70s23.166 50.5 32.499 74.5c1.33301 4 3.33301 6.5 6 7.5s5.33398 0.833008 8.00098 -0.5s4.66699 -3.33301 6 -6
s1.33301 -5.33398 0 -8.00098c-10 -28 -19.167 -51.333 -27.5 -70s-16.166 -34.834 -23.499 -48.501s-14.5 -26 -21.5 -37l-22.5 -34.5c-4 -6 -9.5 -12.5 -16.5 -19.5s-14.833 -13.667 -23.5 -20s-17.5 -11.5 -26.5 -15.5s-17.833 -6 -26.5 -6
c-17.333 0 -29.5 6.66699 -36.5 20s-10.5 30.666 -10.5 51.999c0 16 1.33301 31.833 4 47.5s5.66699 31 9 46s6.33301 30.167 9 45.5s4 31 4 47c0 14 -1.16699 25.5 -3.5 34.5s-6.16602 13.5 -11.499 13.5c-8 0 -17.167 -6.33301 -27.5 -19s-20.833 -28 -31.5 -46
s-20.834 -37.167 -30.501 -57.5s-17.5 -38.166 -23.5 -53.499l-12 -36.5c-3.33301 -10.333 -6 -20 -8 -29l-5.5 -25.5l-5.5 -27c0 -1.33301 -1 -2 -3 -2h-47c-6.66699 0 -10 4.33301 -10 13c1.33301 11.333 3.83301 29.5 7.5 54.5s8.16699 51.5 13.5 79.5v-1l17 102l10 66
c5.33301 6.66699 14 9.16699 26 7.5s23.667 -3.16699 35 -4.5z" />
    <glyph glyph-name="o" unicode="o" horiz-adv-x="351" 
d="M111 49c11.333 10.667 21.833 23.1689 31.5 37.502s18.167 28.5 25.5 42.5c-14 4.66699 -26.5 11.667 -37.5 21s-20.333 20.166 -28 32.499s-13.5 25.666 -17.5 39.999s-6 28.5 -6 42.5v7.5c0 1.66699 0.333008 4.16699 1 7.5c-20.667 -16.667 -36 -40.167 -46 -70.5
s-15 -59.833 -15 -88.5c0 -26 3.83301 -48.167 11.5 -66.5s19.167 -27.5 34.5 -27.5c14 0 29.333 7.33301 46 22zM105 291.002c-2.66699 -8 -4 -17.333 -4 -28c0 -11.333 1.66699 -23 5 -35s8.33301 -23.167 15 -33.5s14.5 -19.333 23.5 -27s19.5 -13.5 31.5 -17.5
c5.33301 15.333 10.166 33.333 14.499 54s6.5 40.667 6.5 60s-2.83301 36.5 -8.5 51.5s-16.834 22.5 -33.501 22.5c-13.333 0 -24.166 -5 -32.499 -15s-14.166 -20.667 -17.499 -32zM351 257.002c4 4.66699 8.33203 6.16992 12.999 4.50293s7 -5.83398 7 -12.501
c-30 -42 -59.167 -73.167 -87.5 -93.5s-55.833 -30.5 -82.5 -30.5h-11c-19.333 -42 -42.5 -73.667 -69.5 -95s-52.5 -32 -76.5 -32c-24.667 0 -45.167 10.5 -61.5 31.5s-24.5 51.5 -24.5 91.5c0 23.333 3.5 47 10.5 71s17.5 45.667 31.5 65c11.333 15.333 24.333 28 39 38
s31.667 16 51 18c7.33301 14 16.833 25.333 28.5 34s24.167 13 37.5 13c12 0 22 -2.66699 30 -8s14.333 -12.5 19 -21.5s8 -19.167 10 -30.5s3 -23 3 -35c0 -22.667 -2 -44.834 -6 -66.501s-8.33301 -38.834 -13 -51.501h2c15.333 0 30.333 3.5 45 10.5s28.334 16 41.001 27
s24.5 22.833 35.5 35.5s20.5 25 28.5 37z" />
    <glyph glyph-name="p" unicode="p" horiz-adv-x="367" 
d="M367 257c3.33301 5.33301 6.99707 7.99512 10.9971 7.99512c2.66699 0 5.16699 -0.833008 7.5 -2.5s3.5 -4.16699 3.5 -7.5c0 -0.666992 -0.166992 -1.33398 -0.5 -2.00098s-0.5 -1.66699 -0.5 -3c-19.333 -52 -44.5 -92.667 -75.5 -122s-71.167 -45.666 -120.5 -48.999
c-14 -17.333 -29.5 -31.166 -46.5 -41.499s-35.167 -15.5 -54.5 -15.5c-13.333 0 -24 3.83301 -32 11.5s-12 16.5 -12 26.5c0 8 1.83301 14.667 5.5 20s8.33398 9.83301 14.001 13.5s11.834 6.33398 18.501 8.00098s13 2.5 19 2.5h10.5c3.66699 0 7.16699 -0.333008 10.5 -1
c2.66699 0 5.83398 -0.166992 9.50098 -0.5s6.83398 -0.5 9.50098 -0.5c8 12 15.167 24.833 21.5 38.5s11.833 27.834 16.5 42.501s8.16699 28.834 10.5 42.501s3.5 26.5 3.5 38.5c0 16.667 -2.5 30.5 -7.5 41.5s-12.167 16.5 -21.5 16.5c-4 0 -10.333 -2 -19 -6
s-18.167 -10.167 -28.5 -18.5s-20.833 -18.833 -31.5 -31.5s-19.667 -27.334 -27 -44.001l-7 -64c-4 -42.667 -9 -89.167 -15 -139.5s-13.5 -100.166 -22.5 -149.499s-20 -96 -33 -140s-29.167 -81 -48.5 -111c-12.667 -20 -25.5 -34.5 -38.5 -43.5s-25.5 -13.5 -37.5 -13.5
c-17.333 0 -31.333 8.5 -42 25.5s-16 40.5 -16 70.5c0 18 3.33301 38.333 10 61s16.667 46.834 30 72.501s30.5 52.334 51.5 80.001s45.833 55.167 74.5 82.5c4 27.333 7.33301 54.5 10 81.5l8 81.5c2.66699 23.333 5 46.833 7 70.5s4.66699 47.167 8 70.5
c1.33301 11.333 2.83301 22.5 4.5 33.5s3.5 22.167 5.5 33.5c1.33301 6 5.66602 9 12.999 9h50c2 0 3 -1 3 -3l-10 -59c7.33301 9.33301 15.5 18.666 24.5 27.999s18.833 17.833 29.5 25.5s21.834 13.834 33.501 18.501s23.5 7 35.5 7
c27.333 0 46.166 -8.16699 56.499 -24.5s15.5 -35.5 15.5 -57.5c0 -14.667 -1.66699 -29.834 -5 -45.501s-7.5 -31 -12.5 -46s-10.5 -29 -16.5 -42s-11.667 -23.5 -17 -31.5c41.333 5.33301 73.5 21.333 96.5 48s43.167 62 60.5 106zM78.9971 49.9951
c6 0 13.668 3.33301 23.001 10s17.666 14 24.999 22c-3.33301 0 -6.33301 0.166992 -9 0.5s-5.66699 0.5 -9 0.5c-9.33301 0 -18 -1.83301 -26 -5.5s-12 -10.167 -12 -19.5c0 -5.33301 2.66699 -8 8 -8zM-114.002 -356.005c9.33301 18 18.001 38.501 26.001 61.501
s15 46.833 21 71.5s11.5 49.167 16.5 73.5s9.16699 46.833 12.5 67.5c-45.333 -44.667 -80 -90.334 -104 -137.001s-36 -91 -36 -133c0 -33.333 6.33301 -50 19 -50c6 0 13.167 4.16699 21.5 12.5s16.166 19.5 23.499 33.5z" />
    <glyph glyph-name="q" unicode="q" horiz-adv-x="372" 
d="M372 257c2 5.33301 4.99902 7.99805 8.99902 7.99805c2.66699 0 5.16699 -0.833008 7.5 -2.5s3.5 -4.16699 3.5 -7.5c0 -2 -0.333008 -3.33301 -1 -4c-13.333 -38 -27.833 -71.667 -43.5 -101s-31.667 -55 -48 -77s-32.5 -40.833 -48.5 -56.5s-31 -28.5 -45 -38.5l-3 -48
c1.33301 -1.33301 5.33301 -6.5 12 -15.5s13.667 -20.167 21 -33.5s14 -28.5 20 -45.5s9 -34.5 9 -52.5c0 -25.333 -5.33301 -44.833 -16 -58.5s-23.334 -20.5 -38.001 -20.5c-19.333 0 -36 12.833 -50 38.5s-21 68.834 -21 129.501c0 25.333 1 52.5 3 81.5
s4.5 58.167 7.5 87.5s6.16699 57.833 9.5 85.5s6.66602 52.834 9.99902 75.501l-21 -38c-8 -14 -17 -27 -27 -39s-20.833 -22 -32.5 -30s-24.167 -12 -37.5 -12c-23.333 0 -40 9.33301 -50 28s-15 41 -15 67c0 26.667 4.33301 53 13 79c5.33301 17.333 12.5 34 21.5 50
s19.5 30 31.5 42s25.333 21.667 40 29s30.667 11 48 11c6.66699 0 14.5 -1.16699 23.5 -3.5s17.5 -6 25.5 -11s14.667 -11 20 -18s8 -14.833 8 -23.5c0 -3.33301 -1.16699 -5.83301 -3.5 -7.5s-4.83301 -2.5 -7.5 -2.5c-4 0 -7.33301 2.66699 -10 8
c-7.33301 18.667 -19.666 28 -36.999 28s-32.833 -7 -46.5 -21s-25.167 -31.167 -34.5 -51.5s-16.666 -42 -21.999 -65s-8 -43.833 -8 -62.5c0 -13.333 1.5 -24.333 4.5 -33s7.16699 -13 12.5 -13c10.667 0 25.334 11.667 44.001 35s42 64.333 70 123v-1l6 42
c1.33301 4.66699 5 7 11 7h48c2 0 3 -1 3 -3c-4 -24 -7.5 -46.667 -10.5 -68l-9 -67c-3 -23.333 -6 -49 -9 -77l-10.5 -98c28 22.667 56.333 54.167 85 94.5s54.667 92.5 78 156.5zM201.999 -113.002c0 -3.33301 -0.166992 -6.83301 -0.5 -10.5s-0.5 -7.5 -0.5 -11.5
c0 -12.667 0.666992 -26.167 2 -40.5s3.16602 -27.666 5.49902 -39.999s5.33301 -22.5 9 -30.5s8.16699 -12 13.5 -12c2.66699 0 5.33398 3 8.00098 9s4 16.667 4 32c0 17.333 -3.83301 35.666 -11.5 54.999s-17.5 38 -29.5 56v-7z" />
    <glyph glyph-name="r" unicode="r" horiz-adv-x="287" 
d="M11 336c0 -7.33301 0.667969 -14.5 2.00098 -21.5s3.66602 -12.5 6.99902 -16.5c4 17.333 7.16699 31.5 9.5 42.5s3.5 20.167 3.5 27.5c0 10 -1.66699 15 -5 15c-5.33301 0 -9.5 -4.83301 -12.5 -14.5s-4.5 -20.5 -4.5 -32.5zM287.001 257
c0.666992 2.66699 2.16504 4.83691 4.49805 6.50391s4.5 2.5 6.5 2.5c2.66699 0 5.16699 -1 7.5 -3s3.5 -4.66699 3.5 -8c0 -0.666992 -0.166992 -1.33398 -0.5 -2.00098s-0.5 -1.33398 -0.5 -2.00098c-18 -52.667 -35.5 -97.334 -52.5 -134.001s-33 -66.5 -48 -89.5
s-29 -39.667 -42 -50s-24.833 -15.5 -35.5 -15.5c-11.333 0 -20.666 3.33301 -27.999 10s-13.166 15.5 -17.499 26.5s-7.5 24 -9.5 39s-3 30.5 -3 46.5c0 27.333 2 55.333 6 84s8.33301 52.334 13 71.001c-38 0 -68.333 6 -91 18c-31.333 16 -47 43 -47 81
c0 24.667 6 45.334 18 62.001s26.333 25 43 25c14.667 0 25.167 -5.83301 31.5 -17.5s9.5 -24.834 9.5 -39.501c0 -15.333 -2 -30.5 -6 -45.5s-7.66699 -27.167 -11 -36.5c-0.666992 -0.666992 -1.16699 -1.83398 -1.5 -3.50098s-0.5 -2.83398 -0.5 -3.50098
c6 -5.33301 13 -9.33301 21 -12s15.667 -4 23 -4c2 0 4.33301 0.166992 7 0.5s5.66699 0.833008 9 1.5c5.33301 1.33301 11.333 2.33301 18 3s12.667 1 18 1c7.33301 0 13.166 -0.833008 17.499 -2.5s6.5 -5.16699 6.5 -10.5c0 -0.666992 -0.166992 -1.5 -0.5 -2.5
s-0.5 -2.16699 -0.5 -3.5c-10 -40 -17.333 -75.5 -22 -106.5s-7 -57.167 -7 -78.5c0 -40 7 -60 21 -60c12.667 0 31.334 20 56.001 60s52.667 104 84 192z" />
    <glyph glyph-name="s" unicode="s" horiz-adv-x="275" 
d="M118 265c-2.66699 -2.66699 -5.33301 -3.99805 -8 -3.99805c-3.33301 0 -5.83301 1.16699 -7.5 3.5s-2.5 4.5 -2.5 6.5l23 43c8 15.333 12 30.666 12 45.999c0 6.66699 -1.83301 13 -5.5 19s-10.167 9 -19.5 9c-14 0 -27 -9 -39 -27s-18 -40.667 -18 -68
c0 -14 2.16699 -28.5 6.5 -43.5s12.166 -29.833 23.499 -44.5l3 -4c8 -10.667 15.833 -21.834 23.5 -33.501l20.5 -31.5c30 13.333 56.833 28.833 80.5 46.5s43.167 42.167 58.5 73.5c3.33301 5.33301 7 8 11 8c2 0 4.33301 -1 7 -3s4 -4.66699 4 -8
c0 -2 -0.333008 -3.33301 -1 -4c-16.667 -35.333 -38 -62.833 -64 -82.5s-54.667 -36.167 -86 -49.5c4 -11.333 6 -22.666 6 -33.999s-2 -22.5 -6 -33.5s-9.66699 -21 -17 -30s-16.166 -16.167 -26.499 -21.5s-21.5 -8 -33.5 -8c-13.333 0 -24.333 4.33301 -33 13
s-13 19.667 -13 33c0 12 4.5 24.833 13.5 38.5s25.167 26.834 48.5 39.501c-5.33301 10 -10.833 19 -16.5 27l-16.5 24c-9.33301 13.333 -18.333 27.166 -27 41.499s-15 31.166 -19 50.499c-2.66699 10.667 -4 23.667 -4 39c0 20.667 3.16699 38.5 9.5 53.5
s14.333 27.5 24 37.5s20.5 17.5 32.5 22.5s23.667 7.5 35 7.5c16.667 0 31.167 -4.83301 43.5 -14.5s18.5 -24.167 18.5 -43.5c0 -12 -3 -25.833 -9 -41.5s-16.667 -33.167 -32 -52.5zM87.001 81.002c0 2 -0.166992 4 -0.5 6s-0.5 4 -0.5 6
c-12 -6.66699 -23 -14.667 -33 -24s-15 -19.333 -15 -30c0 -8.66699 3.66699 -13 11 -13s15.5 5.16699 24.5 15.5s13.5 23.5 13.5 39.5z" />
    <glyph glyph-name="t" unicode="t" horiz-adv-x="190" 
d="M190 257c2 4.66699 4.99414 7.00195 8.99414 7.00195c2.66699 0 5.33398 -0.833008 8.00098 -2.5s4 -4.16699 4 -7.5c0 -0.666992 -0.166992 -1.33398 -0.5 -2.00098s-0.5 -1.33398 -0.5 -2.00098c-11.333 -28 -23.833 -56.833 -37.5 -86.5s-27.667 -56.667 -42 -81
s-29 -44.333 -44 -60s-29.5 -23.5 -43.5 -23.5c-9.33301 0 -17.166 3.5 -23.499 10.5s-11.5 16.833 -15.5 29.5s-6.83301 27.334 -8.5 44.001s-2.5 35 -2.5 55c0 18.667 0.666992 38 2 58s3 40.333 5 61c2.66699 26.667 5.66699 53.167 9 79.5
s6.66602 50.666 9.99902 72.999s6.5 42.166 9.5 59.499s5.5 30.666 7.5 39.999c-11.333 1.33301 -22 2.5 -32 3.5s-20 1.5 -30 1.5c-20 0 -37.833 -3.33301 -53.5 -10s-28.167 -19 -37.5 -37c-2 -4 -5.33301 -6 -10 -6c-7.33301 0 -11 3.33301 -11 10
c0 2 0.333008 3.66699 1 5c11.333 23.333 26.333 39.333 45 48s39.667 13 63 13c10.667 0 21.667 -0.666992 33 -2s23 -3 35 -5l2 8c0.666992 2.66699 1.33398 5.66699 2.00098 9l4.5 26c1.66699 9.33301 3.5 18 5.5 26s4.16699 14.667 6.5 20s4.83301 8 7.5 8h48
c2 0 3 -0.666992 3 -2l-20 -106c14 -1.33301 34.333 -2.66602 61 -3.99902s54.334 -1.33301 83.001 0s55.667 5.16602 81 11.499s43.333 17.166 54 32.499c2.66699 2.66699 5.33398 4 8.00098 4c4 0 7 -1.16699 9 -3.5s3 -4.83301 3 -7.5c0 -2 -1 -4 -3 -6
c-8.66699 -11.333 -20.5 -20.5 -35.5 -27.5s-31.667 -12.5 -50 -16.5s-37.666 -6.66699 -57.999 -8s-40.166 -2 -59.499 -2s-37.333 0.666992 -54 2s-30.334 2.33301 -41.001 3c0 -2 -0.333008 -3.66699 -1 -5v1l-6 -36.5l-9.5 -56.5
c-3.66699 -21.333 -7.16699 -44.666 -10.5 -69.999s-6.5 -50.666 -9.5 -75.999s-5.5 -50 -7.5 -74s-3 -45.667 -3 -65c0 -21.333 1.33301 -38.666 4 -51.999s7.33398 -20 14.001 -20c5.33301 0 12.333 5.16699 21 15.5s18.5 24.833 29.5 43.5s22.667 41.167 35 67.5
s24.833 55.5 37.5 87.5z" />
    <glyph glyph-name="u" unicode="u" horiz-adv-x="348" 
d="M70 326l-6.50293 -45.5029c-2.33301 -17 -4.33301 -34.5 -6 -52.5s-3.16699 -36 -4.5 -54s-2 -34.667 -2 -50c0 -18 1 -32.833 3 -44.5s5.66699 -17.5 11 -17.5c8 0 16.5 6.83301 25.5 20.5s17.833 29.834 26.5 48.501s16.834 38 24.501 58l18.5 49l7 17
c0 4.66699 0.666992 10.667 2 18s2.83301 14.333 4.5 21s3.66699 12.334 6 17.001s4.83301 7 7.5 7h48c2 0 3 -1.33301 3 -4c-1.33301 -5.33301 -3.16602 -15.833 -5.49902 -31.5s-4.83301 -34 -7.5 -55s-5 -43 -7 -66s-3 -43.833 -3 -62.5c0 -17.333 1 -31.666 3 -42.999
s5.66699 -17 11 -17c6 0 14 7.33301 24 22s20.5 32.834 31.5 54.501s22.167 45.167 33.5 70.5s21.333 49 30 71c2.66699 4.66699 7 6.83398 13 6.50098s9 -3.5 9 -9.5c0 -2 -0.333008 -3.33301 -1 -4c-35.333 -88 -65.166 -151.667 -89.499 -191s-47.833 -59 -70.5 -59
c-11.333 0 -20.5 3.66699 -27.5 11s-12.5 16.833 -16.5 28.5s-6.66699 24.834 -8 39.501s-2 29 -2 43v20.5c0 7 0.333008 13.833 1 20.5c-5.33301 -14 -11.833 -28.833 -19.5 -44.5s-16.167 -30.334 -25.5 -44.001s-19.833 -24.834 -31.5 -33.501s-24.167 -13 -37.5 -13
c-19.333 0 -32.5 10 -39.5 30s-10.5 45 -10.5 75c0 11.333 0.666992 28.666 2 51.999s3.33301 47.333 6 72c1.33301 12 2.83301 23.833 4.5 35.5s3.5 22.5 5.5 32.5c11.333 2 21.833 3 31.5 3s19.167 -0.666992 28.5 -2z" />
    <glyph glyph-name="v" unicode="v" horiz-adv-x="335" 
d="M335 257c3.33301 4.66699 7.3291 7.00293 11.9961 7.00293c2.66699 0 5.16699 -0.833008 7.5 -2.5s3.5 -4.16699 3.5 -7.5c0 -2.66699 -0.333008 -4.66699 -1 -6c-7.33301 -12.667 -16.166 -26.167 -26.499 -40.5s-21.666 -27.5 -33.999 -39.5s-25.333 -22 -39 -30
s-27.5 -12 -41.5 -12c-7.33301 0 -14.833 1.16699 -22.5 3.5s-15.167 7.16602 -22.5 14.499c-7.33301 -16.667 -15.5 -33.5 -24.5 -50.5s-18.5 -32.5 -28.5 -46.5s-20.667 -25.333 -32 -34s-23.333 -13 -36 -13c-14 0 -25 4.66699 -33 14s-14 20.666 -18 33.999
s-6.5 27.5 -7.5 42.5s-1.5 28.167 -1.5 39.5c0 16.667 0.833008 36.334 2.5 59.001s4.16699 45.334 7.5 68.001c2 15.333 4.33301 30.166 7 44.499s5.33398 27 8.00098 38s5.33398 19.667 8.00098 26s5.33398 9.5 8.00098 9.5h49c3.33301 0 4.33301 -1.33301 3 -4
c-4 -16 -8 -34 -12 -54s-7.5 -40.833 -10.5 -62.5s-5.33301 -43.667 -7 -66s-2.5 -43.833 -2.5 -64.5c0 -32 1.83301 -54.5 5.5 -67.5s8.5 -19.5 14.5 -19.5c5.33301 0 11.666 4 18.999 12s14.666 18.167 21.999 30.5s14.833 26 22.5 41l21.5 42.5
c-8.66699 12.667 -14.667 26.334 -18 41.001s-5 30 -5 46c0 20.667 2.33301 39.334 7 56.001s10.5 30.667 17.5 42s14.5 20.166 22.5 26.499s15.667 9.5 23 9.5c8.66699 0 15.834 -4 21.501 -12s8.5 -19.667 8.5 -35c0 -12.667 -1.83301 -26.834 -5.5 -42.501
s-8.16699 -31.334 -13.5 -47.001s-11 -30.834 -17 -45.501s-11.333 -27 -16 -37c11.333 -11.333 23.333 -17 36 -17c12 0 24 4.16699 36 12.5s23.333 18.333 34 30s20.167 23.667 28.5 36s14.833 22.5 19.5 30.5zM154.996 254.003c0 -12.667 1 -24.667 3 -36
s5 -21.333 9 -30c4 8.66699 8.5 19.167 13.5 31.5s10 25.5 15 39.5s9.16699 27.833 12.5 41.5s5 25.834 5 36.501c0 8 -1 14.5 -3 19.5s-4.66699 7.5 -8 7.5c-7.33301 0 -13.833 -3.83301 -19.5 -11.5s-10.5 -17 -14.5 -28s-7.16699 -22.833 -9.5 -35.5
s-3.5 -24.334 -3.5 -35.001z" />
    <glyph glyph-name="w" unicode="w" horiz-adv-x="506" 
d="M250 350c-2.66699 -12.667 -5.50488 -28.8311 -8.50488 -48.498s-5.83301 -40.667 -8.5 -63s-5 -45 -7 -68s-3 -44.167 -3 -63.5c0 -21.333 1.33301 -39 4 -53s7.66699 -21 15 -21c6.66699 0 18 10.833 34 32.5s33 53.834 51 96.501c-15.333 24 -23 51.667 -23 83
c0 23.333 2.33301 43.666 7 60.999s10.334 31.666 17.001 42.999s14 19.833 22 25.5s15.667 8.5 23 8.5c9.33301 0 17 -3.83301 23 -11.5s9 -19.167 9 -34.5c0 -12 -1.83301 -25.5 -5.5 -40.5s-8.16699 -30.167 -13.5 -45.5s-10.833 -30 -16.5 -44s-10.834 -26 -15.501 -36
l-3 -7c10.667 -12 23 -18 37 -18c11.333 0 22.833 3.66699 34.5 11s22.667 16.666 33 27.999s19.833 23.333 28.5 36s16 24.667 22 36c2.66699 4.66699 6.33398 7 11.001 7c3.33301 0 6 -1.16699 8 -3.5s3 -4.83301 3 -7.5s-0.666992 -4.66699 -2 -6
c-9.33301 -15.333 -19.166 -30.333 -29.499 -45s-21.333 -27.667 -33 -39s-24 -20.5 -37 -27.5s-26.167 -10.5 -39.5 -10.5c-8.66699 0 -16.667 1 -24 3s-14.333 6.66699 -21 14c-7.33301 -16 -15.666 -32.333 -24.999 -49s-19.333 -32 -30 -46s-21.667 -25.333 -33 -34
s-22.666 -13 -33.999 -13c-12 0 -21.667 3.66699 -29 11s-13.333 17 -18 29s-7.83398 25.667 -9.50098 41s-2.5 31 -2.5 47c0 16.667 0.666992 33 2 49s2.66602 30 3.99902 42c-29.333 -74 -55.166 -127.667 -77.499 -161s-41.833 -50 -58.5 -50
c-17.333 0 -29.166 10 -35.499 30s-9.5 44.333 -9.5 73c0 23.333 1.5 47.833 4.5 73.5s6.16699 49.834 9.5 72.501c3.33301 18 6.5 34 9.5 48l6.5 31c1.33301 3.33301 5 5.83301 11 7.5s12.667 2.5 20 2.5c3.33301 0 6.66602 -0.166992 9.99902 -0.5
s6.66602 -0.5 9.99902 -0.5h9c2 0 3 -1.33301 3 -4c-1.33301 -6.66699 -3.83301 -20 -7.5 -40s-7.5 -42.5 -11.5 -67.5s-7.5 -50.333 -10.5 -76s-4.5 -47.5 -4.5 -65.5c0 -12 0.666992 -21.667 2 -29s3.66602 -11 6.99902 -11c4.66699 0 11.334 6.66699 20.001 20
s18.834 32.5 30.501 57.5s24.334 55.5 38.001 91.5s27.834 77 42.501 123c4.66699 4 13.167 6.16699 25.5 6.5s25.5 0.166016 39.5 -0.500977zM338.995 192.003l13.501 32.501c5 12.333 9.83301 25.166 14.5 38.499s8.5 26.333 11.5 39s4.5 24 4.5 34
c0 7.33301 -1 13.666 -3 18.999s-4.66699 8 -8 8c-7.33301 0 -13.833 -3.83301 -19.5 -11.5s-10.5 -17.167 -14.5 -28.5s-7 -23.333 -9 -36s-3 -24.334 -3 -35.001c0 -11.333 1.16699 -22.666 3.5 -33.999s5.16602 -21.666 8.49902 -30.999z" />
    <glyph glyph-name="x" unicode="x" horiz-adv-x="354" 
d="M354 257c1.33301 6 4.66699 9.00684 10 9.00684c2 0 4.33301 -1 7 -3s4 -4.66699 4 -8c0 -0.666992 -0.166992 -1.33398 -0.5 -2.00098s-0.5 -1.33398 -0.5 -2.00098c-16 -45.333 -32.167 -83.333 -48.5 -114s-32.5 -55.5 -48.5 -74.5s-31.333 -32.667 -46 -41
s-28.667 -12.5 -42 -12.5c-16.667 0 -31.667 5.16699 -45 15.5s-26.666 24.166 -39.999 41.499l-33.5 -51.5l-32.5 -51.5c0 -0.666992 -1 -1 -3 -1h-43c-7.33301 0 -11 3.33301 -11 10c0 2.66699 1 5 3 7h-1l87 139c-6 9.33301 -12.167 20.666 -18.5 33.999l-18.5 39
l-16 32.5l-17 33.5c-12 23.333 -24.5 45.166 -37.5 65.499s-26.167 36.5 -39.5 48.5c-2.66699 2.66699 -4 5 -4 7c0 7.33301 5.33301 11 16 11c14 0 28 -5.66699 42 -17s27.667 -26.333 41 -45s26.666 -39.834 39.999 -63.501l40 -71.5l9 -18l84 134
c2.66699 3.33301 9.33398 5.16602 20.001 5.49902s20.667 0.166016 30 -0.500977h13c3.33301 0 4.33301 -1.66699 3 -5l-120 -187c15.333 -25.333 28.5 -43.666 39.5 -54.999s22.167 -17.666 33.5 -18.999c14.667 2.66699 29 11.5 43 26.5s27.333 32.833 40 53.5
s24.167 42.667 34.5 66s19.166 44.666 26.499 63.999z" />
    <glyph glyph-name="y" unicode="y" horiz-adv-x="400" 
d="M79 334l-8.50391 -43.498c-3 -15.667 -5.66699 -31.834 -8 -48.501s-4.16602 -33.167 -5.49902 -49.5s-2 -31.5 -2 -45.5c0 -16.667 1.33301 -30.5 4 -41.5s7.33398 -16.5 14.001 -16.5c11.333 0 29.833 17.833 55.5 53.5s53.834 90.5 84.501 164.5c1.33301 2 3 4 5 6
s4.33301 3 7 3h48c2 0 3 -1 3 -3l-12 -124l-4 -51c-1.33301 -16.667 -3 -33.334 -5 -50.001c16 12 31.167 24 45.5 36s27.833 24.5 40.5 37.5s24 27.333 34 43s18.333 33.167 25 52.5c0.666992 2.66699 2.16699 4.83398 4.5 6.50098s4.5 2.5 6.5 2.5
c2.66699 0 5.16699 -0.833008 7.5 -2.5s3.5 -4.16699 3.5 -7.5c0 -2.66699 -0.333008 -4.33398 -1 -5.00098c-7.33301 -20 -16.666 -38.5 -27.999 -55.5s-23.666 -32.833 -36.999 -47.5s-27.666 -28.5 -42.999 -41.5l-46 -37.5c1.33301 1.33301 -0.166992 0.333008 -4.5 -3
l-10.5 -8c-5.33301 -53.333 -12.333 -107.5 -21 -162.5s-19.834 -105.167 -33.501 -150.5s-30.667 -82.333 -51 -111s-44.5 -43 -72.5 -43c-24 0 -40.5 8.5 -49.5 25.5s-13.5 37.167 -13.5 60.5c0 32 4.83301 64.833 14.5 98.5s22.667 66.167 39 97.5
s35.166 60.833 56.499 88.5s44 51.167 68 70.5l10 107c0.666992 10 1.33398 19 2.00098 27s1.5 15.667 2.5 23s1.83301 15 2.5 23s1.33398 16.667 2.00098 26c-7.33301 -15.333 -16.5 -33.5 -27.5 -54.5s-23.333 -41 -37 -60s-28.334 -35.167 -44.001 -48.5
s-31.834 -20 -48.501 -20c-10.667 0 -19.667 3 -27 9s-13.166 14.167 -17.499 24.5s-7.5 22.333 -9.5 36s-3 28.5 -3 44.5c0 30.667 2 60 6 88c2 14.667 4.16699 28.5 6.5 41.5s5.16602 24.833 8.49902 35.5c4 2.66699 10.833 4.16699 20.5 4.5s24.167 -1.16699 43.5 -4.5z
M190.996 6.00195l-6 -6c0 3.33301 0.333008 6 1 8zM58.9961 -376.998c12 0 24.168 9.66699 36.501 29s24.166 46 35.499 80s21.666 74 30.999 120s17 95.333 23 148c-18 -17.333 -36 -37.666 -54 -60.999s-34.167 -48.833 -48.5 -76.5s-26.166 -57 -35.499 -88
s-14 -62.5 -14 -94.5c0 -18.667 2.5 -32.834 7.5 -42.501s11.167 -14.5 18.5 -14.5z" />
    <glyph glyph-name="z" unicode="z" horiz-adv-x="276" 
d="M21 250c-1.33301 -2.66699 -3.3291 -4.33008 -5.99609 -4.99707s-5.5 -0.833984 -8.5 -0.500977s-5.33301 1.66602 -7 3.99902s-1.5 5.16602 0.5 8.49902c6 17.333 13.333 34 22 50s18.167 30 28.5 42s21.166 21.667 32.499 29s22.666 11 33.999 11
c16.667 0 30.5 -5.66699 41.5 -17s16.5 -27 16.5 -47c0 -16.667 -4.66699 -35.334 -14 -56.001s-25 -42.667 -47 -66c17.333 -1.33301 30.833 -7.5 40.5 -18.5s17.5 -24.5 23.5 -40.5c20.667 16.667 39.834 34.334 57.501 53.001s31.167 38.667 40.5 60
c3.33301 5.33301 7 8 11 8c2.66699 0 5.16699 -1.16699 7.5 -3.5s3.5 -5.16602 3.5 -8.49902c0 -0.666992 -0.166992 -1.33398 -0.5 -2.00098s-0.5 -1.33398 -0.5 -2.00098c-11.333 -24 -27 -46.5 -47 -67.5s-42.333 -40.5 -67 -58.5c1.33301 -8 2.5 -16 3.5 -24
s1.5 -16.667 1.5 -26c0 -32 -5.16699 -64.667 -15.5 -98s-24.333 -63.833 -42 -91.5s-38.334 -50.334 -62.001 -68.001s-48.5 -26.5 -74.5 -26.5c-26.667 0 -46.334 8.83301 -59.001 26.5s-19 38.5 -19 62.5c0 22.667 5.66699 44 17 64s25.833 38.833 43.5 56.5
s37 34.167 58 49.5s41.5 29 61.5 41c4.66699 3.33301 9.66699 6.33301 15 9s10.333 5.66699 15 9c-1.33301 8.66699 -3.5 17.334 -6.5 26.001s-6.66699 16.5 -11 23.5s-9.5 12.667 -15.5 17s-13 6.5 -21 6.5c-2 0 -5 -0.666992 -9 -2
c-2 -0.666992 -3.5 -1.33398 -4.5 -2.00098s-4.16699 -1 -9.5 -1c-3.33301 0 -6.5 1.83301 -9.5 5.5s-4.5 6.5 -4.5 8.5c0 3.33301 1.16699 6 3.5 8s4.5 4 6.5 6l4 4c23.333 22.667 39.666 44.834 48.999 66.501s14 40.167 14 55.5c0 18.667 -5 28 -15 28
c-4 0 -9.16699 -2.83301 -15.5 -8.5s-13.333 -13.167 -21 -22.5s-15 -20.666 -22 -33.999s-12.833 -27.333 -17.5 -42zM90.0039 57.0039l-53.998 -37.001c-18 -12.667 -34.167 -26.167 -48.5 -40.5s-26 -29.666 -35 -45.999s-13.5 -33.833 -13.5 -52.5
c0 -16.667 4.16699 -30.5 12.5 -41.5s19.166 -16.5 32.499 -16.5c12.667 0 24.667 4.33301 36 13c17.333 12 32.666 27.5 45.999 46.5s24.5 39.333 33.5 61s15.833 44 20.5 67s7 44.5 7 64.5v9z" />
    <glyph glyph-name="braceleft" unicode="{" horiz-adv-x="211" 
d="M186 -35c2.66699 -0.666992 4.66504 -2.16602 5.99805 -4.49902s2 -4.5 2 -6.5c0 -3.33301 -1.5 -5.83301 -4.5 -7.5s-6.5 -3 -10.5 -4s-8 -1.5 -12 -1.5h-10c-18 0 -32.167 3.66699 -42.5 11s-18.166 17.166 -23.499 29.499s-8.66602 26.833 -9.99902 43.5
s-2 34.334 -2 53.001v27c0 4.66699 0.166992 9.33398 0.5 14.001s0.5 9.33398 0.5 14.001c0 30.667 -2.5 60.167 -7.5 88.5s-16.833 50.833 -35.5 67.5c-2 2 -2 3 0 3c12 9.33301 22.167 21.166 30.5 35.499s15.166 29.833 20.499 46.5s9.66602 34.167 12.999 52.5
s6.33301 36.166 9 53.499c2.66699 20.667 5.83398 40.667 9.50098 60s8.83398 36.5 15.501 51.5s15.5 27 26.5 36s25.167 13.5 42.5 13.5c2.66699 0 6.33398 -0.166992 11.001 -0.5s9.33398 -1 14.001 -2s8.66699 -2.5 12 -4.5s5 -4.66699 5 -8
c0 -4.66699 -2.33301 -8 -7 -10c-12.667 -4 -23 -10.833 -31 -20.5s-14.5 -21 -19.5 -34s-8.83301 -27.5 -11.5 -43.5s-5 -32.333 -7 -49s-4.16699 -33.334 -6.5 -50.001s-5.83301 -32.667 -10.5 -48s-10.5 -30 -17.5 -44s-16.5 -26.333 -28.5 -37
c15.333 -17.333 25.166 -37.333 29.499 -60s6.5 -46.667 6.5 -72v-24.5c0 -8.33301 -0.333008 -16.5 -1 -24.5c0 -6 -0.166992 -13.833 -0.5 -23.5s-0.5 -17.167 -0.5 -22.5c0 -24 2.66699 -45 8 -63s17.666 -29.667 36.999 -35z" />
    <glyph glyph-name="bar" unicode="|" horiz-adv-x="181" 
d="M59 599c0 7.33301 2.33301 13.333 7 18s10.667 7 18 7c6.66699 0 12.167 -2.33301 16.5 -7s6.5 -10.667 6.5 -18v-637c0 -7.33301 -2.16699 -13.166 -6.5 -17.499s-9.83301 -6.5 -16.5 -6.5c-7.33301 0 -13.333 2.16699 -18 6.5s-7 10.166 -7 17.499v637z" />
    <glyph glyph-name="braceright" unicode="}" horiz-adv-x="192" 
d="M7 619c-5.33301 1.33301 -7.99609 4.66602 -7.99609 9.99902c0 3.33301 1.5 6 4.5 8s6.5 3.5 10.5 4.5s8 1.5 12 1.5h10c18 0 32.167 -3.66699 42.5 -11s18.166 -17.333 23.499 -30s8.66602 -27.334 9.99902 -44.001s2 -34.334 2 -53.001v-55
c0 -15.333 0.333008 -30.333 1 -45s2.5 -28.834 5.5 -42.501s7.33301 -26.167 13 -37.5s13.5 -21.333 23.5 -30c1.33301 -0.666992 2 -1.33398 2 -2.00098s-0.666992 -1 -2 -1c-12 -9.33301 -22.167 -21.166 -30.5 -35.499s-15.166 -29.833 -20.499 -46.5
s-9.5 -34.167 -12.5 -52.5l-8.5 -53.5c-3.33301 -20.667 -6.83301 -40.667 -10.5 -60s-8.83398 -36.5 -15.501 -51.5s-15.5 -27.167 -26.5 -36.5s-25.5 -14 -43.5 -14c-2.66699 0 -6.33398 0.166992 -11.001 0.5s-9.16699 1 -13.5 2s-8.16602 2.5 -11.499 4.5
s-5 4.66699 -5 8c0 4.66699 2.66699 8.33398 8 11.001c12 4 22 10.833 30 20.5s14.5 21 19.5 34s8.83301 27.333 11.5 43s5 31.834 7 48.501c2 16 4.16699 32.5 6.5 49.5s5.66602 33.333 9.99902 49s10.166 30.5 17.499 44.5s16.666 26.333 27.999 37
c-15.333 16.667 -25.166 36.334 -29.499 59.001s-6.5 46.334 -6.5 71.001c0 8 0.166992 16.167 0.5 24.5s0.833008 16.5 1.5 24.5s1 15.833 1 23.5v22.5c0 24 -2.83301 45.333 -8.5 64s-18.167 30.667 -37.5 36z" />
    <glyph glyph-name="asciitilde" unicode="~" horiz-adv-x="534" 
d="M486 256c-21.333 -24 -47.167 -40.332 -77.5 -48.999s-61.5 -13 -93.5 -13c-31.333 0 -57.166 2.66699 -77.499 8s-38.833 10.666 -55.5 15.999c-13.333 4.66699 -26 8.66699 -38 12s-25 5 -39 5c-9.33301 0 -18.833 -1.16699 -28.5 -3.5
s-19.834 -6.16602 -30.501 -11.499c-1.33301 -0.666992 -3 -1 -5 -1c-7.33301 0 -11 4 -11 12c0 2.66699 1.33301 5.33398 4 8.00098c20.667 22 40.334 37.667 59.001 47s36.667 14 54 14c13.333 0 25.333 -1.5 36 -4.5l35 -9.5c18.667 -6 40.5 -11.833 65.5 -17.5
s57.5 -8.5 97.5 -8.5c18.667 0 36 1.16699 52 3.5s29.667 6.16602 41 11.499l3 1c3.33301 0 6.16602 -1.33301 8.49902 -4s3.5 -5.33398 3.5 -8.00098c0 -3.33301 -1 -6 -3 -8z" />
    <glyph glyph-name="acute" unicode="&#xb4;" horiz-adv-x="295" 
d="M59 541c-12.667 12 -19 24.3311 -19 36.998c0 10.667 4.16699 20.5 12.5 29.5s19.166 16.833 32.499 23.5s28 11.834 44 15.501s32 5.5 48 5.5c6 0 13.167 -0.5 21.5 -1.5s16.333 -2.5 24 -4.5s14.167 -4.66699 19.5 -8s8 -7.33301 8 -12c0 -8 -3 -12 -9 -12h-6.5
c-2.33301 0 -4.16602 0.333008 -5.49902 1c-4 1.33301 -7 2 -9 2c-16.667 0 -32.167 -5.16699 -46.5 -15.5s-27.833 -21.5 -40.5 -33.5c-10 -9.33301 -19.5 -17.666 -28.5 -24.999s-17.833 -11 -26.5 -11c-6.66699 0 -13 3 -19 9z" />
    <glyph glyph-name="periodcentered" unicode="&#xb7;" horiz-adv-x="313" 
d="M233 580c14 -12 21 -24.998 21 -38.998c0 -10.667 -4.33301 -20.834 -13 -30.501s-20 -18.334 -34 -26.001s-29.333 -13.667 -46 -18s-33 -6.5 -49 -6.5c-5.33301 0 -11.666 0.5 -18.999 1.5s-14.5 2.5 -21.5 4.5s-13 4.5 -18 7.5s-7.5 6.5 -7.5 10.5
c0 7.33301 4.66699 11 14 11c6.66699 -1.33301 11 -2 13 -2c16.667 0 32.167 6.16699 46.5 18.5s27.5 24.5 39.5 36.5c9.33301 10.667 18.666 20 27.999 28s18.333 12 27 12c6.66699 0 13 -2.66699 19 -8z" />
    <glyph glyph-name="breve" unicode="&#x2d8;" horiz-adv-x="833" 
 />
    <glyph glyph-name="tilde" unicode="&#x2dc;" horiz-adv-x="303" 
d="M268 588c-13.333 -11.333 -26.335 -19.334 -39.002 -24.001s-25.667 -7 -39 -7c-14 0 -28 1.83301 -42 5.5s-27 8.16699 -39 13.5c-12 4.66699 -24.167 8.83398 -36.5 12.501s-23.833 5.5 -34.5 5.5h-5c-6 0 -9 2.66699 -9 8s3.16699 9.83301 9.5 13.5
s13.333 6.66699 21 9s15.167 4 22.5 5s12 1.5 14 1.5c12.667 0 25.334 -1.66699 38.001 -5s24.667 -7.33301 36 -12l36 -11c12.667 -4 24.334 -6 35.001 -6c2 0 6.33301 0.666992 13 2c2 0.666992 4 1.16699 6 1.5s4.66699 0.5 8 0.5c4.66699 0 7 -2.66699 7 -8
c0 -2 -0.666992 -3.66699 -2 -5z" />
    <glyph glyph-name="quoteleft" unicode="&#x2018;" horiz-adv-x="183" 
d="M80 414c-14.667 2.66699 -25.332 8.99707 -31.999 18.9971s-10 22 -10 36c0 12.667 3.16699 27.334 9.5 44.001s14.666 32.334 24.999 47.001s22.5 27 36.5 37s28.667 15 44 15c3.33301 0 6 -1.16699 8 -3.5s3 -4.83301 3 -7.5c0 -4 -2.66699 -7.66699 -8 -11
c-10.667 -5.33301 -21 -15.5 -31 -30.5s-17.667 -28.833 -23 -41.5c11.333 -4.66699 20 -11.667 26 -21s9 -19.666 9 -30.999c0 -13.333 -4.16699 -25.5 -12.5 -36.5s-19.833 -16.5 -34.5 -16.5c-4.66699 0 -8 0.333008 -10 1z" />
    <glyph glyph-name="quoteright" unicode="&#x2019;" horiz-adv-x="213" 
d="M107 613c18 0 31 -4.50391 39 -13.5039s12 -20.5 12 -34.5c0 -12.667 -3.66699 -27.667 -11 -45s-16.666 -33.666 -27.999 -48.999s-24.5 -28.5 -39.5 -39.5s-29.833 -16.5 -44.5 -16.5c-7.33301 0 -11 3.66699 -11 11c0 4 2.66699 7.66699 8 11
c5.33301 2.66699 10.666 6.83398 15.999 12.501s10.333 11.834 15 18.501s9 13.667 13 21l11 21c-12 4.66699 -21 11.334 -27 20.001s-9 18 -9 28c0 13.333 5 25.833 15 37.5s23.667 17.5 41 17.5z" />
    <glyph glyph-name="quotedblleft" unicode="&#x201c;" horiz-adv-x="331" 
d="M227 414c-18.667 0 -31.834 4.49902 -39.501 13.499s-11.5 20.5 -11.5 34.5c0 12.667 3.66699 27.667 11 45s16.833 33.833 28.5 49.5s24.834 28.834 39.501 39.501s29.334 16 44.001 16c3.33301 0 6 -1.16699 8 -3.5s3 -4.83301 3 -7.5c0 -4 -2.66699 -7.66699 -8 -11
c-10.667 -5.33301 -20.834 -15.5 -30.501 -30.5s-17.5 -28.833 -23.5 -41.5c11.333 -4.66699 20 -11.5 26 -20.5s9 -18.5 9 -28.5c0 -14 -5 -26.667 -15 -38s-23.667 -17 -41 -17zM89 413.999c-18.667 0 -31.835 4.50098 -39.502 13.501s-11.5 20.5 -11.5 34.5
c0 12.667 3.66699 27.667 11 45s16.833 33.833 28.5 49.5s24.834 28.834 39.501 39.501s29.334 16 44.001 16c3.33301 0 6 -1.16699 8 -3.5s3 -4.83301 3 -7.5c0 -4 -2.66699 -7.66699 -8 -11c-5.33301 -2.66699 -10.5 -6.83398 -15.5 -12.501
s-9.83301 -11.834 -14.5 -18.501s-9.16699 -13.667 -13.5 -21s-7.83301 -14 -10.5 -20c12 -4.66699 21 -11.5 27 -20.5s9 -18.5 9 -28.5c0 -14 -5 -26.667 -15 -38s-24 -17 -42 -17z" />
    <glyph glyph-name="quotedblright" unicode="&#x201d;" horiz-adv-x="326" 
d="M94 613c18 0 30.833 -4.50391 38.5 -13.5039s11.5 -20.5 11.5 -34.5c0 -12.667 -3.66699 -27.667 -11 -45s-16.666 -33.666 -27.999 -48.999s-24.5 -28.5 -39.5 -39.5s-29.833 -16.5 -44.5 -16.5c-6.66699 0 -10 3.66699 -10 11c0 3.33301 2.33301 7 7 11
c5.33301 2.66699 10.666 6.83398 15.999 12.501s10.333 11.834 15 18.501s9 13.667 13 21l11 21c-12 4.66699 -21 11.334 -27 20.001s-9 18 -9 28c0 13.333 5 25.833 15 37.5s24 17.5 42 17.5zM237 612.996c17.333 0 30 -4.50391 38 -13.5039s12 -20.5 12 -34.5
c0 -12.667 -3.66699 -27.667 -11 -45s-16.666 -33.666 -27.999 -48.999s-24.5 -28.5 -39.5 -39.5s-29.833 -16.5 -44.5 -16.5c-7.33301 0 -11 3.66699 -11 11c0 4 2.66699 7.66699 8 11c5.33301 2.66699 10.666 6.83398 15.999 12.501s10.333 11.834 15 18.501
s9 13.667 13 21l11 21c-12 4.66699 -21 11.334 -27 20.001s-9 18 -9 28c0 13.333 5 25.833 15 37.5s24 17.5 42 17.5z" />
    <glyph glyph-name="a.001" unicode="&#xe000;" horiz-adv-x="333" 
d="M335 260c2 4 5.00195 6.00195 9.00195 6.00195c2.66699 0 5.16699 -1.33301 7.5 -4s3.5 -6 3.5 -10c-18.667 -46 -35.334 -85 -50.001 -117s-28.334 -58 -41.001 -78s-24.667 -34.5 -36 -43.5s-23 -13.5 -35 -13.5c-10.667 0 -19.5 3.66699 -26.5 11
s-12.5 16.833 -16.5 28.5s-6.66699 24.667 -8 39s-2 28.5 -2 42.5v20c0 7.33301 0.333008 13.666 1 18.999c-17.333 -28.667 -35.666 -51.834 -54.999 -69.501s-39.333 -26.5 -60 -26.5c-20 0 -34.5 8 -43.5 24s-13.5 35.667 -13.5 59c0 20 3 41 9 63
c-39.333 -38.667 -84.333 -78 -135 -118s-104.5 -76.167 -161.5 -108.5s-116 -58.833 -177 -79.5s-121.5 -31 -181.5 -31c-36 0 -70.833 4 -104.5 12s-66.5 21 -98.5 39c-3.33301 1.33301 -5 5.33301 -5 12c0 4.66699 1.66699 9.33398 5 14.001s6.66602 7 9.99902 7
c2 0 3 -0.666992 3 -2l1 1c32 -17.333 64.5 -29.833 97.5 -37.5s66.5 -11.5 100.5 -11.5c62 0 124.667 11 188 33s124 50.167 182 84.5s112.333 72.333 163 114s94.667 82.167 132 121.5l-1 -1c6.66699 15.333 14.834 30 24.501 44s20 26.5 31 37.5s22.667 19.833 35 26.5
s25.166 10 38.499 10c18.667 0 34 -6.33301 46 -19c0.666992 4 1.66699 7.33301 3 10s4.33301 4 9 4h50c2 0 3 -1.33301 3 -4c-0.666992 -2 -2 -8.16699 -4 -18.5s-4.33301 -23.166 -7 -38.499s-5.5 -32.666 -8.5 -51.999s-5.66699 -38.833 -8 -58.5s-4.33301 -39 -6 -58
s-2.5 -36.167 -2.5 -51.5c0 -16 0.833008 -28.833 2.5 -38.5s5.16699 -14.5 10.5 -14.5s11.5 4.16699 18.5 12.5s14.333 19.166 22 32.499s15.5 28.166 23.5 44.499s15.5 32.666 22.5 48.999l19 46c5.66699 14.333 10.5 25.833 14.5 34.5zM165.002 328.002
c-0.666992 0 -1 0.333008 -1 1c0.666992 0 1 0.333008 1 1v-2zM147.002 214.002c4 38 9.66797 76.333 17.001 115c-8 15.333 -17.333 23 -28 23c-12.667 0 -25.667 -8.5 -39 -25.5s-25.333 -37.5 -36 -61.5s-19.334 -49 -26.001 -75s-10 -48 -10 -66
c0 -10 1.33301 -18 4 -24s6.66699 -9 12 -9c4.66699 0 11 3 19 9s16.833 14.333 26.5 25s19.667 23.5 30 38.5s20.5 31.833 30.5 50.5z" />
    <glyph glyph-name="b.001" unicode="&#xe001;" horiz-adv-x="358" 
d="M358 257c2 6 5.33008 9.00195 9.99707 9.00195c2.66699 0 5.16699 -1 7.5 -3s3.5 -5.66699 3.5 -11c-12.667 -46 -35.834 -83.5 -69.501 -112.5s-73.5 -50.167 -119.5 -63.5l-1 -1c-2.66699 -3.33301 -7.16699 -8.5 -13.5 -15.5s-14.166 -14.167 -23.499 -21.5
s-19.833 -13.666 -31.5 -18.999s-24.167 -8 -37.5 -8c-11.333 0 -19.666 2.83301 -24.999 8.5s-8 12.167 -8 19.5c0 8.66699 2.5 15.834 7.5 21.501s11.333 10.167 19 13.5s15.5 5.66602 23.5 6.99902s15 2.66602 21 3.99902h1c4 1.33301 7.33301 2 10 2
c8.66699 10 16.834 21.667 24.501 35s14.167 27 19.5 41s9.5 27.833 12.5 41.5s4.5 25.834 4.5 36.501c0 13.333 -2 24.166 -6 32.499s-10 12.5 -18 12.5c-12 0 -24.833 -7.33301 -38.5 -22s-26.667 -32.5 -39 -53.5s-23.166 -43.667 -32.499 -68
s-15.666 -45.833 -18.999 -64.5c-0.666992 -0.666992 -1.16699 -1.83398 -1.5 -3.50098s-0.5 -2.83398 -0.5 -3.50098c0 -2 -1 -3 -3 -3h-45c-7.33301 0 -11 4.66699 -11 14c4 24 7 47.167 9 69.5l6 66.5l3 40l2 26c-54.667 -32.667 -111.167 -58.167 -169.5 -76.5
s-117.5 -27.5 -177.5 -27.5c-41.333 0 -81 4.66699 -119 14s-75 24 -111 44c-6 4 -9 8.66699 -9 14s1.66699 10.333 5 15s6.33301 7 9 7c2 0 3 -1 3 -3l1 2c38 -20.667 76.5 -35.667 115.5 -45s78.5 -14 118.5 -14c56.667 0 113.5 8.83301 170.5 26.5
s112.5 42.167 166.5 73.5c3.33301 37.333 7.33301 75.666 12 114.999s10.334 77.666 17.001 114.999s14.667 72.333 24 105s20.166 61.334 32.499 86.001s26.166 44.167 41.499 58.5s33 21.5 53 21.5c22.667 0 41.167 -11.167 55.5 -33.5s21.5 -55.166 21.5 -98.499
c0 -33.333 -5.33301 -66.333 -16 -99s-25 -64.5 -43 -95.5s-38.667 -60.333 -62 -88s-48 -52.834 -74 -75.501c-2 -25.333 -4.16699 -48.666 -6.5 -69.999s-4.5 -45 -6.5 -71c8.66699 18.667 18.5 36 29.5 52s22.667 29.833 35 41.5s25 20.667 38 27s25.833 9.5 38.5 9.5
c18 0 32.833 -6.33301 44.5 -19s17.5 -31.667 17.5 -57c0 -20.667 -3.83301 -42.667 -11.5 -66s-17.834 -45.333 -30.501 -66c38.667 13.333 69.334 31.5 92.001 54.5s40.667 55.167 54 96.5zM60.9971 350.002l5 4v-6zM194.997 785.002c-16 0 -30.834 -13.667 -44.501 -41
s-25.834 -62.166 -36.501 -104.499s-20 -88.833 -28 -139.5s-14.667 -99.334 -20 -146.001c26.667 22 50.834 46.833 72.501 74.5s39.834 56.167 54.501 85.5s26 58.5 34 87.5s12 56.167 12 81.5c0 32 -4.33301 57 -13 75s-19 27 -31 27zM115.996 62.002l-10 -2l8 7z
M71.9961 40.002c3.33301 0 8.5 2.49805 15.5 7.49805s13.167 9.16699 18.5 12.5c-7.33301 -1.33301 -14.833 -3.66602 -22.5 -6.99902s-11.5 -7.66602 -11.5 -12.999z" />
    <glyph glyph-name="c.001" unicode="&#xe002;" horiz-adv-x="231" 
d="M231 257c0.666992 2 2.33496 4.00293 5.00195 6.00293s5.33398 3 8.00098 3s5 -1.33301 7 -4s3 -5 3 -7c0 -0.666992 -0.166992 -1.33398 -0.5 -2.00098s-0.5 -1.33398 -0.5 -2.00098c-7.33301 -16 -19.5 -38 -36.5 -66s-36.5 -55.833 -58.5 -83.5
s-45.667 -51.5 -71 -71.5s-50 -30 -74 -30c-19.333 0 -33.333 8.33301 -42 25s-13 37.667 -13 63c0 18.667 2 38.667 6 60s9.33301 42.666 16 63.999c-39.333 -38.667 -84.5 -78.167 -135.5 -118.5s-105.167 -76.833 -162.5 -109.5s-116.666 -59.334 -177.999 -80.001
s-122.333 -31 -183 -31c-34.667 0 -68.834 4 -102.501 12s-66.5 21 -98.5 39c-3.33301 1.33301 -5 5.33301 -5 12c0 4.66699 1.66699 9.33398 5 14.001s6.66602 7 9.99902 7c2 0 3 -0.666992 3 -2l1 1c32 -17.333 64.333 -29.833 97 -37.5s66 -11.5 100 -11.5
c62.667 0 125.5 11 188.5 33s123.667 50.167 182 84.5s112.833 72.333 163.5 114s94.667 82.167 132 121.5l-1 -1c15.333 38 33 70 53 96s40.667 39 62 39c16.667 0 30.334 -7 41.001 -21s16 -31.667 16 -53c0 -3.33301 -0.5 -8.83301 -1.5 -16.5
s-2.66699 -15.334 -5 -23.001s-5.16602 -14.5 -8.49902 -20.5s-7.33301 -9 -12 -9c-6.66699 0 -10 3.66699 -10 11c0 2 0.333008 3.66699 1 5c8.66699 17.333 13 33.333 13 48c0 11.333 -1.83301 21.5 -5.5 30.5s-8.16699 13.5 -13.5 13.5
c-6.66699 0 -14.334 -5 -23.001 -15s-17.334 -23.167 -26.001 -39.5s-17.167 -34.833 -25.5 -55.5s-15.833 -41.667 -22.5 -63s-12 -42.166 -16 -62.499s-6 -38.166 -6 -53.499c0 -13.333 1.83301 -24 5.5 -32s9.16699 -12 16.5 -12c10 0 21.5 4.33301 34.5 13
s26.167 20 39.5 34s26.666 29.667 39.999 47s25.666 34.5 36.999 51.5s21.5 33.167 30.5 48.5s15.833 27.666 20.5 36.999z" />
    <glyph glyph-name="d.001" unicode="&#xe003;" horiz-adv-x="343" 
d="M344 260c2 4 5.33398 5.99707 10.001 5.99707c2.66699 0 5.16699 -0.833008 7.5 -2.5s3.5 -4.16699 3.5 -7.5c0 -2 -0.333008 -3.33301 -1 -4c-18 -45.333 -34.5 -83.833 -49.5 -115.5s-28.167 -57.167 -39.5 -76.5c-3.33301 -5.33301 -7.5 -11.5 -12.5 -18.5
s-10.5 -13.5 -16.5 -19.5s-12.667 -11.167 -20 -15.5s-15 -6.5 -23 -6.5c-11.333 0 -20.333 3.66699 -27 11s-11.834 16.833 -15.501 28.5s-6.16699 24.834 -7.5 39.501s-2 29 -2 43v20c0 6.66699 0.333008 13 1 19c-21.333 -32 -43 -56 -65 -72s-42 -24 -60 -24
c-16 0 -29.5 6.5 -40.5 19.5s-16.5 33.167 -16.5 60.5c0 11.333 0.666992 21.833 2 31.5s3.66602 20.834 6.99902 33.501c-26 -26 -54.667 -52.167 -86 -78.5s-64.666 -52 -99.999 -77s-72.166 -48.5 -110.499 -70.5s-77.5 -41.167 -117.5 -57.5s-80.333 -29.333 -121 -39
s-81 -14.5 -121 -14.5c-36 0 -70.667 4 -104 12s-66 21 -98 39c-3.33301 1.33301 -5 5.33301 -5 12c0 4.66699 1.5 9.33398 4.5 14.001s6.16699 7 9.5 7c2 0 3 -0.666992 3 -2l1 1c32 -17.333 64.5 -29.833 97.5 -37.5s66.5 -11.5 100.5 -11.5c62.667 0 125.5 11 188.5 33
s123.5 50 181.5 84s112.167 71.833 162.5 113.5s94.166 82.167 131.499 121.5c6.66699 15.333 14.667 30 24 44s19.5 26.5 30.5 37.5s22.833 19.833 35.5 26.5s25.667 10 39 10c17.333 0 33 -6 47 -18c5.33301 53.333 12.166 106.666 20.499 159.999s19.333 101.333 33 144
s30.5 77.334 50.5 104.001s44 40 72 40c12.667 0 23.334 -3 32.001 -9s15.5 -14 20.5 -24s8.5 -21.333 10.5 -34s3 -26 3 -40c0 -32 -5.33301 -65.5 -16 -100.5s-24.667 -69 -42 -102s-37 -64.167 -59 -93.5s-44.667 -54.666 -68 -75.999
c0 -2.66699 -0.666992 -7.33398 -2 -14.001l-5 -41.5c-2 -16.333 -3.83301 -34 -5.5 -53s-3.16699 -38.167 -4.5 -57.5s-2 -37.333 -2 -54c0 -19.333 1 -35.333 3 -48s6 -19 12 -19c6.66699 0 15 7.83301 25 23.5s20.5 34.5 31.5 56.5s21.5 44.833 31.5 68.5l26 59.5l4 8z
M304.001 706.997c-10.667 -24 -20.001 -51.498 -28.001 -82.498s-14.833 -62.167 -20.5 -93.5s-10.334 -61.5 -14.001 -90.5s-6.5 -53.833 -8.5 -74.5c-0.666992 -2 -1 -3.66699 -1 -5c24.667 24.667 46.834 51.667 66.501 81s36.5 59.166 50.5 89.499
s24.667 60.666 32 90.999s11 58.833 11 85.5c-1.33301 21.333 -4.66602 36.833 -9.99902 46.5s-11.666 14.5 -18.999 14.5c-20.667 0 -40.334 -20.667 -59.001 -62zM169 322.999l-1 1v1zM156 213.999l4.00098 36.5l4 36.5l4 37c-12 16 -23 24 -33 24
c-13.333 0 -26 -7.83301 -38 -23.5s-22.833 -34.667 -32.5 -57s-17.334 -45.833 -23.001 -70.5s-8.5 -45.667 -8.5 -63c0 -11.333 1.5 -20.333 4.5 -27s7.5 -10 13.5 -10c10.667 0 26 10.5 46 31.5s39.667 49.5 59 85.5z" />
    <glyph glyph-name="e.001" unicode="&#xe004;" horiz-adv-x="199" 
d="M202 260c2 4 4.99805 6.00293 8.99805 6.00293c2.66699 0 5.33398 -1.16699 8.00098 -3.5s4 -4.83301 4 -7.5s-0.333008 -4.33398 -1 -5.00098c-4 -8.66699 -9.83301 -20.667 -17.5 -36s-16.667 -32 -27 -50s-21.833 -36.333 -34.5 -55s-25.667 -35.5 -39 -50.5
s-27 -27.167 -41 -36.5s-27.667 -14 -41 -14c-12.667 0 -23.167 3 -31.5 9s-14.833 13.5 -19.5 22.5s-7.83398 19.167 -9.50098 30.5s-2.5 22.666 -2.5 33.999c0 17.333 1.83301 34.666 5.5 51.999s8.16699 35.333 13.5 54c-39.333 -38.667 -84.333 -78 -135 -118
s-104.5 -76.167 -161.5 -108.5s-116.167 -58.833 -177.5 -79.5s-122 -31 -182 -31c-35.333 0 -69.833 4 -103.5 12s-66.5 21 -98.5 39c-3.33301 1.33301 -5 5.33301 -5 12c0 4.66699 1.66699 9.33398 5 14.001s6.66602 7 9.99902 7c2 0 3 -0.666992 3 -2l1 1
c31.333 -17.333 63.5 -29.833 96.5 -37.5s66.5 -11.5 100.5 -11.5c62.667 0 125.5 11 188.5 33s123.667 50.167 182 84.5s112.833 72.333 163.5 114s94.667 82.167 132 121.5l-1 -1c18 44 37 76.333 57 97s37 31 51 31c10.667 0 18.834 -4.33301 24.501 -13
s8.5 -19.667 8.5 -33c0 -18.667 -6.83301 -39 -20.5 -61s-35.834 -39.667 -66.501 -53c-4 -9.33301 -7.83301 -20.5 -11.5 -33.5s-7 -26.5 -10 -40.5s-5.5 -27.833 -7.5 -41.5s-3 -25.834 -3 -36.501c0 -11.333 1.16699 -21 3.5 -29s6.83301 -12 13.5 -12
c7.33301 0 15.833 4.16699 25.5 12.5s19.834 19 30.501 32s21.5 27.833 32.5 44.5s21.333 33.167 31 49.5s18.334 32 26.001 47s13.834 27.5 18.501 37.5zM91.998 315.003l-14.999 -27.999c-4.66699 -8.66699 -9.33398 -18.667 -14.001 -30
c18.667 11.333 32 24.666 40 39.999s12 27.333 12 36c0 4 -0.666992 6 -2 6c-4.66699 0 -11.667 -8.33301 -21 -25v1z" />
    <glyph glyph-name="f.001" unicode="&#xe005;" 
d="M281 257c0.666992 2.66699 2.16211 4.99219 4.49512 6.99219s4.5 3 6.5 3c2.66699 0 5.16699 -1.16699 7.5 -3.5s3.5 -6.16602 3.5 -11.499c-24.667 -72.667 -61.5 -134.334 -110.5 -185.001s-104.5 -86.334 -166.5 -107.001c-0.666992 -6 -1.16699 -12.5 -1.5 -19.5
s-0.5 -13.167 -0.5 -18.5c8.66699 -24 15.334 -46 20.001 -66s7 -37.667 7 -53c0 -22.667 -4 -39.5 -12 -50.5s-16.667 -16.5 -26 -16.5c-18 0 -31 10.833 -39 32.5s-12 55.167 -12 100.5c0 28 0.833008 60 2.5 96s4.5 74 8.5 114c-40 -37.333 -84.667 -75 -134 -113
s-101.666 -72.333 -156.999 -103s-112.5 -55.5 -171.5 -74.5s-117.5 -28.5 -175.5 -28.5c-35.333 0 -69.333 3.83301 -102 11.5s-64.667 20.167 -96 37.5c-6 4 -9 8.66699 -9 14c0 4.66699 1.66699 9.33398 5 14.001s6.66602 7 9.99902 7c2 0 3 -0.666992 3 -2l1 1
c32 -17.333 64.333 -29.666 97 -36.999s66 -11 100 -11c56.667 0 114.167 9.66699 172.5 29s115.166 44.333 170.499 75s107.833 64.834 157.5 102.501s93.834 74.834 132.501 111.501c4.66699 41.333 10.334 83.5 17.001 126.5s14.334 84.333 23.001 124
s18.5 76.834 29.5 111.501s23.167 64.834 36.5 90.501s28 46 44 61s33.333 22.5 52 22.5c20.667 0 37.834 -8.5 51.501 -25.5s20.5 -41.833 20.5 -74.5c0 -20 -3.83301 -44.167 -11.5 -72.5s-19.667 -59.666 -36 -93.999s-37.833 -71 -64.5 -110s-59 -79.5 -97 -121.5
c-4 -30 -7.16699 -58.667 -9.5 -86s-4.16602 -53.666 -5.49902 -78.999c30.667 11.333 59.5 26.333 86.5 45s51.333 40 73 64s40.5 49.833 56.5 77.5s28.667 55.834 38 84.501zM197.995 602.992c-14.667 0 -28.002 -7.16602 -40.002 -21.499s-23.167 -33.166 -33.5 -56.499
s-19.666 -49.833 -27.999 -79.5s-15.666 -59.834 -21.999 -90.501s-11.833 -60.667 -16.5 -90l-12 -77c24 27.333 47 56.166 69 86.499s41.167 61 57.5 92s29.5 61.667 39.5 92s15 59.5 15 87.5c0 20 -2.83301 34.5 -8.5 43.5s-12.5 13.5 -20.5 13.5zM22.9932 -124.007v-23
l-6 22zM29.9932 -198.007c0 14.667 -2.33398 31.6641 -7.00098 50.9971c0 -11.333 0.333008 -22.666 1 -33.999s2.33398 -21.666 5.00098 -30.999c0.666992 2.66699 1 7.33398 1 14.001z" />
    <glyph glyph-name="g.001" unicode="&#xe006;" horiz-adv-x="380" 
d="M380 257c0.666992 2 1.83301 4.00098 3.5 6.00098s4.16699 3 7.5 3s5.83301 -1.16699 7.5 -3.5s2.5 -4.5 2.5 -6.5c0 -0.666992 -0.166992 -1.33398 -0.5 -2.00098s-0.5 -1.66699 -0.5 -3c-7.33301 -20 -16.333 -38.333 -27 -55s-22.834 -32.167 -36.501 -46.5
s-28 -27.833 -43 -40.5l-44.5 -37c0.666992 0.666992 -1.66602 -1 -6.99902 -5l-12 -9c-5.33301 -53.333 -12.333 -107.833 -21 -163.5s-20 -106.167 -34 -151.5s-31 -82.333 -51 -111s-44 -43 -72 -43c-12.667 0 -23 2.66699 -31 8s-14.5 12.166 -19.5 20.499
s-8.5 17.833 -10.5 28.5s-3 21.667 -3 33c0 31.333 5.33301 63.333 16 96s24.5 64.334 41.5 95.001s36.167 59.834 57.5 87.501s42.666 52.5 63.999 74.5l8 95l7 87c-28.667 -48.667 -56 -84.167 -82 -106.5s-50.333 -33.5 -73 -33.5c-17.333 0 -31.333 6.33301 -42 19
s-16 31.667 -16 57c0 16.667 2.66699 36.334 8 59.001c-39.333 -38.667 -84.166 -77.834 -134.499 -117.501s-104 -75.667 -161 -108s-116 -58.833 -177 -79.5s-121.5 -31 -181.5 -31c-36 0 -70.833 4 -104.5 12s-66.5 21 -98.5 39c-2.66699 2 -4 6 -4 12
c0 4.66699 1.5 9.33398 4.5 14.001s6.16699 7 9.5 7c2 0 3 -0.666992 3 -2l1 1c32 -17.333 64.5 -29.833 97.5 -37.5s66.5 -11.5 100.5 -11.5c62.667 0 125.5 11 188.5 33s123.5 50 181.5 84s112.167 71.833 162.5 113.5s94.166 82.167 131.499 121.5
c8 16.667 17.333 32.834 28 48.501s22.5 29.667 35.5 42s27 22.166 42 29.499s30.5 11 46.5 11c6.66699 0 14.5 -1.16699 23.5 -3.5s17.5 -6 25.5 -11s14.667 -11 20 -18s8 -14.833 8 -23.5c0 -3.33301 -1.33301 -6.16602 -4 -8.49902s-5.33398 -3.5 -8.00098 -3.5
c-4 0 -7.33301 2.66699 -10 8c-3.33301 9.33301 -8.66602 17 -15.999 23s-14.666 9 -21.999 9c-5.33301 0 -10.666 -1.33301 -15.999 -4c-18.667 -9.33301 -35.5 -22.666 -50.5 -39.999s-27.667 -36.333 -38 -57s-18.166 -41.334 -23.499 -62.001s-8 -38.667 -8 -54
c0 -12 1.66699 -21.667 5 -29s8.66602 -11 15.999 -11c6.66699 0 15.167 4 25.5 12s21.666 19.333 33.999 34s25.166 32.167 38.499 52.5s26.333 42.833 39 67.5c0 2 0.166992 4.16699 0.5 6.5s0.5 4.16602 0.5 5.49902c0.666992 7.33301 1.66699 14.666 3 21.999
s5 11 11 11h49c2 0 3 -1 3 -3c-3.33301 -23.333 -6.16602 -48.833 -8.49902 -76.5s-4.83301 -55.5 -7.5 -83.5l-5 -67l45 37c14.667 12 28.334 24.667 41.001 38s24.167 27.666 34.5 42.999s19.166 33 26.499 53zM168.999 5.00098l-6 -5c0 2.66699 0.333008 5 1 7z
M31.999 -366.999c8.66699 0 18.999 7.33398 30.999 22.001s24.333 37.167 37 67.5s24.667 68.5 36 114.5s20.333 100.333 27 163c-18 -17.333 -36.167 -37.333 -54.5 -60s-34.666 -47.834 -48.999 -75.501s-26 -57 -35 -88s-13.5 -63.167 -13.5 -96.5c0 -15.333 2 -27 6 -35
s9 -12 15 -12z" />
    <glyph glyph-name="h.001" unicode="&#xe007;" horiz-adv-x="358" 
d="M359 260c2 4 4.99316 5.99512 8.99316 5.99512c2.66699 0 5.16699 -1.16699 7.5 -3.5s3.5 -6.16602 3.5 -11.499l-27 -71c-9.33301 -24 -18.833 -46.833 -28.5 -68.5l-28 -60c-9 -18.333 -17.5 -33.166 -25.5 -44.499l-17.5 -24
c-6.33301 -8.66699 -13.5 -16.5 -21.5 -23.5s-16.833 -12.833 -26.5 -17.5s-20.167 -7 -31.5 -7c-17.333 0 -29.166 5.33301 -35.499 16s-9.5 23.667 -9.5 39c0 8 1 18.333 3 31s4.66699 26.334 8 41.001l10 43.5c3.33301 14.333 6.66602 26.833 9.99902 37.5
c5.33301 20 10.333 39.667 15 59s7 35 7 47c0 10 -2 15 -6 15c-8.66699 0 -18.667 -7 -30 -21s-22.666 -31 -33.999 -51s-22.333 -41 -33 -63s-19.334 -40.667 -26.001 -56l-11 -28c0 -1.33301 -1 -2 -3 -2h-46c-6.66699 0 -10 4.33301 -10 13l3 43l4.5 72
c1.66699 26.667 4.16699 55.667 7.5 87l2 26l-83 -38c-31.333 -14 -64.833 -26.833 -100.5 -38.5s-72.167 -21.167 -109.5 -28.5s-73.5 -10.166 -108.5 -8.49902s-68.167 8.83398 -99.5 21.501s-58.666 33.334 -81.999 62.001c-2 2 -2.66699 4.33301 -2 7
s1.83398 5.16699 3.50098 7.5s3.5 4 5.5 5s3.33301 1.16699 4 0.5c21.333 -24.667 46.333 -43.167 75 -55.5s59.5 -19.833 92.5 -22.5s67.333 -1 103 5s71.167 14.5 106.5 25.5s69.833 24.167 103.5 39.5s65.167 31.333 94.5 48c6 56 13.5 113.167 22.5 171.5
s20.667 111.5 35 159.5s31.833 87.167 52.5 117.5s45 45.5 73 45.5c16.667 0 30.334 -4.5 41.001 -13.5s18.667 -20.167 24 -33.5s9 -27.5 11 -42.5s3 -28.833 3 -41.5c-0.666992 -26.667 -5.16699 -55.834 -13.5 -87.501s-20.666 -63.5 -36.999 -95.5
s-36.666 -63.167 -60.999 -93.5s-52.5 -57.5 -84.5 -81.5l-4 -43.5l-4 -44.5l-10 -107c8.66699 18.667 18.667 38.167 30 58.5s23.333 39 36 56s26 31.167 40 42.5s28 17 42 17c16.667 0 28 -4.66699 34 -14s9 -21.666 9 -36.999s-2.33301 -33.5 -7 -54.5
s-10 -42.167 -16 -63.5c-3.33301 -10.667 -6.66602 -22.667 -9.99902 -36s-6.33301 -26.833 -9 -40.5s-5 -26.334 -7 -38.001s-3 -20.834 -3 -27.501c0 -7.33301 0.666992 -11.666 2 -12.999s3.33301 -2 6 -2c10.667 0 23.334 10.5 38.001 31.5s29.667 46.5 45 76.5
s29.833 61.167 43.5 93.5l34.5 83.5zM135.993 688.995c-8.66699 -23.333 -16.3301 -49.168 -22.9971 -77.501s-12.667 -57.5 -18 -87.5s-10 -60.167 -14 -90.5s-7.33301 -58.833 -10 -85.5c28 22.667 52.667 48 74 76s39.166 56.833 53.499 86.5
s25.166 58.834 32.499 87.501s11 55 11 79c0 30.667 -3.66699 54.167 -11 70.5s-16.666 24.5 -27.999 24.5c-10.667 0 -21.834 -6.5 -33.501 -19.5s-22.834 -34.167 -33.501 -63.5z" />
    <glyph glyph-name="i.001" unicode="&#xe008;" horiz-adv-x="181" 
d="M183 260c2 4 5.33594 6.00293 10.0029 6.00293c2.66699 0 5.16699 -0.833008 7.5 -2.5s3.5 -4.16699 3.5 -7.5c0 -2 -0.333008 -3.33301 -1 -4c-18 -44.667 -34.333 -83 -49 -115s-27.667 -57.667 -39 -77c-3.33301 -5.33301 -7.5 -11.5 -12.5 -18.5
s-10.667 -13.5 -17 -19.5s-13.166 -11.167 -20.499 -15.5s-15 -6.5 -23 -6.5c-10 0 -18.5 3.66699 -25.5 11s-12.667 17.5 -17 30.5s-7.33301 27.833 -9 44.5s-2.5 34.667 -2.5 54c0 29.333 1.5 59.166 4.5 89.499s6.16699 55.833 9.5 76.5
c-39.333 -39.333 -84.5 -79.5 -135.5 -120.5s-105.5 -78.333 -163.5 -112s-118.167 -61.167 -180.5 -82.5s-124.166 -32 -185.499 -32c-35.333 0 -69.833 4 -103.5 12s-66.5 21 -98.5 39c-3.33301 1.33301 -5 5.33301 -5 12c0 5.33301 1.66699 10.333 5 15
s6.66602 7 9.99902 7c2 0 3 -1 3 -3l1 2c31.333 -17.333 63.5 -29.833 96.5 -37.5s66.5 -11.5 100.5 -11.5c62 0 124.5 10.833 187.5 32.5s123.5 49.5 181.5 83.5s112.167 71.667 162.5 113s94.166 81.666 131.499 120.999l-1 -1c1.33301 4 4.66602 6 9.99902 6h49
c2 0 3 -1 3 -3c-0.666992 -5.33301 -2.33398 -16.5 -5.00098 -33.5s-5.33398 -36.833 -8.00098 -59.5s-5 -46.5 -7 -71.5s-3 -48.167 -3 -69.5c0 -20.667 1.16699 -37.5 3.5 -50.5s6.83301 -19.5 13.5 -19.5c6 0 13.833 7.16699 23.5 21.5s20 32.166 31 53.499
s22 44.5 33 69.5s20.833 48.5 29.5 70.5zM42.0029 411.003c10 0 18.168 -3.16699 24.501 -9.5s9.5 -13.166 9.5 -20.499c0 -8 -3.5 -14.833 -10.5 -20.5s-14.5 -8.5 -22.5 -8.5c-9.33301 0 -17.333 2.66699 -24 8s-10 12.666 -10 21.999s3.16699 16.5 9.5 21.5
s14.166 7.5 23.499 7.5z" />
    <glyph glyph-name="j.001" unicode="&#xe009;" horiz-adv-x="191" 
d="M191 257c0.666992 2 2.00391 4 4.00391 6s4.33301 3 7 3s5.33398 -1 8.00098 -3s4 -4.66699 4 -8c0 -0.666992 -0.166992 -1.33398 -0.5 -2.00098s-0.5 -1.33398 -0.5 -2.00098c-8 -21.333 -17.167 -40.166 -27.5 -56.499s-21.666 -30.833 -33.999 -43.5
s-25.5 -24.334 -39.5 -35.001l-43 -32l-27 -20c-3.33301 -37.333 -7.33301 -75 -12 -113s-10.334 -74.333 -17.001 -109s-14.5 -67.167 -23.5 -97.5s-19.667 -56.666 -32 -78.999s-26.333 -39.833 -42 -52.5s-33.5 -19 -53.5 -19c-11.333 0 -20.833 2.33301 -28.5 7
s-13.834 10.834 -18.501 18.501s-7.83398 16.5 -9.50098 26.5s-2.5 20.333 -2.5 31c0 19.333 2 39 6 59s7.66699 35.667 11 47c11.333 37.333 24.833 70.833 40.5 100.5s31.167 55.167 46.5 76.5s29.333 38.666 42 51.999s21.667 22.333 27 27l2 2
c0 0.666992 0.333008 1 1 1v-1c0 1.33301 0.666992 9.33301 2 24s2.83301 32.5 4.5 53.5l5.5 69c2 25 3.66699 48.5 5 70.5l4 58c-38.667 -39.333 -83.667 -79.666 -135 -120.999s-106.333 -79 -165 -113s-119.5 -62 -182.5 -84s-125.5 -33 -187.5 -33
c-35.333 0 -69.833 4 -103.5 12s-66.5 21 -98.5 39c-3.33301 1.33301 -5 5.33301 -5 12c0 5.33301 1.66699 10.333 5 15s6.66602 7 9.99902 7c2 0 3 -1 3 -3l1 2c31.333 -17.333 63.5 -29.833 96.5 -37.5s66.5 -11.5 100.5 -11.5c62 -0 124.5 10.833 187.5 32.5
s123.667 49.5 182 83.5s112.666 71.667 162.999 113s94.166 81.666 131.499 120.999l-1 -1c1.33301 4 4.33301 6 9 6h48c2 0 3 -1 3 -3c-2 -22.667 -3.66699 -45 -5 -67l-4 -66l-8 -126c1.33301 1.33301 2.5 2.33301 3.5 3s2.16699 1.33398 3.5 2.00098l-1 -1l43.5 32
c13.667 10 26.5 21 38.5 33s22.833 25.5 32.5 40.5s18.167 33.167 25.5 54.5zM-90.9961 -307c8.66699 18.667 16.501 40.1699 23.501 64.5029s13.167 50.166 18.5 77.499s10 55.666 14 84.999s7.66699 59 11 89c-21.333 -21.333 -41 -45.333 -59 -72
s-33.833 -54.5 -47.5 -83.5s-24.334 -58.5 -32.001 -88.5s-11.5 -59 -11.5 -87c0 -14 1.66699 -26.5 5 -37.5s9 -16.5 17 -16.5c9.33301 0 19.5 6.16699 30.5 18.5s21.167 29.166 30.5 50.499zM35.0049 416.003c10 0 18.166 -3.16699 24.499 -9.5s9.5 -13.166 9.5 -20.499
c0 -8 -3.5 -14.833 -10.5 -20.5s-14.5 -8.5 -22.5 -8.5c-9.33301 0 -17.166 2.66699 -23.499 8s-9.5 12.666 -9.5 21.999s3 16.5 9 21.5s13.667 7.5 23 7.5z" />
    <glyph glyph-name="k.001" unicode="&#xe00a;" 
d="M-18 96c3.33301 44 6.83691 86.8369 10.5039 128.504s8.5 84.5 14.5 128.5c-52 -30 -106.5 -53.167 -163.5 -69.5s-113.833 -24.5 -170.5 -24.5c-40.667 0 -80.167 4.5 -118.5 13.5s-75.5 23.167 -111.5 42.5c-6 4 -9 8.66699 -9 14s1.66699 10.333 5 15
s6.66602 7 9.99902 7c2 0 3 -1 3 -3l1 2c37.333 -20.667 75.666 -35.5 114.999 -44.5s79 -13.5 119 -13.5c54.667 0 109.334 8 164.001 24s108 38.667 160 68c7.33301 54 16.5 106.333 27.5 157s24 95.5 39 134.5s32.167 70.333 51.5 94s41.333 35.5 66 35.5
c20 0 36.833 -9.33301 50.5 -28s20.5 -43.667 20.5 -75c0 -17.333 -2.83301 -36.5 -8.5 -57.5s-14.667 -43.333 -27 -67s-28 -47.834 -47 -72.501s-41.833 -49.334 -68.5 -74.001l-39 -32c-4 -25.333 -7.33301 -49.333 -10 -72l-8 -70
c21.333 28.667 40.833 49.167 58.5 61.5s32.5 18.5 44.5 18.5c15.333 0 23 -7 23 -21c0 -10.667 -8.33301 -25.834 -25 -45.501s-48 -42.834 -94 -69.501c19.333 -56 36.166 -96.5 50.499 -121.5s28.166 -37.5 41.499 -37.5c8 0 16.667 5.33301 26 16s19.333 25.667 30 45
s21.667 42 33 68s23 54.667 35 86c4 5.33301 7.33301 8 10 8c8 0 12 -3.33301 12 -10c0 -2 -0.333008 -3.33301 -1 -4c-8.66699 -24.667 -18.834 -51.5 -30.501 -80.5s-24.5 -56 -38.5 -81s-28.833 -45.833 -44.5 -62.5s-31.5 -25 -47.5 -25c-14.667 0 -30.167 8 -46.5 24
s-33.5 41.333 -51.5 76l-8 -100c0 -2 -0.666992 -3 -2 -3c-10 -4 -21 -6 -33 -6c-10.667 0 -18.667 1.33301 -24 4c-1.33301 0 -2 1 -2 3zM149.004 698.004c-9.33301 -19.333 -17.502 -40.166 -24.502 -62.499s-13.167 -45.166 -18.5 -68.499s-10.166 -46.833 -14.499 -70.5
s-8.16602 -46.5 -11.499 -68.5c25.333 20.667 48 42.667 68 66s37 46.666 51 69.999s24.667 46.5 32 69.5s11 44.833 11 65.5c0 21.333 -3 37.166 -9 47.499s-13.333 15.5 -22 15.5c-9.33301 0 -19.5 -5.16699 -30.5 -15.5s-21.5 -26.5 -31.5 -48.5zM53.002 220.004l10 6
l-6 -11zM161.002 316.004c-9.33301 0 -23.168 -7.16797 -41.501 -21.501s-37.166 -37.166 -56.499 -68.499c34 19.333 59 37 75 53s24 28 24 36c0 0.666992 -0.333008 1 -1 1z" />
    <glyph glyph-name="l.001" unicode="&#xe00b;" horiz-adv-x="242" 
d="M242 259c3.33301 5.33301 7 8.00098 11 8.00098c2.66699 0 5.16699 -0.833008 7.5 -2.5s3.5 -4.16699 3.5 -7.5c0 -2 -0.333008 -3.33301 -1 -4c-18 -46 -36.5 -85.167 -55.5 -117.5s-37 -58.666 -54 -78.999s-32.833 -35.166 -47.5 -44.499s-27 -14 -37 -14
c-13.333 0 -24.833 4.66699 -34.5 14s-17.5 22.5 -23.5 39.5s-10.5 37.167 -13.5 60.5s-4.5 49 -4.5 77c0 15.333 0.333008 30.5 1 45.5s1.66699 31.167 3 48.5c-54 -32 -110.5 -57.167 -169.5 -75.5s-117.833 -27.5 -176.5 -27.5c-40.667 0 -80.167 4.66699 -118.5 14
s-75.5 24 -111.5 44c-6 4 -9 8.66699 -9 14s1.66699 10.333 5 15s6.66602 7 9.99902 7c2 0 3 -1 3 -3l1 2c38 -20.667 76.5 -35.667 115.5 -45s78.5 -14 118.5 -14c56.667 0 113.5 8.66699 170.5 26s112.167 41.666 165.5 72.999c0 4.66699 0.333008 8.33398 1 11.001v-1
c4.66699 37.333 10.667 75.333 18 114s16 76 26 112s21 69.833 33 101.5s25 59.167 39 82.5s29 41.833 45 55.5s32.333 20.5 49 20.5c12 0 22 -2.5 30 -7.5s14.5 -11.667 19.5 -20s8.5 -18 10.5 -29s3 -22.167 3 -33.5c0 -34.667 -6.33301 -70.834 -19 -108.501
s-29.167 -74.334 -49.5 -110.001s-43.166 -69.167 -68.499 -100.5s-50.333 -58 -75 -80l-6 -64c-2.66699 -28.667 -4 -58 -4 -88c0 -17.333 0.5 -33.833 1.5 -49.5s3 -29.5 6 -41.5s6.83301 -21.667 11.5 -29s10.667 -11 18 -11c14.667 0 36.167 18.667 64.5 56
s57.5 92.666 87.5 165.999zM230 775.001c-16 0 -32.5 -13.832 -49.5 -41.499s-32.833 -62.5 -47.5 -104.5s-27.834 -87.667 -39.501 -137s-20.5 -96 -26.5 -140c26.667 25.333 51.5 54 74.5 86s42.833 64.667 59.5 98s29.667 66 39 98s14 61 14 87
c0 17.333 -2.16699 30.666 -6.5 39.999s-10.166 14 -17.499 14z" />
    <glyph glyph-name="m.001" unicode="&#xe00c;" horiz-adv-x="510" 
d="M512 260c2 4 4.99707 6 8.99707 6c2.66699 0 5.16699 -1.16699 7.5 -3.5s3.5 -6.16602 3.5 -11.499l-37.5 -96c-13.667 -34.667 -28.167 -66.834 -43.5 -96.501s-31.666 -54.334 -48.999 -74.001s-35.333 -29.5 -54 -29.5c-10.667 0 -19.5 2.16699 -26.5 6.5
s-12.667 9.83301 -17 16.5s-7.5 14.167 -9.5 22.5s-3 16.833 -3 25.5c0 5.33301 0.333008 10.833 1 16.5s1.66699 12.167 3 19.5l8 36l9.5 43c3.66699 16 7.16699 32.5 10.5 49.5s6 33.5 8 49.5s3 30 3 42c0 10 -0.833008 18 -2.5 24s-4.5 9 -8.5 9
c-9.33301 0 -19 -4.83301 -29 -14.5s-19.833 -22.334 -29.5 -38.001s-19.167 -33.167 -28.5 -52.5s-17.833 -38.833 -25.5 -58.5s-14.5 -38.167 -20.5 -55.5s-10.333 -32 -13 -44c0 -1.33301 -0.333008 -2.66602 -1 -3.99902s-1 -2.66602 -1 -3.99902c0 -2 -1 -3 -3 -3h-46
c-7.33301 0 -11 4 -11 12l11 54l4 21c2 10.667 4.16699 23 6.5 37s4.33301 28.667 6 44s2.5 29 2.5 41c0 10 -0.666992 18.333 -2 25s-4 10 -8 10c-7.33301 0 -14.833 -4.83301 -22.5 -14.5s-15.334 -22.167 -23.001 -37.5s-15 -32.333 -22 -51s-13.333 -37.167 -19 -55.5
s-10.667 -35.333 -15 -51s-7.16602 -27.834 -8.49902 -36.501c-1.33301 -4.66699 -2.16602 -9.16699 -2.49902 -13.5s-0.833008 -8.83301 -1.5 -13.5c0 -2 -1 -3 -3 -3h-46c-7.33301 0 -11 4.33301 -11 13l34 236l8 56c-38.667 -39.333 -83.5 -79.5 -134.5 -120.5
s-105.5 -78.333 -163.5 -112s-118.333 -61.167 -181 -82.5s-124.667 -32 -186 -32c-35.333 0 -69.833 4 -103.5 12s-66.5 21 -98.5 39c-3.33301 1.33301 -5 5.33301 -5 12c0 5.33301 1.66699 10.333 5 15s6.66602 7 9.99902 7c2 0 3 -1 3 -3l1 2
c31.333 -17.333 63.5 -29.833 96.5 -37.5s66.5 -11.5 100.5 -11.5c41.333 0 83 5 125 15s83.5 23.667 124.5 41s81 37.5 120 60.5s76.167 47.5 111.5 73.5s68.5 52.833 99.5 80.5s59.167 54.834 84.5 81.501c2 2 4.33301 3 7 3h49c2 0 3 -1 3 -3l-26 -169
c6 14.667 12.833 29.834 20.5 45.501s16.334 30 26.001 43s20.334 23.667 32.001 32s24.167 12.5 37.5 12.5c8.66699 0 16 -2.5 22 -7.5s10.667 -11.667 14 -20s5.66602 -17.666 6.99902 -27.999s2 -20.833 2 -31.5v-18c0 -6 -0.333008 -11.667 -1 -17
c7.33301 16.667 15.666 33.5 24.999 50.5s19.833 32.5 31.5 46.5s24 25.333 37 34s26.833 13 41.5 13c20 0 34 -7 42 -21s12 -32 12 -54c0 -25.333 -3.5 -52.833 -10.5 -82.5s-13.833 -57.167 -20.5 -82.5c-3.33301 -10.667 -6 -20.334 -8 -29.001
s-3.66699 -16.334 -5 -23.001c-3.33301 -15.333 -5 -28 -5 -38c0 -7.33301 0.833008 -13.333 2.5 -18s4.83398 -7 9.50098 -7c8 0 16.5 4.5 25.5 13.5s18.167 21 27.5 36s18.5 32 27.5 51l26.5 58.5c8.66699 20 16.834 39.833 24.501 59.5l20.5 53.5z" />
    <glyph glyph-name="n.001" unicode="&#xe00d;" horiz-adv-x="367" 
d="M367 257c2 6 5.33301 9.00195 10 9.00195c2.66699 0 5.33398 -1.16699 8.00098 -3.5s4 -6.16602 4 -11.499c-42 -110.667 -78.333 -190.334 -109 -239.001c-4 -6 -9.16699 -12.833 -15.5 -20.5s-13.166 -14.834 -20.499 -21.501s-15.333 -12.334 -24 -17.001
s-17.334 -7 -26.001 -7c-16.667 0 -28.5 6.83301 -35.5 20.5s-10.5 31.167 -10.5 52.5c0 18.667 1.83301 38.167 5.5 58.5l10.5 56.5c2.66699 12.667 4.66699 23.334 6 32.001c2 14.667 3.83301 30.167 5.5 46.5s2.5 31.5 2.5 45.5s-1 25.5 -3 34.5s-5.66699 13.5 -11 13.5
c-8 0 -17.167 -6.33301 -27.5 -19s-20.833 -28 -31.5 -46s-20.834 -37.167 -30.501 -57.5s-17.5 -38.166 -23.5 -53.499c-5.33301 -14 -9.5 -26.333 -12.5 -37l-8 -29c-2.33301 -8.66699 -4.33301 -17.167 -6 -25.5l-5.5 -27.5c0 -1.33301 -1 -2 -3 -2h-47
c-7.33301 0 -11 4.33301 -11 13l38 236l10 55c-39.333 -39.333 -84.5 -79.5 -135.5 -120.5s-105.5 -78.333 -163.5 -112s-118.167 -61.334 -180.5 -83.001s-124.5 -32.5 -186.5 -32.5c-36 0 -70.833 4 -104.5 12s-66.5 21 -98.5 39c-3.33301 1.33301 -5 5.33301 -5 12
c0 5.33301 1.66699 10.333 5 15s6.66602 7 9.99902 7c2 0 3 -1 3 -3l1 2c32 -17.333 64.5 -30 97.5 -38s66.833 -12 101.5 -12c62 0 124.5 11 187.5 33s123.5 50.167 181.5 84.5s112.167 72.166 162.5 113.499s94.166 81.666 131.499 120.999
c2.66699 2.66699 5.33398 4 8.00098 4h48c2 0 3 -1 3 -3l-27 -177c8.66699 20.667 18.667 41 30 61s23.333 37.833 36 53.5s25.834 28.334 39.501 38.001s27.5 14.5 41.5 14.5c19.333 0 32.833 -7.66699 40.5 -23s11.5 -37 11.5 -65c0 -17.333 -1 -34.833 -3 -52.5
s-4.66699 -34.167 -8 -49.5c-1.33301 -6 -3 -14.5 -5 -25.5s-4 -22.833 -6 -35.5s-3.83301 -25.5 -5.5 -38.5s-2.5 -24.5 -2.5 -34.5c0 -20 3.33301 -30 10 -30c9.33301 0 20.333 9.5 33 28.5s25.5 42.333 38.5 70s25.833 57 38.5 88z" />
    <glyph glyph-name="o.001" unicode="&#xe00e;" horiz-adv-x="346" 
d="M346 257c4 4 7.66797 6 11.001 6c6.66699 0 10 -3 10 -9v-4c-58.667 -83.333 -115.667 -125 -171 -125h-11c-19.333 -42 -42.5 -73.667 -69.5 -95s-52.167 -32 -75.5 -32c-25.333 0 -46.333 10.667 -63 32s-25 51.666 -25 90.999c0 13.333 0.833008 25.833 2.5 37.5
s4.83398 23.834 9.50098 36.501c-39.333 -37.333 -84 -75.166 -134 -113.499s-102.833 -73 -158.5 -104s-113.167 -56.167 -172.5 -75.5s-118.333 -29 -177 -29c-35.333 0 -69.333 3.83301 -102 11.5s-64.667 20.167 -96 37.5c-6 4 -9 8.66699 -9 14
c0 4.66699 1.66699 9.33398 5 14.001s6.66602 7 9.99902 7c2 0 3 -0.666992 3 -2l1 1c32 -17.333 64.5 -29.833 97.5 -37.5s66.5 -11.5 100.5 -11.5c61.333 0 123.5 11 186.5 33s123.667 50.333 182 85s113 72.667 164 114s95.167 81.666 132.5 120.999
c11.333 14 24.166 26 38.499 36s30.833 16 49.5 18c7.33301 14 17 25.333 29 34s24.667 13 38 13c12 0 21.833 -2.66699 29.5 -8s14 -12.5 19 -21.5s8.5 -19.167 10.5 -30.5s3 -23 3 -35c0 -22.667 -2.16699 -44.834 -6.5 -66.501s-8.83301 -38.834 -13.5 -51.501h2
c16 0 31.167 3.5 45.5 10.5s27.833 15.833 40.5 26.5s24.5 22.334 35.5 35.001s20.5 25 28.5 37zM106.001 50c11.333 10 22 22.1689 32 36.502s18.333 28.833 25 43.5c-14 4.66699 -26.5 11.667 -37.5 21s-20.333 20.166 -28 32.499s-13.5 25.666 -17.5 39.999
s-6 28.5 -6 42.5v7.5c0 1.66699 0.333008 4.16699 1 7.5c-10 -8 -18.833 -18.167 -26.5 -30.5s-14 -25.833 -19 -40.5s-8.83301 -29.667 -11.5 -45s-4 -30 -4 -44c0 -26 3.83301 -48.167 11.5 -66.5s19.167 -27.5 34.5 -27.5c14.667 0 30 7.66699 46 23zM100.001 292.002
c-2.66699 -8 -3.99805 -17.333 -3.99805 -28c0 -11.333 1.66699 -23 5 -35s8.33301 -23.167 15 -33.5s14.667 -19.333 24 -27s19.666 -13.5 30.999 -17.5c5.33301 14.667 10.166 32.5 14.499 53.5s6.5 41.167 6.5 60.5s-2.83301 36.5 -8.5 51.5s-16.5 22.5 -32.5 22.5
c-13.333 0 -24.333 -5 -33 -15s-14.667 -20.667 -18 -32z" />
    <glyph glyph-name="p.001" unicode="&#xe00f;" horiz-adv-x="363" 
d="M365 260c2 4 5.33105 6.00098 9.99805 6.00098c2.66699 0 5.16699 -0.833008 7.5 -2.5s3.5 -4.16699 3.5 -7.5c0 -0.666992 -0.166992 -1.33398 -0.5 -2.00098s-0.5 -1.66699 -0.5 -3c-19.333 -52 -44.666 -92.833 -75.999 -122.5s-71.666 -46.167 -120.999 -49.5
c-14 -16.667 -29.5 -30.334 -46.5 -41.001s-35.167 -16 -54.5 -16c-13.333 0 -24 3.83301 -32 11.5s-12 16.5 -12 26.5c0 15.333 6.5 26.5 19.5 33.5s25.5 10.5 37.5 10.5h10.5c3.66699 0 7.16699 -0.333008 10.5 -1c2.66699 0 5.83398 -0.166992 9.50098 -0.5
s6.83398 -0.5 9.50098 -0.5c8 12 15.167 25 21.5 39s11.833 28.333 16.5 43s8.16699 28.834 10.5 42.501s3.5 26.5 3.5 38.5c0 16.667 -2.5 30.5 -7.5 41.5s-12.167 16.5 -21.5 16.5c-4 0 -10.333 -2 -19 -6s-18.167 -10.167 -28.5 -18.5s-20.833 -18.833 -31.5 -31.5
s-20 -27.334 -28 -44.001l-6 -64c-4 -43.333 -9 -90.166 -15 -140.499s-13.5 -100.333 -22.5 -150s-20 -96.667 -33 -141s-29.167 -81.5 -48.5 -111.5c-13.333 -19.333 -26.5 -33.5 -39.5 -42.5s-25.5 -13.5 -37.5 -13.5c-17.333 0 -31.333 8.5 -42 25.5s-16 40.5 -16 70.5
c0 18 3.33301 38.333 10 61s16.667 46.834 30 72.501s30.5 52.334 51.5 80.001s45.833 55.167 74.5 82.5c4 28.667 7.5 56.834 10.5 84.501s5.83301 55.5 8.5 83.5c2.66699 23.333 5 46.333 7 69s4.66699 45.667 8 69l4 32c-39.333 -39.333 -84.5 -79.666 -135.5 -120.999
s-105.5 -78.833 -163.5 -112.5s-118.333 -61.334 -181 -83.001s-124.667 -32.5 -186 -32.5c-36 0 -70.833 3.83301 -104.5 11.5s-66.5 20.5 -98.5 38.5c-3.33301 1.33301 -5 5.33301 -5 12c0 5.33301 1.66699 10.333 5 15s6.66602 7 9.99902 7c2 0 3 -1 3 -3l1 2
c32 -17.333 64.5 -29.833 97.5 -37.5s66.5 -11.5 100.5 -11.5c41.333 0 83 5 125 15s83.5 23.667 124.5 41s81 37.666 120 60.999s76.167 48 111.5 74s68.5 52.667 99.5 80s58.833 54 83.5 80l-1 -1c1.33301 6 5.66602 9 12.999 9h49c2 0 3 -1 3 -3l-10 -59
c7.33301 9.33301 15.666 18.666 24.999 27.999s19.333 17.833 30 25.5s21.834 13.834 33.501 18.501s23.5 7 35.5 7c27.333 0 46.333 -8.16699 57 -24.5s16 -35.5 16 -57.5c0 -14.667 -1.66699 -30 -5 -46s-7.66602 -31.5 -12.999 -46.5s-11 -28.833 -17 -41.5
s-11.667 -23.334 -17 -32.001c40.667 4.66699 72.667 20.667 96 48s43.666 62.666 60.999 105.999zM-119.002 -356.999c10 18 18.834 38.6699 26.501 62.0029s14.667 47.166 21 71.499s11.833 48.666 16.5 72.999s8.66699 47.166 12 68.499
c-45.333 -45.333 -80 -91.333 -104 -138s-36 -91 -36 -133c0 -18 1.66699 -31 5 -39s7.66602 -12 12.999 -12c7.33301 0 14.833 4.16699 22.5 12.5s15.5 19.833 23.5 34.5zM128.999 81.0039c-1.33301 0 -2.33301 0.166992 -3 0.5s-1.66699 0.5 -3 0.5
c2 0.666992 3.33301 2 4 4zM73.999 51.0039c6.66699 0 14.668 3.16699 24.001 9.5s17.666 13.5 24.999 21.5c-3.33301 0 -6.33301 0.166992 -9 0.5s-5.66699 0.5 -9 0.5c-10 0 -19 -1.83301 -27 -5.5s-12 -10.167 -12 -19.5c0 -4.66699 2.66699 -7 8 -7z" />
    <glyph glyph-name="q.001" unicode="&#xe010;" horiz-adv-x="368" 
d="M368 257c2 6 5.33008 8.99609 9.99707 8.99609c2.66699 0 5.33398 -0.833008 8.00098 -2.5s4 -4.16699 4 -7.5c0 -2 -0.333008 -3.33301 -1 -4c-13.333 -38 -28 -71.667 -44 -101s-32.167 -55.166 -48.5 -77.499s-32.666 -41.333 -48.999 -57s-31.5 -28.5 -45.5 -38.5
l-3 -48c1.33301 -1.33301 5.33301 -6.5 12 -15.5s13.834 -20.333 21.501 -34s14.5 -29 20.5 -46s9 -34.5 9 -52.5c0 -25.333 -5.33301 -44.833 -16 -58.5s-23.667 -20.5 -39 -20.5c-19.333 0 -35.833 12.833 -49.5 38.5s-20.5 68.834 -20.5 129.501
c0 25.333 1 52.666 3 81.999s4.5 58.666 7.5 87.999s6.16699 57.833 9.5 85.5s6.66602 52.834 9.99902 75.501c-6 -11.333 -13.167 -23.833 -21.5 -37.5s-17.5 -26.5 -27.5 -38.5s-20.833 -22.167 -32.5 -30.5s-24.167 -12.5 -37.5 -12.5c-23.333 0 -40 9.5 -50 28.5
s-15 41.167 -15 66.5c0 13.333 1 26.666 3 39.999c-39.333 -39.333 -84.5 -79.333 -135.5 -120s-105.5 -77.667 -163.5 -111s-118 -60.666 -180 -81.999s-123.333 -32 -184 -32c-36 0 -70.333 3.83301 -103 11.5s-64.667 20.167 -96 37.5c-5.33301 3.33301 -8 8 -8 14
c0 4.66699 1.5 9.33398 4.5 14.001s6.16699 7 9.5 7c2 0 3 -0.666992 3 -2l1 1c32 -17.333 64.5 -29.833 97.5 -37.5s66.5 -11.5 100.5 -11.5c62.667 0 125.5 11 188.5 33s123.5 50 181.5 84s112.167 71.833 162.5 113.5s94.166 82.167 131.499 121.5
c5.33301 16.667 12.5 32.834 21.5 48.501s19.5 29.667 31.5 42s25.5 22.333 40.5 30s31.167 11.5 48.5 11.5c6.66699 0 14.5 -1.33301 23.5 -4s17.333 -6.33398 25 -11.001s14.167 -10.667 19.5 -18s8 -15.333 8 -24c0 -3.33301 -1.16699 -5.83301 -3.5 -7.5
s-4.83301 -2.5 -7.5 -2.5c-4 0 -7.33301 2.66699 -10 8c-7.33301 18.667 -19.333 28 -36 28c-17.333 0 -32.833 -7 -46.5 -21s-25.334 -31.167 -35.001 -51.5s-17.167 -42 -22.5 -65s-8 -43.833 -8 -62.5c0 -13.333 1.5 -24.5 4.5 -33.5s7.16699 -13.5 12.5 -13.5
c10.667 0 25.334 11.833 44.001 35.5s42 64.834 70 123.501v-1l6 42c1.33301 4.66699 5 7 11 7h49c2 0 3 -1 3 -3l-6 -41c-5.33301 -31.333 -10.166 -63.166 -14.499 -95.499s-8.83301 -70.833 -13.5 -115.5l-7 -59c28.667 23.333 57.334 55 86.001 95s54.667 92 78 156z
M197.997 -113.004c0 -3.33301 -0.166016 -7.00098 -0.499023 -11.001s-0.5 -8 -0.5 -12c0 -12.667 0.666992 -26.167 2 -40.5s3.16602 -27.666 5.49902 -39.999s5.5 -22.5 9.5 -30.5s8.66699 -12 14 -12c2.66699 0 5.33398 3 8.00098 9s4 16.667 4 32
c0 18 -3.83301 36.5 -11.5 55.5s-17.834 37.833 -30.501 56.5v-7z" />
    <glyph glyph-name="r.001" unicode="&#xe011;" 
d="M281 257c0.666992 2.66699 2.33105 5.00293 4.99805 7.00293s5 3 7 3c2.66699 0 5.16699 -1 7.5 -3s3.5 -4.66699 3.5 -8c0 -0.666992 -0.166992 -1.33398 -0.5 -2.00098s-0.5 -1.33398 -0.5 -2.00098c-18 -52.667 -35.5 -97.5 -52.5 -134.5s-33 -67 -48 -90
s-29 -39.667 -42 -50s-24.833 -15.5 -35.5 -15.5c-11.333 0 -20.833 3.33301 -28.5 10s-13.667 15.5 -18 26.5s-7.5 24 -9.5 39s-3 30.5 -3 46.5c0 28 2 56.167 6 84.5s8.33301 52.166 13 71.499h-13c-10 0 -19.333 0.666992 -28 2s-16.667 3 -24 5
c-19.333 -52 -43.166 -101.833 -71.499 -149.5s-61.166 -90.334 -98.499 -128.001s-78.833 -69.167 -124.5 -94.5s-94.834 -42 -147.501 -50c-5.33301 0 -9.33301 2.33301 -12 7s-4 9.33398 -4 14.001c0 6.66699 2.66699 10.667 8 12c51.333 9.33301 99 26 143 50
s84 53.5 120 88.5s67.833 74.5 95.5 118.5s51.167 90.667 70.5 140c-16.667 8.66699 -29.5 20 -38.5 34s-13.5 30.667 -13.5 50c0 25.333 6 46.166 18 62.499s26.333 24.5 43 24.5c14.667 0 25.167 -5.66699 31.5 -17s9.5 -24.666 9.5 -39.999s-2 -30.5 -6 -45.5
s-7.66699 -27.167 -11 -36.5c-0.666992 -0.666992 -1.16699 -1.83398 -1.5 -3.50098s-0.5 -2.83398 -0.5 -3.50098c6 -5.33301 13 -9.33301 21 -12s15.667 -4 23 -4c2 0 4.33301 0.166992 7 0.5s5.66699 0.833008 9 1.5c5.33301 1.33301 11.5 2.33301 18.5 3
s13.167 1 18.5 1c15.333 0 23 -4.33301 23 -13c0 -0.666992 -0.166992 -1.5 -0.5 -2.5s-0.5 -2.16699 -0.5 -3.5c-9.33301 -40 -16.333 -75.667 -21 -107s-7 -57.666 -7 -78.999c0 -40 6.66699 -60 20 -60c12.667 0 31.334 19.833 56.001 59.5s52.667 103.834 84 192.501z
M4.99707 337.003c0 -7.33301 0.666992 -14.5 2 -21.5s3.66602 -12.5 6.99902 -16.5c8.66699 32.667 13 56 13 70c0 10.667 -1.33301 16 -4 16c-5.33301 0 -9.66602 -5 -12.999 -15s-5 -21 -5 -33z" />
    <glyph glyph-name="s.001" unicode="&#xe012;" horiz-adv-x="266" 
d="M157 364c0 -17.333 -6.66602 -37.6719 -19.999 -61.0049s-36 -51.333 -68 -84c4.66699 -8 9.83398 -15.833 15.501 -23.5l16.5 -21.5c4.66699 -5.33301 9.33398 -11.666 14.001 -18.999s8.66699 -13.333 12 -18c30 13.333 56.833 28.666 80.5 45.999s43.167 42 58.5 74
c3.33301 5.33301 7 8 11 8c2.66699 0 5.16699 -1 7.5 -3s3.5 -4.66699 3.5 -8c0 -2 -0.333008 -3.33301 -1 -4c-16.667 -35.333 -38.167 -63 -64.5 -83s-54.833 -36.667 -85.5 -50c4 -11.333 6 -22.666 6 -33.999s-2 -22.5 -6 -33.5s-9.83301 -21 -17.5 -30
s-16.667 -16.167 -27 -21.5s-21.5 -8 -33.5 -8c-13.333 0 -24.333 4.33301 -33 13s-13 19.667 -13 33c0 12 4.5 24.833 13.5 38.5s25.167 26.834 48.5 39.501c-4 8.66699 -8.33301 16.167 -13 22.5s-9.33398 13.166 -14.001 20.499c-3.33301 4.66699 -6.5 8.66699 -9.5 12
s-6.16699 7.33301 -9.5 12c-40 -35.333 -84 -70.166 -132 -104.499s-98 -65.166 -150 -92.499s-105.5 -49.333 -160.5 -66s-109.5 -25 -163.5 -25c-36 0 -70.333 3.66699 -103 11s-64 19.666 -94 36.999c-6 2.66699 -9 7 -9 13c0 5.33301 1.66699 10.333 5 15
s6.66602 7 9.99902 7c1.33301 0 2 -0.666992 2 -2l1 1c32 -17.333 64.5 -29.833 97.5 -37.5s66.5 -11.5 100.5 -11.5c52 0 104.5 7.83301 157.5 23.5s104.833 36.334 155.5 62.001s99 54.834 145 87.501s88 66.334 126 101.001c-8 13.333 -14.167 28.666 -18.5 45.999
s-6.5 34.333 -6.5 51c0 20.667 3.16699 38.667 9.5 54s14.5 28 24.5 38s21 17.333 33 22s23.667 7 35 7c17.333 0 32.166 -4.66699 44.499 -14s18.5 -22.666 18.5 -39.999zM112.001 388.994c-2 0.666992 -4.33398 0.998047 -7.00098 0.998047
c-6.66699 0 -13.334 -2.5 -20.001 -7.5s-12.667 -11.833 -18 -20.5s-9.66602 -19 -12.999 -31s-5 -24.667 -5 -38c0 -8 0.666992 -16.5 2 -25.5s4 -18.167 8 -27.5c6 5.33301 13.167 12.833 21.5 22.5s16.333 20.167 24 31.5s14.334 22.833 20.001 34.5s8.5 22.5 8.5 32.5
c0 6.66699 -1.5 12.334 -4.5 17.001s-8.5 8.33398 -16.5 11.001zM85 94.9922l-3 -1.99805c0 1.33301 -0.166992 2.16602 -0.5 2.49902s-0.5 1.16602 -0.5 2.49902zM83 80.9941c0 2 -0.166992 4 -0.5 6s-0.5 4 -0.5 6c-12 -6.66699 -22.833 -14.667 -32.5 -24
s-14.5 -19.333 -14.5 -30c0 -8.66699 3.66699 -13 11 -13s15.333 5.33301 24 16s13 23.667 13 39z" />
    <glyph glyph-name="t.001" unicode="&#xe013;" horiz-adv-x="188" 
d="M401 563c0 -2.66699 -0.669922 -3.99902 -2.00293 -3.99902c-38.667 -7.33301 -80.667 -13.5 -126 -18.5s-93 -7.5 -143 -7.5h-19c-3.33301 0 -6 0.166992 -8 0.5s-4.66699 0.5 -8 0.5c-5.33301 -30 -10.666 -63 -15.999 -99s-10.166 -72.167 -14.499 -108.5
s-8 -71.5 -11 -105.5s-4.5 -64 -4.5 -90c0 -24.667 1.5 -44.167 4.5 -58.5s7.83301 -21.5 14.5 -21.5c6 0 13.5 5.5 22.5 16.5s18.833 25.833 29.5 44.5s21.834 40.5 33.501 65.5s23.167 51.5 34.5 79.5c1.33301 1.33301 2.83301 3 4.5 5s3.16699 3 4.5 3
c2.66699 0 5.33398 -0.833008 8.00098 -2.5s4 -4.16699 4 -7.5c0 -0.666992 -0.166992 -1.33398 -0.5 -2.00098s-0.5 -1.33398 -0.5 -2.00098c-11.333 -28 -23.833 -57 -37.5 -87s-27.834 -57.167 -42.501 -81.5s-29.5 -44.333 -44.5 -60s-29.5 -23.5 -43.5 -23.5
c-18.667 0 -31.667 13.333 -39 40s-11 60 -11 100c0 44 4.16699 98.833 12.5 164.5s19.166 143.167 32.499 232.5c-56 3.33301 -111.667 11 -167 23s-107.166 29.333 -155.499 52s-91.833 51.5 -130.5 86.5s-69.667 77.5 -93 127.5c0 5.33301 2.5 10 7.5 14s9.5 6 13.5 6
s7 -1.66699 9 -5c22.667 -47.333 52.334 -87.666 89.001 -120.999s78 -61 124 -83s95.167 -39 147.5 -51s105.166 -20 158.499 -24c1.33301 7.33301 2.33301 14 3 20s1.66699 12 3 18c2.66699 21.333 5.5 37.333 8.5 48s9.83301 16 20.5 16c6 0 12 -0.666992 18 -2
s12 -3 18 -5h-1c2.66699 -1.33301 4.33398 -2 5.00098 -2c2 0 3 -1 3 -3l-17 -93c8 -0.666992 15.5 -1 22.5 -1h22.5c45.333 0 89.166 2 131.499 6s81.833 9.66699 118.5 17c2.66699 0 4 -0.666992 4 -2z" />
    <glyph glyph-name="u.001" unicode="&#xe014;" horiz-adv-x="343" 
d="M345 260c1.33301 3.33301 4.33398 4.99707 9.00098 4.99707c8 0 12 -3.33301 12 -10c0 -2 -0.333008 -3.33301 -1 -4c-35.333 -88.667 -65.333 -152.667 -90 -192s-48.334 -59 -71.001 -59c-10.667 0 -19.5 3.66699 -26.5 11s-12.5 16.833 -16.5 28.5
s-6.66699 24.834 -8 39.501s-2 29 -2 43v21.5c0 7 0.333008 13.833 1 20.5c-6 -14 -12.833 -29 -20.5 -45s-16.167 -30.833 -25.5 -44.5s-19.833 -24.834 -31.5 -33.501s-24.167 -13 -37.5 -13c-19.333 0 -32.5 10 -39.5 30s-10.5 45.333 -10.5 76
c0 25.333 1.33301 50.166 4 74.499s5.66699 48.833 9 73.5l6 44c-38.667 -39.333 -83.667 -79.666 -135 -120.999s-106.166 -79 -164.499 -113s-118.833 -62 -181.5 -84s-125 -33 -187 -33c-36 0 -70.833 4 -104.5 12s-66.5 21 -98.5 39c-3.33301 1.33301 -5 5.33301 -5 12
c0 5.33301 1.66699 10.166 5 14.499s6.66602 6.5 9.99902 6.5c2 0 3 -0.666992 3 -2l1 1c32 -17.333 64.5 -29.833 97.5 -37.5s66.5 -11.5 100.5 -11.5c61.333 0 123.5 11 186.5 33s123.5 50.333 181.5 85s112.5 72.667 163.5 114s95.167 81.666 132.5 120.999
c1.33301 6.66699 5 10 11 10h47c2 0 3 -1 3 -3c0 1.33301 -0.333008 -0.166992 -1 -4.5l-2 -12.5c-2 -11.333 -4.16699 -26.166 -6.5 -44.499l-7.5 -59c-2.66699 -21 -4.83398 -42.5 -6.50098 -64.5s-2.5 -42 -2.5 -60s1 -32.833 3 -44.5s5.66699 -17.5 11 -17.5
c8 0 16.5 6.83301 25.5 20.5s18 29.834 27 48.501s17.333 38 25 58s13.834 36.667 18.501 50l7 17c0 4.66699 0.666992 10.667 2 18s2.83301 14.333 4.5 21s3.5 12.334 5.5 17.001s4.33301 7 7 7h49c2 0 3 -1.33301 3 -4c-1.33301 -5.33301 -3.16602 -16 -5.49902 -32
l-8 -55.5c-3 -21 -5.5 -43 -7.5 -66s-3 -43.833 -3 -62.5c0 -17.333 1.16699 -31.666 3.5 -42.999s6.16602 -17 11.499 -17c6 0 14 7.33301 24 22s20.5 32.834 31.5 54.501s22 45.167 33 70.5s20.833 49 29.5 71z" />
    <glyph glyph-name="v.001" unicode="&#xe015;" horiz-adv-x="332" 
d="M334 260c1.33301 3.33301 4.66602 5.00098 9.99902 5.00098c2.66699 0 5.16699 -0.833008 7.5 -2.5s3.5 -4.16699 3.5 -7.5c0 -2.66699 -0.666992 -4.66699 -2 -6h1c-7.33301 -12.667 -16.166 -26.167 -26.499 -40.5s-21.666 -27.5 -33.999 -39.5s-25.333 -22 -39 -30
s-27.5 -12 -41.5 -12c-8 0 -15.833 1.16699 -23.5 3.5s-15.167 7.16602 -22.5 14.499c-7.33301 -16.667 -15.333 -33.667 -24 -51s-18.167 -33 -28.5 -47s-21.166 -25.333 -32.499 -34s-23 -13 -35 -13c-14 0 -25 4.66699 -33 14s-14.167 20.666 -18.5 33.999
s-7 27.5 -8 42.5s-1.5 28.5 -1.5 40.5c0 32 2 65.667 6 101s9 66.666 15 93.999c-39.333 -39.333 -84.5 -79.333 -135.5 -120s-105.5 -77.667 -163.5 -111s-118 -60.666 -180 -81.999s-123.333 -32 -184 -32c-36 0 -70.333 3.83301 -103 11.5s-64.667 20.167 -96 37.5
c-6 4 -9 8.66699 -9 14s1.66699 10.166 5 14.499s6.66602 6.5 9.99902 6.5c2 0 3 -1 3 -3l1 2c32 -17.333 64.333 -29.666 97 -36.999s66 -11 100 -11c61.333 0 123.333 10.833 186 32.5s123.167 49.5 181.5 83.5s112.833 71.5 163.5 112.5s94.667 81.167 132 120.5
c0 2 1 4.33301 3 7s5 4 9 4h49c3.33301 0 4.33301 -1.33301 3 -4c-4 -16 -8 -34 -12 -54s-7.5 -41 -10.5 -63s-5.33301 -44.167 -7 -66.5s-2.5 -43.833 -2.5 -64.5c0 -32 1.83301 -54.5 5.5 -67.5s8.5 -19.5 14.5 -19.5c5.33301 0 11.666 4 18.999 12s14.833 18.333 22.5 31
s15.334 26.334 23.001 41.001l21.5 43c-8.66699 12 -14.667 25.5 -18 40.5s-5 30.5 -5 46.5c0 20.667 2.16699 39.334 6.5 56.001s10 30.834 17 42.501s14.5 20.667 22.5 27s15.667 9.5 23 9.5c9.33301 0 16.833 -4.16699 22.5 -12.5s8.5 -20.166 8.5 -35.499
c0 -12.667 -2 -26.834 -6 -42.501s-8.66699 -31.5 -14 -47.5s-11 -31.167 -17 -45.5s-11.333 -26.5 -16 -36.5c11.333 -11.333 23.666 -17 36.999 -17c12 0 24 4.16699 36 12.5s23.333 18.166 34 29.499s20.167 23.166 28.5 35.499s14.833 22.5 19.5 30.5zM161 182.001l3 5
l2 -5h-5zM152 255.001c0 -12.667 1.00098 -24.833 3.00098 -36.5s5 -21.834 9 -30.501c3.33301 8.66699 7.66602 19.334 12.999 32.001s10.333 26 15 40s8.66699 27.833 12 41.5s5 25.834 5 36.501c0 8 -1 14.5 -3 19.5s-4.66699 7.5 -8 7.5
c-7.33301 0 -13.833 -3.83301 -19.5 -11.5s-10.5 -17 -14.5 -28s-7 -22.833 -9 -35.5s-3 -24.334 -3 -35.001z" />
    <glyph glyph-name="w.001" unicode="&#xe016;" horiz-adv-x="504" 
d="M506 260c1.33301 3.33301 4.3418 5 9.00879 5c3.33301 0 6 -1.16699 8 -3.5s3 -4.83301 3 -7.5s-0.333008 -4.66699 -1 -6c-9.33301 -16 -19.333 -31.333 -30 -46s-22 -27.667 -34 -39s-24.333 -20.5 -37 -27.5s-26 -10.5 -40 -10.5c-8.66699 0 -16.667 1.16699 -24 3.5
s-14.333 7.16602 -21 14.499c-7.33301 -16 -15.666 -32.5 -24.999 -49.5s-19.333 -32.5 -30 -46.5s-21.667 -25.333 -33 -34s-23 -13 -35 -13c-11.333 0 -20.833 3.66699 -28.5 11s-13.834 17 -18.501 29s-7.83398 25.667 -9.50098 41s-2.5 31.333 -2.5 48
s0.666992 32.834 2 48.501s2.66602 29.834 3.99902 42.501c-29.333 -74.667 -55 -128.667 -77 -162s-41.667 -50 -59 -50s-29.333 10.167 -36 30.5s-10 44.5 -10 72.5c0 23.333 1.33301 48.166 4 74.499s6.33398 50.833 11.001 73.5l7 37
c-38.667 -39.333 -83.5 -79.333 -134.5 -120s-105.5 -77.5 -163.5 -110.5s-118 -60.167 -180 -81.5s-123.333 -32 -184 -32c-35.333 0 -69.833 4 -103.5 12s-66.5 21 -98.5 39c-3.33301 1.33301 -5 5.33301 -5 12c0 5.33301 1.66699 10.333 5 15s6.66602 7 9.99902 7
c2 0 3 -1 3 -3l1 2c31.333 -17.333 63.5 -29.833 96.5 -37.5s66.5 -11.5 100.5 -11.5c61.333 0 123.166 10.833 185.499 32.5s122.5 49.5 180.5 83.5s112.333 71.5 163 112.5s94.667 80.833 132 119.5c0.666992 4.66699 4 7.83398 10 9.50098s13.333 2.5 22 2.5
c3.33301 0 6.66602 -0.166992 9.99902 -0.5s6.66602 -0.5 9.99902 -0.5h9c2 0 3 -1.33301 3 -4c-1.33301 -6.66699 -3.83301 -20 -7.5 -40s-7.5 -42.5 -11.5 -67.5s-7.5 -50.333 -10.5 -76s-4.5 -47.834 -4.5 -66.501c0 -12 0.666992 -21.5 2 -28.5
s3.66602 -10.5 6.99902 -10.5c4.66699 0 11.334 6.66699 20.001 20s19 32.666 31 57.999s25 56.333 39 93s28.333 78 43 124c0 1.33301 0.333008 3 1 5s1 3.66699 1 5c1.33301 4.66699 2.66602 8.66699 3.99902 12s4.66602 5 9.99902 5h48c3.33301 0 4.33301 -1.33301 3 -4
c-2 -8 -4.66699 -22 -8 -42s-6.83301 -42.667 -10.5 -68s-6.66699 -51.666 -9 -78.999s-3.5 -52.333 -3.5 -75c0 -21.333 1.33301 -39 4 -53s7.66699 -21 15 -21c6.66699 0 18.167 10.833 34.5 32.5s33.166 54.167 50.499 97.5c-7.33301 12 -12.833 25 -16.5 39
s-5.5 28.667 -5.5 44c0 23.333 2.33301 43.666 7 60.999s10.334 31.833 17.001 43.5s14 20.334 22 26.001s15.667 8.5 23 8.5c9.33301 0 17 -4 23 -12s9 -19.667 9 -35c0 -12 -1.83301 -25.5 -5.5 -40.5s-8.16699 -30.167 -13.5 -45.5s-10.833 -30 -16.5 -44
s-10.834 -26 -15.501 -36l-3 -7c10.667 -12 23 -18 37 -18c12 0 23.667 3.66699 35 11s22.166 16.5 32.499 27.5s20 22.833 29 35.5s16.5 24.667 22.5 36zM336.009 192l13.5 33.002c5 12.667 9.83301 25.667 14.5 39s8.5 26.333 11.5 39s4.5 24 4.5 34
c0 7.33301 -1 13.666 -3 18.999s-4.66699 8 -8 8c-7.33301 0 -13.833 -3.83301 -19.5 -11.5s-10.5 -17.167 -14.5 -28.5s-7 -23.333 -9 -36s-3 -24.334 -3 -35.001c0 -11.333 1 -22.833 3 -34.5s4.66699 -22.167 8 -31.5z" />
    <glyph glyph-name="x.001" unicode="&#xe017;" horiz-adv-x="351" 
d="M351 257c1.33301 6.66699 4.66699 10.0059 10 10.0059c2.66699 0 5.33398 -1 8.00098 -3s4 -4.66699 4 -8c0 -0.666992 -0.166992 -1.33398 -0.5 -2.00098s-0.5 -1.33398 -0.5 -2.00098c-16.667 -45.333 -33.167 -83.5 -49.5 -114.5s-32.5 -56 -48.5 -75
s-31.5 -32.667 -46.5 -41s-29.167 -12.5 -42.5 -12.5c-16.667 0 -31.5 5.16699 -44.5 15.5s-26.5 24.166 -40.5 41.499l-33.5 -51.5l-32.5 -51.5c0 -0.666992 -1 -1 -3 -1h-43c-7.33301 0 -11 3.33301 -11 10c0 2.66699 1 5 3 7h-1l43.5 69l43.5 69
c-5.33301 9.33301 -11.666 21.333 -18.999 36s-14 28.667 -20 42c-15.333 31.333 -31.666 62.833 -48.999 94.5s-34.666 56.834 -51.999 75.501c-38 -40 -83 -81.5 -135 -124.5s-108 -82.167 -168 -117.5s-122.333 -64.5 -187 -87.5s-128.667 -34.5 -192 -34.5
c-35.333 0 -69.833 4 -103.5 12s-66.5 21 -98.5 39c-3.33301 1.33301 -5 5 -5 11c0 5.33301 1.66699 10.333 5 15s6.66602 7 9.99902 7c2 0 3 -1 3 -3l1 2c31.333 -17.333 63.5 -29.833 96.5 -37.5s66.5 -11.5 100.5 -11.5c62.667 0 125.5 11 188.5 33
s123.667 50.167 182 84.5s112.666 72.166 162.999 113.499s94.166 81.666 131.499 120.999c2 2 3.83301 3.16699 5.5 3.5s3.83398 0.5 6.50098 0.5c14 0 28 -5.83301 42 -17.5s27.833 -26.834 41.5 -45.501s27.167 -39.834 40.5 -63.501l40 -72.5l9 -17l84 134v-1
c1.33301 4 4.66602 6 9.99902 6h54c3.33301 0 4.33301 -1.66699 3 -5l-120 -188c14.667 -25.333 27.5 -43.5 38.5 -54.5s22.5 -17.167 34.5 -18.5c14 2.66699 28.167 11.334 42.5 26.001s27.833 32.167 40.5 52.5s24.167 42.166 34.5 65.499s19.166 45 26.499 65z" />
    <glyph glyph-name="y.001" unicode="&#xe018;" horiz-adv-x="395" 
d="M395 257c0.666992 2.66699 2.50977 4.99609 5.50977 6.99609s5.5 3 7.5 3c6.66699 0 10 -3.33301 10 -10c0 -2.66699 -0.333008 -4.33398 -1 -5.00098c-14.667 -40.667 -36.334 -75.167 -65.001 -103.5s-58.334 -54.833 -89.001 -79.5
c1.33301 1.33301 -0.166992 0.333008 -4.5 -3l-10.5 -8c-5.33301 -53.333 -12.333 -107.666 -21 -162.999s-20 -105.666 -34 -150.999s-31.167 -82.333 -51.5 -111s-44.5 -43 -72.5 -43c-24 0 -40.5 8.5 -49.5 25.5s-13.5 37.167 -13.5 60.5c0 32 4.83301 64.833 14.5 98.5
s22.667 66.334 39 98.001s35.166 61.167 56.499 88.5s44 51 68 71l10 108c1.33301 18.667 2.83301 35 4.5 49s3.16699 30.667 4.5 50c-7.33301 -15.333 -16.5 -33.5 -27.5 -54.5s-23.333 -41 -37 -60s-28.334 -35.167 -44.001 -48.5s-31.834 -20 -48.501 -20
c-21.333 0 -36.166 11 -44.499 33s-12.5 49 -12.5 81c0 27.333 2 56.333 6 87s8.33301 56.667 13 78c-39.333 -39.333 -84.333 -79.333 -135 -120s-104.834 -77.5 -162.501 -110.5s-117.334 -60 -179.001 -81s-122.834 -31.5 -183.501 -31.5c-36 0 -70.833 4 -104.5 12
s-66.5 21 -98.5 39c-3.33301 1.33301 -5 5.33301 -5 12c0 4.66699 1.66699 9.33398 5 14.001s6.66602 7 9.99902 7c2 0 3 -1 3 -3l1 2c32 -17.333 64.5 -29.833 97.5 -37.5s66.5 -11.5 100.5 -11.5c62 0 124.667 11 188 33s124 50.167 182 84.5s112.333 72.333 163 114
s94.667 82.167 132 121.5c3.33301 3.33301 6.66602 5 9.99902 5h49c3.33301 0 4.33301 -1.33301 3 -4c-2 -8 -5 -21.167 -9 -39.5s-7.83301 -38.666 -11.5 -60.999s-6.83398 -45.166 -9.50098 -68.499s-4 -44.333 -4 -63c0 -17.333 1.33301 -31.5 4 -42.5
s7.33398 -16.5 14.001 -16.5c11.333 0 30 18 56 54s54 91 84 165c1.33301 2 3 4 5 6s4.33301 3 7 3h49c2 0 3 -1 3 -3l-12 -125l-4 -51c-1.33301 -16.667 -3 -33.334 -5 -50.001l45.5 36.5c14.333 11.667 27.666 24 39.999 37s23.333 27.167 33 42.5s18.167 33 25.5 53z
M186.01 5.99609l-5 -6v8zM54.0098 -379.004c12 0 24.3311 9.83203 36.998 29.499s24.5 46.5 35.5 80.5s21.333 74 31 120s17.5 95.667 23.5 149c-18 -17.333 -36.167 -37.666 -54.5 -60.999s-34.666 -49 -48.999 -77s-26.166 -57.5 -35.499 -88.5s-14 -62.5 -14 -94.5
c0 -18.667 2.5 -33 7.5 -43s11.167 -15 18.5 -15z" />
    <glyph glyph-name="z.001" unicode="&#xe019;" horiz-adv-x="272" 
d="M17 251c-1.33301 -2 -2.99609 -3.66406 -4.99609 -4.99707c-26 -26.667 -55.167 -54.334 -87.5 -83.001s-67.166 -56.667 -104.499 -84s-76.5 -53.5 -117.5 -78.5s-82.833 -46.833 -125.5 -65.5s-85.5 -33.5 -128.5 -44.5s-85.5 -16.5 -127.5 -16.5
c-36 0 -70.333 3.66699 -103 11s-64 19.666 -94 36.999c-6 4 -9 8.66699 -9 14c0 4.66699 1.66699 9.33398 5 14.001s6.66602 7 9.99902 7c2 0 3 -0.666992 3 -2l1 1c32 -17.333 64.333 -29.833 97 -37.5s66 -11.5 100 -11.5c62.667 0 125.5 11 188.5 33s123.667 50 182 84
s112.666 71.833 162.999 113.5s94.166 82.167 131.499 121.5c6 17.333 13.333 34 22 50s18 30 28 42s20.667 21.667 32 29s23 11 35 11c16 0 29.5 -5.83301 40.5 -17.5s16.5 -27.5 16.5 -47.5c0 -17.333 -4.66699 -36.166 -14 -56.499s-24.666 -42.5 -45.999 -66.5
c17.333 -1.33301 30.666 -7.5 39.999 -18.5s17 -24.167 23 -39.5c21.333 16 40.833 33.333 58.5 52s31.167 38.667 40.5 60c4 6 7.66699 9 11 9c2.66699 0 5.16699 -1.16699 7.5 -3.5s3.5 -5.16602 3.5 -8.49902c0 -0.666992 -0.166992 -1.33398 -0.5 -2.00098
s-0.5 -1.33398 -0.5 -2.00098c-11.333 -24.667 -27 -47.334 -47 -68.001s-42.333 -40.334 -67 -59.001c1.33301 -8 2.5 -16 3.5 -24s1.5 -16.667 1.5 -26c0 -32 -5.16699 -64.833 -15.5 -98.5s-24.333 -64.334 -42 -92.001s-38.334 -50.334 -62.001 -68.001
s-48.834 -26.5 -75.501 -26.5s-46.5 8.83301 -59.5 26.5s-19.5 38.834 -19.5 63.501c0 22.667 5.83301 44 17.5 64s26.334 38.833 44.001 56.5s37.167 34.167 58.5 49.5s41.666 29 60.999 41c5.33301 3.33301 10.666 6.33301 15.999 9s10.333 5.66699 15 9
c-1.33301 8.66699 -3.5 17.334 -6.5 26.001s-6.66699 16.5 -11 23.5s-9.66602 12.667 -15.999 17s-13.5 6.5 -21.5 6.5c-2 0 -5 -0.666992 -9 -2c-2 -0.666992 -3.5 -1.33398 -4.5 -2.00098s-4.16699 -1 -9.5 -1c-3.33301 0 -6.5 1.83301 -9.5 5.5s-4.5 6.5 -4.5 8.5
c0 3.33301 1.16699 6 3.5 8s4.5 4 6.5 6l4 4c23.333 23.333 39.833 45.833 49.5 67.5s14.5 40.167 14.5 55.5c0 18.667 -5 28 -15 28c-4 0 -9.33301 -2.83301 -16 -8.5s-13.667 -13.167 -21 -22.5s-14.5 -20.666 -21.5 -33.999s-12.833 -27.333 -17.5 -42zM85.0039 58.0029
l-53.4961 -37.501c-17.667 -13 -33.834 -26.833 -48.501 -41.5s-26.5 -30 -35.5 -46s-13.5 -33.333 -13.5 -52c0 -17.333 4.16699 -31.333 12.5 -42s19.166 -16 32.499 -16c5.33301 0 11.166 0.833008 17.499 2.5s12.833 4.83398 19.5 9.50098
c16.667 12 31.667 27.5 45 46.5s24.666 39.5 33.999 61.5s16.333 44.5 21 67.5s7 44.5 7 64.5v9z" />
    <glyph glyph-name="a.002" unicode="&#xe01a;" horiz-adv-x="342" 
d="M238 54c23.333 28 50.665 56.833 81.998 86.5s65.166 58.334 101.499 86.001s74.833 53.667 115.5 78s82.334 45.666 125.001 63.999s86 32.833 130 43.5s87.667 16 131 16c36.667 0 72.334 -4.16699 107.001 -12.5s68.334 -21.166 101.001 -38.499c4 -4 6 -8 6 -12
c0 -5.33301 -1.83301 -10.333 -5.5 -15s-8.16699 -6.66699 -13.5 -6c-32 17.333 -64.833 30 -98.5 38s-67.5 12 -101.5 12c-40.667 0 -82 -5.16699 -124 -15.5s-83.667 -24.333 -125 -42s-81.5 -38.167 -120.5 -61.5s-76.333 -48.166 -112 -74.499s-69 -53.5 -100 -81.5
s-58.5 -55 -82.5 -81c-9.33301 -10.667 -18.666 -19.667 -27.999 -27s-18.666 -11 -27.999 -11c-11.333 0 -20.5 3.83301 -27.5 11.5s-12.5 17.334 -16.5 29.001s-6.66699 24.667 -8 39s-2 28.166 -2 41.499v20c0 7.33301 0.333008 13.666 1 18.999
c-17.333 -28.667 -35.5 -51.834 -54.5 -69.501s-39.167 -26.5 -60.5 -26.5c-20 0 -34.333 8.16699 -43 24.5s-13 35.5 -13 57.5c0 16.667 2.33301 34.5 7 53.5s11 38.167 19 57.5c6.66699 16 14.667 31.167 24 45.5s19.5 27 30.5 38s22.833 19.833 35.5 26.5
s25.667 10 39 10c19.333 0 35 -6.33301 47 -19c0.666992 4 1.66699 7.33301 3 10s4.33301 4 9 4h49c2 0 3 -1.33301 3 -4l-7 -36c-4 -20.667 -8.33301 -45 -13 -73s-8.83398 -57.167 -12.501 -87.5s-5.5 -56.833 -5.5 -79.5c0 -16 1.16699 -29 3.5 -39
s6.16602 -15 11.499 -15s12.333 5.33301 21 16zM169.999 328c-0.666992 0 -1 0.333008 -1 1c0.666992 0 1 0.333008 1 1v-2zM150.999 214c2 19.333 4.5 38.667 7.5 58s6.5 38.333 10.5 57c-8.66699 15.333 -18.334 23 -29.001 23c-8.66699 0 -17.334 -4 -26.001 -12
s-17 -18.5 -25 -31.5s-15.667 -27.667 -23 -44s-13.666 -33 -18.999 -50s-9.66602 -33.333 -12.999 -49s-5 -29.5 -5 -41.5c0 -10 1.33301 -18 4 -24s6.66699 -9 12 -9c4.66699 0 11 3 19 9s16.833 14.333 26.5 25s19.667 23.5 30 38.5s20.5 31.833 30.5 50.5z" />
    <glyph glyph-name="b.002" unicode="&#xe01b;" horiz-adv-x="364" 
d="M306 163c24.667 26.667 52.9951 54.502 84.9951 83.502s66.333 57.333 103 85s75.334 53.834 116.001 78.501s82.5 46.334 125.5 65.001s86.5 33.5 130.5 44.5s87.667 16.5 131 16.5c35.333 0 69.666 -4 102.999 -12s66 -20.667 98 -38c4 -4 6 -8 6 -12
c0 -5.33301 -1.83301 -10.333 -5.5 -15s-8.16699 -6.66699 -13.5 -6c-30.667 17.333 -62.334 29.666 -95.001 36.999s-65.667 11 -99 11c-42 0 -84 -5.16699 -126 -15.5s-83.667 -24.333 -125 -42s-81.666 -38.334 -120.999 -62.001s-76.833 -48.667 -112.5 -75
s-69.167 -53.166 -100.5 -80.499s-59.666 -54 -84.999 -80c-16 -16 -35.5 -29.833 -58.5 -41.5s-46.5 -21.167 -70.5 -28.5l-1 -1c-2.66699 -3.33301 -7.16699 -8.5 -13.5 -15.5s-14.166 -14.167 -23.499 -21.5s-19.833 -13.666 -31.5 -18.999s-24.167 -8 -37.5 -8
c-11.333 0 -19.666 2.83301 -24.999 8.5s-8 12.167 -8 19.5c0 8.66699 2.5 15.834 7.5 21.501s11.167 10.167 18.5 13.5s15 5.66602 23 6.99902s15 2.66602 21 3.99902h1c5.33301 1.33301 9 2 11 2c8.66699 10 16.834 21.667 24.501 35s14.167 27 19.5 41
s9.5 27.833 12.5 41.5s4.5 25.834 4.5 36.501c0 13.333 -2 24.166 -6 32.499s-10 12.5 -18 12.5c-12 0 -24.833 -7.33301 -38.5 -22s-26.667 -32.5 -39 -53.5s-23.166 -43.667 -32.499 -68s-15.666 -45.833 -18.999 -64.5
c-0.666992 -0.666992 -1.16699 -1.83398 -1.5 -3.50098s-0.5 -2.83398 -0.5 -3.50098c0 -2 -1 -3 -3 -3h-45c-7.33301 0 -11 4.66699 -11 14c4 23.333 7.33301 49.833 10 79.5l9 95.5c0.666992 3.33301 1 6.16602 1 8.49902s0.333008 5.16602 1 8.49902
c3.33301 39.333 7.16602 80 11.499 122s9.5 83 15.5 123s13.333 77.833 22 113.5s19.334 67 32.001 94s27.167 48.5 43.5 64.5s35.5 24 57.5 24c22.667 0 41.167 -11.167 55.5 -33.5s21.5 -55.166 21.5 -98.499c0 -33.333 -5.33301 -66.333 -16 -99s-25 -64.5 -43 -95.5
s-38.667 -60.333 -62 -88s-48 -52.834 -74 -75.501c-2 -25.333 -4.16699 -48.666 -6.5 -69.999s-4.5 -45 -6.5 -71c8.66699 18.667 18.5 36 29.5 52s22.667 29.833 35 41.5s25 20.667 38 27s25.833 9.5 38.5 9.5c18 0 32.833 -6.33301 44.5 -19s17.5 -31.667 17.5 -57
c0 -20.667 -3.83301 -42.667 -11.5 -66s-17.834 -45.333 -30.501 -66c20 7.33301 37.167 15.333 51.5 24s27.833 19.667 40.5 33zM62.9951 350.002l5 4v-6zM196.995 785.002c-16 0 -30.832 -13.667 -44.499 -41s-25.834 -62.166 -36.501 -104.499s-20 -88.833 -28 -139.5
s-14.667 -99.334 -20 -146.001c26.667 22 50.667 46.833 72 74.5s39.5 56.167 54.5 85.5s26.333 58.5 34 87.5s11.5 56.167 11.5 81.5c0 32 -4.16699 57 -12.5 75s-18.5 27 -30.5 27zM117.996 62.002l-10 -2l8 7zM73.9961 40.002c3.33301 0 8.5 2.49805 15.5 7.49805
s13.167 9.16699 18.5 12.5c-7.33301 -1.33301 -14.833 -3.66602 -22.5 -6.99902s-11.5 -7.66602 -11.5 -12.999z" />
    <glyph glyph-name="c.002" unicode="&#xe01c;" horiz-adv-x="242" 
d="M95 61l-1.00293 -0.999023c41.333 39.333 88.833 81 142.5 125s110.667 84.333 171 121s123 67 188 91s129.5 36 193.5 36c34.667 0 68.334 -3.83301 101.001 -11.5s65 -20.167 97 -37.5c4 -4 6 -8 6 -12c0 -5.33301 -1.83301 -10.333 -5.5 -15
s-8.16699 -6.66699 -13.5 -6c-31.333 17.333 -63 29.666 -95 36.999s-64.333 11 -97 11c-41.333 0 -83.166 -5.33301 -125.499 -16s-84.166 -24.834 -125.499 -42.501s-81.666 -38.334 -120.999 -62.001s-77 -48.667 -113 -75s-69.833 -53.166 -101.5 -80.499
s-60.5 -53.666 -86.5 -78.999c-15.333 -14 -30.666 -24.833 -45.999 -32.5s-30.333 -11.5 -45 -11.5c-19.333 0 -33.333 8.16699 -42 24.5s-13 37.166 -13 62.499s3.33301 53 10 83s15.667 59 27 87c7.33301 18.667 15.666 36.334 24.999 53.001s19 31.167 29 43.5
s20.333 22.166 31 29.499s21 11 31 11c17.333 0 31.333 -7 42 -21s16 -31.667 16 -53c0 -3.33301 -0.5 -8.83301 -1.5 -16.5s-2.66699 -15.334 -5 -23.001s-5.16602 -14.5 -8.49902 -20.5s-7.33301 -9 -12 -9c-7.33301 0 -11 3.66699 -11 11c0 2 0.333008 3.66699 1 5
c9.33301 16.667 14 32.667 14 48c0 11.333 -2 21.5 -6 30.5s-8.66699 13.5 -14 13.5c-6.66699 0 -14.334 -5 -23.001 -15s-17.334 -23.167 -26.001 -39.5s-17.167 -34.833 -25.5 -55.5s-15.833 -41.667 -22.5 -63s-12 -42.166 -16 -62.499s-6 -38.166 -6 -53.499
c0 -13.333 1.83301 -24 5.5 -32s9.5 -12 17.5 -12c13.333 0 31 10 53 30z" />
    <glyph glyph-name="d.002" unicode="&#xe01d;" horiz-adv-x="351" 
d="M208 0c-11.333 0 -20.5088 3.66504 -27.5088 10.998s-12.333 16.833 -16 28.5s-6.16699 24.834 -7.5 39.501s-2 29 -2 43v20c0 6.66699 0.333008 13 1 19c-21.333 -32 -42.833 -56 -64.5 -72s-41.834 -24 -60.501 -24c-16 0 -29.5 6.5 -40.5 19.5s-16.5 33.5 -16.5 61.5
c0 16.667 2.33301 34.5 7 53.5s11 38.167 19 57.5c6.66699 16 14.667 31.167 24 45.5s19.5 27 30.5 38s22.833 19.833 35.5 26.5s25.667 10 39 10c17.333 0 33 -6 47 -18c5.33301 53.333 12.333 106.666 21 159.999s19.834 101.333 33.501 144s30.334 77.334 50.001 104.001
s43.5 40 71.5 40c12.667 0 23.334 -3 32.001 -9s15.5 -14 20.5 -24s8.66699 -21.333 11 -34s3.5 -26 3.5 -40c0 -32 -5.33301 -65.5 -16 -100.5s-24.667 -69 -42 -102s-37.166 -64.167 -59.499 -93.5s-45.166 -54.666 -68.499 -75.999l-3 -23c-1.33301 -12 -3 -26 -5 -42
s-3.83301 -33 -5.5 -51s-3.16699 -36 -4.5 -54s-2 -35 -2 -51c0 -19.333 1.16699 -35 3.5 -47s6.16602 -18 11.499 -18c2 0 4.83301 1.33301 8.5 4s7.16699 5.66699 10.5 9c24.667 27.333 52.834 55.5 84.501 84.5s65.834 57.333 102.501 85s75.334 53.667 116.001 78
s82.334 45.833 125.001 64.5s85.834 33.334 129.501 44.001s86.834 16 129.501 16c36 0 71 -4 105 -12s67.333 -20.667 100 -38c4 -4 6 -8 6 -12c0 -5.33301 -1.83301 -10.333 -5.5 -15s-8.16699 -6.66699 -13.5 -6c-32 17.333 -64.167 29.833 -96.5 37.5
s-65.5 11.5 -99.5 11.5c-41.333 0 -83.333 -5.33301 -126 -16s-84.834 -24.834 -126.501 -42.501s-82.334 -38.5 -122.001 -62.5s-77.5 -49.5 -113.5 -76.5s-69.5 -54.5 -100.5 -82.5s-58.833 -55.333 -83.5 -82c-7.33301 -8 -15.166 -15.167 -23.499 -21.5
s-17.166 -9.5 -26.499 -9.5zM308.991 706.998c-11.333 -24 -21.002 -51.498 -29.002 -82.498s-14.833 -62.167 -20.5 -93.5s-10.334 -61.5 -14.001 -90.5s-6.5 -53.833 -8.5 -74.5c-0.666992 -2 -1 -3.66699 -1 -5c24.667 24.667 46.834 51.667 66.501 81
s36.5 59.166 50.5 89.499s24.667 60.666 32 90.999s11 58.833 11 85.5c-1.33301 21.333 -4.66602 36.833 -9.99902 46.5s-11.666 14.5 -18.999 14.5c-20 0 -39.333 -20.667 -58 -62zM172.989 323l-1 1v1zM159.989 214l3.99902 36.5l4 36.5l4 37c-12 16 -23 24 -33 24
c-12.667 0 -25.167 -7.83301 -37.5 -23.5s-23.166 -34.667 -32.499 -57s-17 -45.833 -23 -70.5s-9 -45.667 -9 -63c0 -11.333 1.5 -20.333 4.5 -27s7.5 -10 13.5 -10c11.333 0 26.833 10.5 46.5 31.5s39.167 49.5 58.5 85.5z" />
    <glyph glyph-name="e.002" unicode="&#xe01e;" horiz-adv-x="208" 
d="M64 45l90.998 79.499c33.333 28.333 68.666 56.166 105.999 83.499s76.5 53.5 117.5 78.5s82.833 47.167 125.5 66.5s85.834 34.666 129.501 45.999s86.834 17 129.501 17c34 0 67 -3.66699 99 -11s63.667 -19.666 95 -36.999c4 -4 6 -8 6 -12
c0 -5.33301 -1.83301 -10.333 -5.5 -15s-8.16699 -6.66699 -13.5 -6c-31.333 16.667 -62.666 28.667 -93.999 36s-63 11 -95 11c-40 0 -80.667 -5.33301 -122 -16s-82.5 -25 -123.5 -43s-81.333 -38.833 -121 -62.5s-77.834 -48.667 -114.501 -75s-71.334 -53 -104.001 -80
l-89 -76.5c-8.66699 -7.33301 -17.5 -12.666 -26.5 -15.999s-18.167 -5 -27.5 -5c-13.333 0 -24 3 -32 9s-14.5 13.5 -19.5 22.5s-8.33301 19.167 -10 30.5s-2.5 22.666 -2.5 33.999c0.666992 23.333 4.33398 48.333 11.001 75s15.334 52.667 26.001 78
c8 18 16.5 34.833 25.5 50.5s18.167 29.5 27.5 41.5s18.666 21.333 27.999 28s18.333 10 27 10c10.667 0 19 -4.33301 25 -13s9 -19.667 9 -33c0 -9.33301 -1.66699 -19.166 -5 -29.499s-8.5 -20.666 -15.5 -30.999s-16 -20.166 -27 -29.499s-24.167 -17.333 -39.5 -24
c-3.33301 -9.33301 -6.83301 -20.5 -10.5 -33.5s-7 -26.5 -10 -40.5s-5.33301 -27.833 -7 -41.5s-2.5 -25.834 -2.5 -36.501c0 -12.667 1.16699 -23 3.5 -31s6.5 -12 12.5 -12c6.66699 0 14.334 4.33301 23.001 13zM95.998 314.999l-14.999 -27.999
c-4.66699 -8.66699 -9.33398 -18.667 -14.001 -30c18.667 11.333 32 24.666 40 39.999s12 27.333 12 36c0 4 -0.666992 6 -2 6c-4.66699 0 -11.667 -8.33301 -21 -25v1z" />
    <glyph glyph-name="f.002" unicode="&#xe01f;" horiz-adv-x="290" 
d="M30 -36c-0.666992 -2 -1.00781 -3.66602 -1.00781 -4.99902c38.667 38.667 83.334 78.167 134.001 118.5s104.834 76.833 162.501 109.5s117.334 59.334 179.001 80.001s122.834 31 183.501 31c34.667 0 68.667 -3.83301 102 -11.5s66 -20.167 98 -37.5c4 -4 6 -8 6 -12
c0 -5.33301 -1.83301 -10.333 -5.5 -15s-8.16699 -6.66699 -13.5 -6c-31.333 17.333 -63.5 29.833 -96.5 37.5s-66.167 11.5 -99.5 11.5c-59.333 0 -119.5 -10.5 -180.5 -31.5s-120 -48 -177 -81s-110.667 -69.333 -161 -109s-94.5 -78.5 -132.5 -116.5v-5
c8.66699 -24 15.334 -46 20.001 -66s7 -37.667 7 -53c0 -22.667 -4 -39.5 -12 -50.5s-16.667 -16.5 -26 -16.5c-18 0 -31 11 -39 33s-12 56 -12 102c0 24.667 0.666992 52.167 2 82.5s3.5 62.166 6.5 95.499s6.5 67.666 10.5 102.999s9 70.333 15 105
c8.66699 50.667 18.834 99.667 30.501 147s25 89.166 40 125.499s31.833 65.333 50.5 87s39.334 32.5 62.001 32.5c20.667 0 37.834 -8.5 51.501 -25.5s20.5 -41.833 20.5 -74.5c0 -20 -3.83301 -44.167 -11.5 -72.5s-19.667 -59.666 -36 -93.999s-37.833 -71 -64.5 -110
s-59 -79.5 -97 -121.5c-3.33301 -30 -6.33301 -59.333 -9 -88s-4.66699 -55.667 -6 -81zM43.9922 181.001l6 7c0 -1.33301 -0.166992 -2.83301 -0.5 -4.5s-0.5 -3.16699 -0.5 -4.5zM201.992 603.001c-14.667 0 -28.002 -7.16602 -40.002 -21.499
s-23.167 -33.166 -33.5 -56.499s-19.666 -49.833 -27.999 -79.5s-15.666 -59.834 -21.999 -90.501s-11.833 -60.667 -16.5 -90l-12 -77c24 27.333 47 56.166 69 86.499s41.167 61 57.5 92s29.5 61.667 39.5 92s15 59.5 15 87.5c0 20 -2.83301 34.5 -8.5 43.5
s-12.5 13.5 -20.5 13.5zM26.9902 -123.998v-23l-6 22zM33.9902 -197.998c0 14.667 -2.33398 31.6641 -7.00098 50.9971c0 -11.333 0.333008 -22.666 1 -33.999s2.33398 -21.666 5.00098 -30.999c0.666992 2.66699 1 7.33398 1 14.001z" />
    <glyph glyph-name="g.002" unicode="&#xe020;" horiz-adv-x="388" 
d="M50 -411c-11.333 0.666992 -20.6621 3.83691 -27.9951 9.50391s-13.333 12.667 -18 21s-7.83398 17.666 -9.50098 27.999s-2.5 20.833 -2.5 31.5c0 31.333 5.33301 63.333 16 96s24.5 64.334 41.5 95.001s36.167 59.834 57.5 87.501s42.666 52.5 63.999 74.5l9 95l7 87
c-29.333 -48.667 -56.833 -84.167 -82.5 -106.5s-50.167 -33.5 -73.5 -33.5c-17.333 0 -31.333 6.33301 -42 19s-16 31.667 -16 57c0 15.333 2.33301 32.333 7 51s11.334 37.334 20.001 56.001c8 17.333 17.333 34 28 50s22.5 30.167 35.5 42.5s27 22.166 42 29.499
s30.5 11 46.5 11c6.66699 0 14.5 -1.16699 23.5 -3.5s17.5 -6 25.5 -11s14.667 -11 20 -18s8 -14.833 8 -23.5c0 -3.33301 -1.33301 -6.16602 -4 -8.49902s-5.33398 -3.5 -8.00098 -3.5c-4 0 -7.33301 2.66699 -10 8c-3.33301 9.33301 -8.66602 17 -15.999 23
s-14.666 9 -21.999 9c-5.33301 0 -10.666 -1.33301 -15.999 -4c-18.667 -9.33301 -35.334 -22.666 -50.001 -39.999s-27.167 -36.333 -37.5 -57s-18.333 -41.334 -24 -62.001s-8.5 -38.667 -8.5 -54c0 -12 1.66699 -21.667 5 -29s8.66602 -11 15.999 -11
c6.66699 0 15.167 4 25.5 12s21.666 19.333 33.999 34s25.166 32.167 38.499 52.5s26.666 42.833 39.999 67.5c0 2 0.166992 4.16699 0.5 6.5s0.5 4.16602 0.5 5.49902c0.666992 7.33301 1.66699 14.666 3 21.999s4.66602 11 9.99902 11h49c2 0 3 -1 3 -3
c-3.33301 -23.333 -6.16602 -49.166 -8.49902 -77.499s-4.83301 -56.833 -7.5 -85.5l-5 -59c40 37.333 84.833 74.833 134.5 112.5s102 71.5 157 101.5s111.667 54.5 170 73.5s116.166 28.5 173.499 28.5c35.333 0 69.5 -4 102.5 -12s65.5 -20.667 97.5 -38c4 -4 6 -8 6 -12
c0 -5.33301 -1.83301 -10.333 -5.5 -15s-8.16699 -6.66699 -13.5 -6c-31.333 17.333 -63.333 29.833 -96 37.5s-66 11.5 -100 11.5c-36.667 0 -74.167 -4.5 -112.5 -13.5s-76.5 -21.167 -114.5 -36.5s-75.5 -33.333 -112.5 -54s-72.667 -42.834 -107 -66.501
s-66.833 -47.834 -97.5 -72.501s-59 -49 -85 -73c-4 -36 -8.5 -72.333 -13.5 -109s-10.833 -72.334 -17.5 -107.001s-14.667 -67.334 -24 -98.001s-20 -57.334 -32 -80.001s-25.5 -40.667 -40.5 -54s-31.833 -20 -50.5 -20h-6zM173.004 5.00293l-6 -5
c0 2.66699 0.333008 5 1 7zM36.0039 -366.997c8.66699 0 19.168 7.33398 31.501 22.001s24.666 37.167 36.999 67.5s24.166 68.5 35.499 114.5s20.333 100.333 27 163c-18 -17.333 -36.167 -37.333 -54.5 -60s-34.666 -47.834 -48.999 -75.501s-26 -57 -35 -88
s-13.5 -63.167 -13.5 -96.5c0 -15.333 2 -27 6 -35s9 -12 15 -12z" />
    <glyph glyph-name="h.002" unicode="&#xe021;" horiz-adv-x="365" 
d="M232 18c36.667 41.333 80.8281 83.9961 132.495 127.996s107.834 84.333 168.501 121s124.167 66.667 190.5 90s132.166 35 197.499 35c36 0 70.833 -4 104.5 -12s66.834 -21 99.501 -39c4 -4 6 -8 6 -12c0 -5.33301 -1.83301 -10.333 -5.5 -15
s-8.16699 -6.66699 -13.5 -6c-32 17.333 -64.333 29.833 -97 37.5s-65.667 11.5 -99 11.5c-62 0 -124.5 -11.167 -187.5 -33.5s-123.833 -50.666 -182.5 -84.999s-113.667 -72.5 -165 -114.5s-95.666 -82.333 -132.999 -121c-8.66699 -9.33301 -18.667 -17.666 -30 -24.999
s-23.333 -11 -36 -11c-17.333 0 -29.166 5.33301 -35.499 16s-9.5 23.667 -9.5 39s2.66699 34 8 56s11 43.667 17 65c5.33301 20 10.333 39.667 15 59s7 35 7 47c0 10 -2 15 -6 15c-8.66699 0 -18.667 -7 -30 -21s-22.666 -31 -33.999 -51s-22.333 -41 -33 -63
s-19.334 -40.667 -26.001 -56l-11 -28c0 -1.33301 -1 -2 -3 -2h-47c-6 0 -9 4.33301 -9 13l3 41l4.5 73c1.66699 27.333 4.16699 56.333 7.5 87c3.33301 39.333 7.83301 80.166 13.5 122.499s12.167 84 19.5 125s15.833 79.833 25.5 116.5s20.834 68.834 33.501 96.501
s26.834 49.667 42.501 66s33.167 24.5 52.5 24.5c17.333 0 31.166 -4.5 41.499 -13.5s18.333 -20.167 24 -33.5s9.5 -27.5 11.5 -42.5s3 -28.833 3 -41.5c-0.666992 -26.667 -5.16699 -55.834 -13.5 -87.501s-20.666 -63.5 -36.999 -95.5s-36.666 -63.167 -60.999 -93.5
s-52.5 -57.5 -84.5 -81.5l-4 -43.5l-4 -44.5l-10 -107c8.66699 18.667 18.667 38.167 30 58.5s23.333 39 36 56s26 31.167 40 42.5s28 17 42 17c16 0 27.167 -4.66699 33.5 -14s9.5 -21.666 9.5 -36.999s-2.5 -33.5 -7.5 -54.5l-15.5 -63.5
c-6 -21.333 -11.333 -41.666 -16 -60.999s-7 -35.666 -7 -48.999c0 -14 2.66699 -21 8 -21c3.33301 0 7.16602 2 11.499 6zM138.994 688.996c-8.66699 -23.333 -16.3281 -49.168 -22.9951 -77.501s-12.667 -57.5 -18 -87.5s-10 -60.167 -14 -90.5
s-7.33301 -58.833 -10 -85.5c28 22.667 52.667 48 74 76s39.166 56.833 53.499 86.5s25.166 58.834 32.499 87.501s11 55 11 79c0 30.667 -3.83301 54.167 -11.5 70.5s-16.834 24.5 -27.501 24.5s-21.834 -6.5 -33.501 -19.5s-22.834 -34.167 -33.501 -63.5z" />
    <glyph glyph-name="i.002" unicode="&#xe022;" horiz-adv-x="189" 
d="M108 46c-8 -10 -17.001 -20.1689 -27.001 -30.502s-21.333 -15.5 -34 -15.5c-10.667 0 -19.5 3.66699 -26.5 11s-12.667 17.5 -17 30.5s-7.33301 27.833 -9 44.5s-2.5 34.667 -2.5 54c0 20 0.666992 40 2 60s3.33301 39 6 57c3.33301 26.667 7.16602 48.667 11.499 66
s8.16602 26 11.499 26h49c1.33301 0 2 -1.33301 2 -4c-0.666992 -5.33301 -2.5 -16.5 -5.5 -33.5s-6 -37 -9 -60s-5.66699 -47 -8 -72s-3.5 -47.833 -3.5 -68.5c0 -20 1.33301 -36.167 4 -48.5s7.66699 -18.5 15 -18.5c6.66699 0 16.667 7.66699 30 23
c22.667 28.667 49.334 57.834 80.001 87.501s64 58.334 100 86.001s74.333 53.5 115 77.5s82.334 45.167 125.001 63.5s86 32.666 130 42.999s87.667 15.5 131 15.5c37.333 0 73.333 -4.16699 108 -12.5s68.667 -21.166 102 -38.499c4 -4 6 -8 6 -12
c0 -5.33301 -1.83301 -10.333 -5.5 -15s-8.16699 -6.66699 -13.5 -6c-32.667 17.333 -66.167 30 -100.5 38s-69.166 12 -104.499 12c-62 0 -124.833 -10.833 -188.5 -32.5s-124.5 -49.667 -182.5 -84s-111.833 -72.5 -161.5 -114.5s-91.5 -83.333 -125.5 -124z
M46.999 410.998c10 0 18.001 -3.16699 24.001 -9.5s9 -13.166 9 -20.499c0 -8 -3.33301 -14.833 -10 -20.5s-14 -8.5 -22 -8.5c-9.33301 0 -17.333 2.66699 -24 8s-10 12.666 -10 21.999s3.16699 16.5 9.5 21.5s14.166 7.5 23.499 7.5z" />
    <glyph glyph-name="j.002" unicode="&#xe023;" horiz-adv-x="201" 
d="M48 66c-3.33301 -37.333 -7.3291 -75.0029 -11.9961 -113.003s-10.334 -74.5 -17.001 -109.5s-14.5 -67.667 -23.5 -98s-19.667 -56.666 -32 -78.999s-26.333 -40 -42 -53s-33.5 -19.5 -53.5 -19.5c-11.333 0 -20.833 2.33301 -28.5 7s-13.834 10.834 -18.501 18.501
s-7.83398 16.5 -9.50098 26.5s-2.5 20.333 -2.5 31c0 19.333 2 39 6 59s7.66699 35.667 11 47c11.333 37.333 24.833 70.833 40.5 100.5s31.167 55.167 46.5 76.5s29.333 38.666 42 51.999s21.667 22.333 27 27l3 3c0.666992 2.66699 1.5 9.83398 2.5 21.501
s2 25.834 3 42.501s2.16699 35.167 3.5 55.5l4 60.5c0.666992 6 1 12 1 18s0.333008 11.667 1 17c1.33301 20 2.33301 37.833 3 53.5s1.66699 27.167 3 34.5c1.33301 6.66699 5 10 11 10h48c2 0 3 -1 3 -3c-2 -25.333 -3.83301 -50.666 -5.5 -75.999
s-3.16699 -50.666 -4.5 -75.999l-7 -96c39.333 37.333 83.833 74.833 133.5 112.5s102 71.5 157 101.5s111.833 54.5 170.5 73.5s117 28.5 175 28.5c35.333 0 69.5 -3.83301 102.5 -11.5s65.5 -20.167 97.5 -37.5c4 -4 6 -8 6 -12c0 -5.33301 -1.83301 -10.333 -5.5 -15
s-8.16699 -6.66699 -13.5 -6c-31.333 17.333 -63.333 29.833 -96 37.5s-66 11.5 -100 11.5c-56 0 -113 -9.66699 -171 -29s-114.5 -44.333 -169.5 -75s-107.333 -64.834 -157 -102.501s-93.834 -74.834 -132.501 -111.501v-3zM-84.9961 -307.003
c8.66699 18.667 16.498 40.1699 23.498 64.5029s13.167 50.166 18.5 77.499s10 55.666 14 84.999s7.66699 59 11 89c-21.333 -21.333 -41.166 -45.333 -59.499 -72s-34.166 -54.5 -47.499 -83.5s-23.833 -58.5 -31.5 -88.5s-11.5 -59 -11.5 -87c0 -14 1.66699 -26.5 5 -37.5
s9 -16.5 17 -16.5c9.33301 0 19.5 6.16699 30.5 18.5s21.167 29.166 30.5 50.499zM41.002 416c10 0 18.168 -3.16699 24.501 -9.5s9.5 -13.166 9.5 -20.499c0 -8 -3.5 -14.833 -10.5 -20.5s-14.5 -8.5 -22.5 -8.5c-9.33301 0 -17.333 2.66699 -24 8s-10 12.666 -10 21.999
s3.16699 16.5 9.5 21.5s14.166 7.5 23.499 7.5z" />
    <glyph glyph-name="k.002" unicode="&#xe024;" horiz-adv-x="288" 
d="M201 36c-9.33301 -10.667 -18.332 -18.9961 -26.999 -24.9961s-18.334 -9 -29.001 -9c-14.667 0 -30.167 8 -46.5 24s-33.5 41.333 -51.5 76l-8 -100c0 -2 -0.666992 -3 -2 -3c-10 -4 -21 -6 -33 -6c-11.333 0 -19.666 1.33301 -24.999 4c-1.33301 0 -2 1 -2 3l7 76
c2.66699 28 5.16699 57.167 7.5 87.5s5.16602 61.5 8.49902 93.5c4.66699 43.333 9.83398 87 15.501 131s12.5 86.333 20.5 127s17 78.5 27 113.5s21.667 65.667 35 92s28.333 47 45 62s35.334 22.5 56.001 22.5c20 0 36.833 -9.33301 50.5 -28s20.5 -43.667 20.5 -75
c0 -17.333 -3 -36.5 -9 -57.5s-15.167 -43.333 -27.5 -67s-28 -47.834 -47 -72.501s-41.5 -49.334 -67.5 -74.001l-39 -32c-4 -25.333 -7.33301 -49.333 -10 -72l-8 -70c20.667 28.667 40 49.167 58 61.5s33 18.5 45 18.5c15.333 0 23 -7 23 -21
c0 -10.667 -8.33301 -25.834 -25 -45.501s-48 -42.834 -94 -69.501c20 -56.667 37 -97.167 51 -121.5s27.667 -36.833 41 -37.5c6 0 12.667 3 20 9l89.5 81c33 28.667 68.167 56.834 105.5 84.501s76.666 54.167 117.999 79.5s83.666 47.5 126.999 66.5s87 34.167 131 45.5
s87.667 17 131 17c34 0 67.167 -3.83301 99.5 -11.5s63.833 -19.834 94.5 -36.501c4 -4 6 -8 6 -12c0 -5.33301 -1.83301 -10.333 -5.5 -15s-8.16699 -6.66699 -13.5 -6c-32 17.333 -64.667 29.833 -98 37.5s-67 11.5 -101 11.5c-62.667 0 -126 -11 -190 -33
s-125.167 -50.333 -183.5 -85s-112.5 -73.167 -162.5 -115.5s-92.667 -83.5 -128 -123.5zM153.001 698.004c-9.33301 -19.333 -17.502 -40.166 -24.502 -62.499s-13.167 -45.166 -18.5 -68.499s-10.166 -46.833 -14.499 -70.5s-8.16602 -46.5 -11.499 -68.5
c25.333 20.667 48 42.667 68 66s37 46.666 51 69.999s24.667 46.5 32 69.5s11 44.833 11 65.5c0 21.333 -3 37.166 -9 47.499s-13.667 15.5 -23 15.5s-19.333 -5.16699 -30 -15.5s-21 -26.5 -31 -48.5zM56.999 220.004l10 6l-6 -11zM164.999 316.004
c-9.33301 0 -23.168 -7.16797 -41.501 -21.501s-37.166 -37.166 -56.499 -68.499c34 19.333 59 37 75 53s24 28 24 36c0 0.666992 -0.333008 1 -1 1z" />
    <glyph glyph-name="l.002" unicode="&#xe025;" horiz-adv-x="250" 
d="M117 45l92.498 78.5c33.667 27.667 69.334 55.334 107.001 83.001s77 54.167 118 79.5s82.833 47.5 125.5 66.5s85.834 34.333 129.501 46s86.834 17.5 129.501 17.5c33.333 0 65.833 -3.5 97.5 -10.5s62.834 -19.167 93.501 -36.5c3.33301 -3.33301 5 -7.33301 5 -12
c0 -5.33301 -1.66699 -10.333 -5 -15s-7.66602 -6.66699 -12.999 -6c-30 16 -60.667 27.667 -92 35s-63 11 -95 11c-40.667 0 -81.834 -5.5 -123.501 -16.5s-83.334 -25.5 -125.001 -43.5s-82.5 -39 -122.5 -63s-78.5 -49.167 -115.5 -75.5s-71.833 -52.833 -104.5 -79.5
s-62.334 -52 -89.001 -76c-22 -20 -40.667 -30 -56 -30c-13.333 0 -24.833 4.66699 -34.5 14s-17.5 22.5 -23.5 39.5s-10.5 37.167 -13.5 60.5s-4.5 49 -4.5 77v33.5c0 11 0.666992 22.5 2 34.5c2.66699 39.333 7.16699 80.333 13.5 123s14.5 84.334 24.5 125.001
s21.5 79.5 34.5 116.5s27 69.333 42 97s31 49.667 48 66s34.833 24.5 53.5 24.5c12 0 22 -2.5 30 -7.5s14.5 -11.667 19.5 -20s8.66699 -18 11 -29s3.5 -22.167 3.5 -33.5c0 -34.667 -6.33301 -70.834 -19 -108.501s-29.167 -74.334 -49.5 -110.001
s-43.166 -69.167 -68.499 -100.5s-50.333 -58 -75 -80c-1.33301 -13.333 -3 -33.333 -5 -60s-3 -54.667 -3 -84c0 -18 0.5 -35.5 1.5 -52.5s2.83301 -32.167 5.5 -45.5s6.16699 -24 10.5 -32s10.166 -12 17.499 -12c6 0 13.333 3.66699 22 11zM65.998 346l6 6
c-0.666992 -2 -1 -4.66699 -1 -8zM234.998 775c-16 0 -32.501 -13.832 -49.501 -41.499s-33 -62.5 -48 -104.5s-28.167 -87.667 -39.5 -137s-20 -96 -26 -140c26.667 25.333 51.5 54 74.5 86s42.833 64.667 59.5 98s29.667 66 39 98s14 61 14 87
c0 17.333 -2.16699 30.666 -6.5 39.999s-10.166 14 -17.499 14z" />
    </font>
</defs>
</svg>
